STARTFONT 2.3
FONT -FontForge-Open Sans-Bold-R-Normal-Sans--9-90-72-72-P-56-ISO10646-1
SIZE 9 72 72  2
FONTBOUNDINGBOX 18 15 -6 -3
COMMENT "Generated by fontforge, http://fontforge.sourceforge.net"
COMMENT "Digitized data copyright (c) 2010-2011, Google Corporation."
STARTPROPERTIES 41
FOUNDRY "FontForge"
FAMILY_NAME "Open Sans"
WEIGHT_NAME "Bold"
SLANT "R"
SETWIDTH_NAME "Normal"
ADD_STYLE_NAME "Sans"
PIXEL_SIZE 9
POINT_SIZE 90
RESOLUTION_X 72
RESOLUTION_Y 72
SPACING "P"
AVERAGE_WIDTH 56
CHARSET_REGISTRY "ISO10646"
CHARSET_ENCODING "1"
FONTNAME_REGISTRY ""
CHARSET_COLLECTIONS "ISO8859-2 ISO8859-5 ISO8859-7 ISO8859-9 ISO8859-4 ISO10646-1"
BITS_PER_PIXEL 2
FONT_NAME "OpenSans-Bold"
FACE_NAME "Open Sans Bold"
COPYRIGHT "Digitized data copyright (c) 2010-2011, Google Corporation."
FONT_VERSION "1.10"
FONT_ASCENT 7
FONT_DESCENT 2
UNDERLINE_POSITION -1
UNDERLINE_THICKNESS 1
X_HEIGHT 4
CAP_HEIGHT 6
RAW_ASCENT 799
RAW_DESCENT 200
NORM_SPACE 2
RELATIVE_WEIGHT 70
RELATIVE_SETWIDTH 50
SUPERSCRIPT_X 0
SUPERSCRIPT_Y 4
SUPERSCRIPT_SIZE 5
SUBSCRIPT_X 0
SUBSCRIPT_Y 1
SUBSCRIPT_SIZE 5
FIGURE_WIDTH 5
AVG_LOWERCASE_WIDTH 56
AVG_UPPERCASE_WIDTH 64
ENDPROPERTIES
CHARS 938
STARTCHAR space
ENCODING 32
SWIDTH 259 0
DWIDTH 2 0
BBX 1 1 0 0
BITMAP
00
ENDCHAR
STARTCHAR exclam
ENCODING 33
SWIDTH 286 0
DWIDTH 3 0
BBX 2 7 0 0
BITMAP
70
70
70
70
60
10
70
ENDCHAR
STARTCHAR quotedbl
ENCODING 34
SWIDTH 472 0
DWIDTH 4 0
BBX 4 2 0 5
BITMAP
6A
66
ENDCHAR
STARTCHAR numbersign
ENCODING 35
SWIDTH 645 0
DWIDTH 6 0
BBX 6 7 0 0
BITMAP
0C80
0D80
7FE0
1640
BFD0
3300
3600
ENDCHAR
STARTCHAR dollar
ENCODING 36
SWIDTH 570 0
DWIDTH 5 0
BBX 5 8 0 -1
BITMAP
0800
2F40
B900
7D00
1B40
5A80
7F40
0800
ENDCHAR
STARTCHAR percent
ENCODING 37
SWIDTH 900 0
DWIDTH 8 0
BBX 8 7 0 0
BITMAP
7830
9D60
9DC0
7AAD
0376
0A36
0C2D
ENDCHAR
STARTCHAR ampersand
ENCODING 38
SWIDTH 750 0
DWIDTH 7 0
BBX 7 7 0 0
BITMAP
2F40
3680
2F00
7E34
B3B0
B6E0
2FB4
ENDCHAR
STARTCHAR quotesingle
ENCODING 39
SWIDTH 266 0
DWIDTH 2 0
BBX 2 2 0 5
BITMAP
60
60
ENDCHAR
STARTCHAR parenleft
ENCODING 40
SWIDTH 338 0
DWIDTH 3 0
BBX 3 8 0 -1
BITMAP
24
30
60
A0
A0
60
70
24
ENDCHAR
STARTCHAR parenright
ENCODING 41
SWIDTH 338 0
DWIDTH 3 0
BBX 3 8 0 -1
BITMAP
60
34
28
28
28
28
34
60
ENDCHAR
STARTCHAR asterisk
ENCODING 42
SWIDTH 544 0
DWIDTH 5 0
BBX 5 4 0 3
BITMAP
0C00
AE40
2E00
2600
ENDCHAR
STARTCHAR plus
ENCODING 43
SWIDTH 570 0
DWIDTH 5 0
BBX 5 5 0 1
BITMAP
0800
0C00
BF80
0C00
0800
ENDCHAR
STARTCHAR comma
ENCODING 44
SWIDTH 290 0
DWIDTH 3 0
BBX 2 2 0 -1
BITMAP
70
90
ENDCHAR
STARTCHAR hyphen
ENCODING 45
SWIDTH 321 0
DWIDTH 3 0
BBX 3 1 0 2
BITMAP
B8
ENDCHAR
STARTCHAR period
ENCODING 46
SWIDTH 285 0
DWIDTH 3 0
BBX 2 2 0 0
BITMAP
10
70
ENDCHAR
STARTCHAR slash
ENCODING 47
SWIDTH 413 0
DWIDTH 4 0
BBX 4 7 0 0
BITMAP
0A
0C
18
24
30
60
90
ENDCHAR
STARTCHAR zero
ENCODING 48
SWIDTH 570 0
DWIDTH 5 0
BBX 5 7 0 0
BITMAP
2E00
7740
A280
A280
A280
7780
2E00
ENDCHAR
STARTCHAR one
ENCODING 49
SWIDTH 570 0
DWIDTH 5 0
BBX 4 7 0 0
BITMAP
0E
7E
1A
0A
0A
0A
0A
ENDCHAR
STARTCHAR two
ENCODING 50
SWIDTH 570 0
DWIDTH 5 0
BBX 5 7 0 0
BITMAP
6E00
6780
0280
0700
1D00
7400
BFC0
ENDCHAR
STARTCHAR three
ENCODING 51
SWIDTH 570 0
DWIDTH 5 0
BBX 5 7 0 0
BITMAP
7E00
1780
0340
2E00
0280
4380
7E00
ENDCHAR
STARTCHAR four
ENCODING 52
SWIDTH 570 0
DWIDTH 5 0
BBX 5 7 0 0
BITMAP
0740
0F40
2740
6340
FFC0
0340
0340
ENDCHAR
STARTCHAR five
ENCODING 53
SWIDTH 570 0
DWIDTH 5 0
BBX 5 7 0 0
BITMAP
7F40
7000
7E00
1780
0280
5740
7E00
ENDCHAR
STARTCHAR six
ENCODING 54
SWIDTH 570 0
DWIDTH 5 0
BBX 5 7 0 0
BITMAP
1B40
7400
AF40
B280
A180
7680
2E00
ENDCHAR
STARTCHAR seven
ENCODING 55
SWIDTH 570 0
DWIDTH 5 0
BBX 5 7 0 0
BITMAP
BFC0
0280
0340
0A00
0D00
1C00
2800
ENDCHAR
STARTCHAR eight
ENCODING 56
SWIDTH 570 0
DWIDTH 5 0
BBX 5 7 0 0
BITMAP
2E00
7280
7740
2E00
A280
A280
2E40
ENDCHAR
STARTCHAR nine
ENCODING 57
SWIDTH 570 0
DWIDTH 5 0
BBX 5 7 0 0
BITMAP
2E00
B780
A280
B280
3E80
0740
7D00
ENDCHAR
STARTCHAR colon
ENCODING 58
SWIDTH 285 0
DWIDTH 3 0
BBX 2 5 0 0
BITMAP
70
10
00
10
70
ENDCHAR
STARTCHAR semicolon
ENCODING 59
SWIDTH 290 0
DWIDTH 3 0
BBX 2 6 0 -1
BITMAP
70
10
00
00
70
90
ENDCHAR
STARTCHAR less
ENCODING 60
SWIDTH 570 0
DWIDTH 5 0
BBX 5 5 0 1
BITMAP
0040
0680
6900
6900
0680
ENDCHAR
STARTCHAR equal
ENCODING 61
SWIDTH 570 0
DWIDTH 5 0
BBX 5 3 0 2
BITMAP
BF80
0000
BF80
ENDCHAR
STARTCHAR greater
ENCODING 62
SWIDTH 570 0
DWIDTH 5 0
BBX 5 5 0 1
BITMAP
4000
7400
0B40
1B40
A400
ENDCHAR
STARTCHAR question
ENCODING 63
SWIDTH 477 0
DWIDTH 4 0
BBX 4 7 0 0
BITMAP
BE
57
0A
28
00
10
24
ENDCHAR
STARTCHAR at
ENCODING 64
SWIDTH 896 0
DWIDTH 8 0
BBX 8 8 0 -1
BITMAP
0BE4
281C
66A9
6966
9D65
67A8
3400
0AE0
ENDCHAR
STARTCHAR A
ENCODING 65
SWIDTH 689 0
DWIDTH 6 0
BBX 6 7 0 0
BITMAP
0F00
1E40
2980
35C0
7FD0
B0A0
E070
ENDCHAR
STARTCHAR B
ENCODING 66
SWIDTH 671 0
DWIDTH 6 0
BBX 6 7 0 0
BITMAP
7F80
75D0
74D0
7F80
75D0
75D0
7F80
ENDCHAR
STARTCHAR C
ENCODING 67
SWIDTH 637 0
DWIDTH 6 0
BBX 6 7 0 0
BITMAP
1BD0
3940
7000
7000
7000
3940
1BC0
ENDCHAR
STARTCHAR D
ENCODING 68
SWIDTH 740 0
DWIDTH 7 0
BBX 6 7 0 0
BITMAP
7F80
75E0
7470
7470
7470
75E0
7F80
ENDCHAR
STARTCHAR E
ENCODING 69
SWIDTH 560 0
DWIDTH 5 0
BBX 5 7 0 0
BITMAP
7F80
7400
7400
7F40
7400
7400
7F80
ENDCHAR
STARTCHAR F
ENCODING 70
SWIDTH 548 0
DWIDTH 5 0
BBX 5 7 0 0
BITMAP
7F40
7400
7000
7F40
7400
7000
7000
ENDCHAR
STARTCHAR G
ENCODING 71
SWIDTH 724 0
DWIDTH 7 0
BBX 6 7 0 0
BITMAP
0BD0
3950
7000
72E0
70A0
39A0
1BE0
ENDCHAR
STARTCHAR H
ENCODING 72
SWIDTH 765 0
DWIDTH 7 0
BBX 6 7 0 0
BITMAP
7470
7470
7470
7FF0
7470
7470
7470
ENDCHAR
STARTCHAR I
ENCODING 73
SWIDTH 331 0
DWIDTH 3 0
BBX 3 7 0 0
BITMAP
74
74
74
74
74
74
74
ENDCHAR
STARTCHAR J
ENCODING 74
SWIDTH 331 0
DWIDTH 3 0
BBX 4 8 -1 -1
BITMAP
1D
1D
1D
1D
1D
1D
1C
B4
ENDCHAR
STARTCHAR K
ENCODING 75
SWIDTH 664 0
DWIDTH 6 0
BBX 6 7 0 0
BITMAP
74E0
7680
7B40
7F00
7780
75C0
74A0
ENDCHAR
STARTCHAR L
ENCODING 76
SWIDTH 564 0
DWIDTH 5 0
BBX 5 7 0 0
BITMAP
7400
7400
7400
7400
7400
7400
7F80
ENDCHAR
STARTCHAR M
ENCODING 77
SWIDTH 942 0
DWIDTH 8 0
BBX 8 7 0 0
BITMAP
781E
7C2E
793A
767A
77AA
73DA
72CA
ENDCHAR
STARTCHAR N
ENCODING 78
SWIDTH 812 0
DWIDTH 7 0
BBX 7 7 0 0
BITMAP
7828
7D28
7B28
7368
72E8
70F8
7078
ENDCHAR
STARTCHAR O
ENCODING 79
SWIDTH 795 0
DWIDTH 7 0
BBX 7 7 0 0
BITMAP
1BD0
39B4
7038
7028
7038
39B4
1BD0
ENDCHAR
STARTCHAR P
ENCODING 80
SWIDTH 627 0
DWIDTH 6 0
BBX 6 7 0 0
BITMAP
7F40
75C0
74D0
76C0
7F40
7400
7400
ENDCHAR
STARTCHAR Q
ENCODING 81
SWIDTH 795 0
DWIDTH 7 0
BBX 7 8 0 -1
BITMAP
1BD0
39B4
7038
7028
7038
39B4
1BD0
00B0
ENDCHAR
STARTCHAR R
ENCODING 82
SWIDTH 660 0
DWIDTH 6 0
BBX 6 7 0 0
BITMAP
7F40
75C0
75C0
7F40
7740
75C0
74A0
ENDCHAR
STARTCHAR S
ENCODING 83
SWIDTH 550 0
DWIDTH 5 0
BBX 5 7 0 0
BITMAP
2F40
7500
7400
2E00
0740
5780
7E00
ENDCHAR
STARTCHAR T
ENCODING 84
SWIDTH 579 0
DWIDTH 5 0
BBX 5 7 0 0
BITMAP
BFC0
1D00
0D00
0D00
0D00
0D00
0D00
ENDCHAR
STARTCHAR U
ENCODING 85
SWIDTH 755 0
DWIDTH 7 0
BBX 6 7 0 0
BITMAP
7070
7070
7070
7070
7070
39A0
1F90
ENDCHAR
STARTCHAR V
ENCODING 86
SWIDTH 649 0
DWIDTH 6 0
BBX 6 7 0 0
BITMAP
E0A0
A0D0
71C0
3680
2A40
1F00
0E00
ENDCHAR
STARTCHAR W
ENCODING 87
SWIDTH 966 0
DWIDTH 9 0
BBX 9 7 0 0
BITMAP
D1C280
A2D340
73A300
776700
3A3A00
2E3D00
1D2D00
ENDCHAR
STARTCHAR X
ENCODING 88
SWIDTH 666 0
DWIDTH 6 0
BBX 6 7 0 0
BITMAP
B0E0
35C0
1F40
0F00
2B40
35C0
A0A0
ENDCHAR
STARTCHAR Y
ENCODING 89
SWIDTH 624 0
DWIDTH 6 0
BBX 6 7 0 0
BITMAP
A0D0
76C0
2B40
1E00
0D00
0D00
0D00
ENDCHAR
STARTCHAR Z
ENCODING 90
SWIDTH 579 0
DWIDTH 5 0
BBX 5 7 0 0
BITMAP
BFC0
0780
0B00
1D00
2800
7400
BFC0
ENDCHAR
STARTCHAR bracketleft
ENCODING 91
SWIDTH 331 0
DWIDTH 3 0
BBX 3 8 0 -1
BITMAP
78
60
60
60
60
60
60
78
ENDCHAR
STARTCHAR backslash
ENCODING 92
SWIDTH 413 0
DWIDTH 4 0
BBX 4 7 0 0
BITMAP
90
60
30
24
18
0C
0A
ENDCHAR
STARTCHAR bracketright
ENCODING 93
SWIDTH 331 0
DWIDTH 3 0
BBX 3 8 0 -1
BITMAP
B4
24
24
24
24
24
24
B4
ENDCHAR
STARTCHAR asciicircum
ENCODING 94
SWIDTH 532 0
DWIDTH 5 0
BBX 5 5 0 2
BITMAP
1800
2D00
3600
6300
9180
ENDCHAR
STARTCHAR underscore
ENCODING 95
SWIDTH 411 0
DWIDTH 4 0
BBX 4 1 0 -1
BITMAP
A9
ENDCHAR
STARTCHAR grave
ENCODING 96
SWIDTH 606 0
DWIDTH 5 0
BBX 3 2 1 5
BITMAP
74
18
ENDCHAR
STARTCHAR a
ENCODING 97
SWIDTH 604 0
DWIDTH 5 0
BBX 5 5 0 0
BITMAP
2F40
1280
6B80
B280
7E80
ENDCHAR
STARTCHAR b
ENCODING 98
SWIDTH 632 0
DWIDTH 6 0
BBX 6 7 0 0
BITMAP
7000
7000
7B80
75C0
70D0
75C0
7B80
ENDCHAR
STARTCHAR c
ENCODING 99
SWIDTH 514 0
DWIDTH 5 0
BBX 4 5 0 0
BITMAP
2F
75
A0
75
2F
ENDCHAR
STARTCHAR d
ENCODING 100
SWIDTH 632 0
DWIDTH 6 0
BBX 5 7 0 0
BITMAP
01C0
01C0
2EC0
76C0
A1C0
72C0
2EC0
ENDCHAR
STARTCHAR e
ENCODING 101
SWIDTH 590 0
DWIDTH 5 0
BBX 5 5 0 0
BITMAP
2F40
7180
BF80
7000
2F80
ENDCHAR
STARTCHAR f
ENCODING 102
SWIDTH 387 0
DWIDTH 3 0
BBX 4 7 0 0
BITMAP
2E
34
BD
34
34
34
34
ENDCHAR
STARTCHAR g
ENCODING 103
SWIDTH 564 0
DWIDTH 5 0
BBX 5 7 0 -2
BITMAP
7F80
A340
7E00
6000
7F80
D1C0
BE40
ENDCHAR
STARTCHAR h
ENCODING 104
SWIDTH 657 0
DWIDTH 6 0
BBX 6 7 0 0
BITMAP
7000
7000
7B80
75D0
70D0
70D0
70D0
ENDCHAR
STARTCHAR i
ENCODING 105
SWIDTH 305 0
DWIDTH 3 0
BBX 2 7 0 0
BITMAP
70
10
70
70
70
70
70
ENDCHAR
STARTCHAR j
ENCODING 106
SWIDTH 305 0
DWIDTH 3 0
BBX 3 9 -1 -2
BITMAP
1C
04
1C
1C
1C
1C
1C
1C
B8
ENDCHAR
STARTCHAR k
ENCODING 107
SWIDTH 620 0
DWIDTH 6 0
BBX 6 7 0 0
BITMAP
7000
7000
72C0
7740
7E00
7740
71D0
ENDCHAR
STARTCHAR l
ENCODING 108
SWIDTH 305 0
DWIDTH 3 0
BBX 2 7 0 0
BITMAP
70
70
70
70
70
70
70
ENDCHAR
STARTCHAR m
ENCODING 109
SWIDTH 981 0
DWIDTH 9 0
BBX 9 5 0 0
BITMAP
7BAE00
75D700
71C740
71C740
71C740
ENDCHAR
STARTCHAR n
ENCODING 110
SWIDTH 657 0
DWIDTH 6 0
BBX 6 5 0 0
BITMAP
7B80
75D0
70D0
70D0
70D0
ENDCHAR
STARTCHAR o
ENCODING 111
SWIDTH 619 0
DWIDTH 6 0
BBX 5 5 0 0
BITMAP
2F40
76C0
A1C0
76C0
2F40
ENDCHAR
STARTCHAR p
ENCODING 112
SWIDTH 632 0
DWIDTH 6 0
BBX 6 7 0 -2
BITMAP
7B80
75C0
70D0
75C0
7B80
7000
7000
ENDCHAR
STARTCHAR q
ENCODING 113
SWIDTH 632 0
DWIDTH 6 0
BBX 5 7 0 -2
BITMAP
2EC0
76C0
A1C0
72C0
2EC0
01C0
01C0
ENDCHAR
STARTCHAR r
ENCODING 114
SWIDTH 454 0
DWIDTH 4 0
BBX 4 5 0 0
BITMAP
7A
79
70
70
70
ENDCHAR
STARTCHAR s
ENCODING 115
SWIDTH 497 0
DWIDTH 4 0
BBX 4 5 0 0
BITMAP
7E
B5
2E
47
7E
ENDCHAR
STARTCHAR t
ENCODING 116
SWIDTH 434 0
DWIDTH 4 0
BBX 4 6 0 0
BITMAP
34
BE
34
34
34
2E
ENDCHAR
STARTCHAR u
ENCODING 117
SWIDTH 657 0
DWIDTH 6 0
BBX 6 5 0 0
BITMAP
70D0
70D0
70D0
75D0
2ED0
ENDCHAR
STARTCHAR v
ENCODING 118
SWIDTH 568 0
DWIDTH 5 0
BBX 5 5 0 0
BITMAP
A1C0
7280
3740
2A00
1D00
ENDCHAR
STARTCHAR w
ENCODING 119
SWIDTH 855 0
DWIDTH 8 0
BBX 8 5 0 0
BITMAP
A38D
66CD
79AC
3DB8
2C74
ENDCHAR
STARTCHAR x
ENCODING 120
SWIDTH 578 0
DWIDTH 5 0
BBX 5 5 0 0
BITMAP
B280
3B00
1E00
3B40
B280
ENDCHAR
STARTCHAR y
ENCODING 121
SWIDTH 568 0
DWIDTH 5 0
BBX 5 7 0 -2
BITMAP
A1C0
7280
3740
2E00
1D00
1C00
B400
ENDCHAR
STARTCHAR z
ENCODING 122
SWIDTH 487 0
DWIDTH 4 0
BBX 4 5 0 0
BITMAP
BF
0A
2C
74
BF
ENDCHAR
STARTCHAR braceleft
ENCODING 123
SWIDTH 394 0
DWIDTH 4 0
BBX 4 8 0 -1
BITMAP
1D
28
24
B4
B4
24
28
1D
ENDCHAR
STARTCHAR bar
ENCODING 124
SWIDTH 550 0
DWIDTH 5 0
BBX 1 9 2 -2
BITMAP
C0
C0
C0
C0
C0
C0
C0
C0
C0
ENDCHAR
STARTCHAR braceright
ENCODING 125
SWIDTH 394 0
DWIDTH 4 0
BBX 4 8 0 -1
BITMAP
A0
34
34
29
29
34
34
B0
ENDCHAR
STARTCHAR asciitilde
ENCODING 126
SWIDTH 570 0
DWIDTH 5 0
BBX 5 2 0 2
BITMAP
7840
4B40
ENDCHAR
STARTCHAR nonbreakingspace
ENCODING 160
SWIDTH 259 0
DWIDTH 2 0
BBX 1 1 0 0
BITMAP
00
ENDCHAR
STARTCHAR exclamdown
ENCODING 161
SWIDTH 286 0
DWIDTH 3 0
BBX 2 7 0 -2
BITMAP
70
10
60
70
70
70
70
ENDCHAR
STARTCHAR cent
ENCODING 162
SWIDTH 570 0
DWIDTH 5 0
BBX 5 7 0 0
BITMAP
0900
2F40
7400
7000
7400
2F40
0900
ENDCHAR
STARTCHAR sterling
ENCODING 163
SWIDTH 570 0
DWIDTH 5 0
BBX 5 7 0 0
BITMAP
1F80
2800
3400
BF00
3400
7400
BFC0
ENDCHAR
STARTCHAR currency
ENCODING 164
SWIDTH 570 0
DWIDTH 5 0
BBX 5 4 0 1
BITMAP
7E40
3240
3240
7E40
ENDCHAR
STARTCHAR yen
ENCODING 165
SWIDTH 570 0
DWIDTH 5 0
BBX 5 7 0 0
BITMAP
A1C0
7240
3700
2E00
2E40
2E40
0D00
ENDCHAR
STARTCHAR brokenbar
ENCODING 166
SWIDTH 550 0
DWIDTH 5 0
BBX 1 9 2 -2
BITMAP
C0
C0
C0
C0
00
C0
C0
C0
C0
ENDCHAR
STARTCHAR section
ENCODING 167
SWIDTH 485 0
DWIDTH 4 0
BBX 4 7 0 0
BITMAP
2E
60
3D
67
2E
07
7D
ENDCHAR
STARTCHAR dieresis
ENCODING 168
SWIDTH 606 0
DWIDTH 5 0
BBX 3 1 1 6
BITMAP
9C
ENDCHAR
STARTCHAR copyright
ENCODING 169
SWIDTH 832 0
DWIDTH 7 0
BBX 7 7 0 0
BITMAP
0A90
27D4
5908
8C08
5908
2794
0A90
ENDCHAR
STARTCHAR ordfeminine
ENCODING 170
SWIDTH 382 0
DWIDTH 3 0
BBX 3 3 0 4
BITMAP
68
6C
A8
ENDCHAR
STARTCHAR guillemotleft
ENCODING 171
SWIDTH 615 0
DWIDTH 6 0
BBX 5 5 0 0
BITMAP
1880
3680
B700
3680
1880
ENDCHAR
STARTCHAR logicalnot
ENCODING 172
SWIDTH 570 0
DWIDTH 5 0
BBX 5 3 0 1
BITMAP
BF80
0180
0180
ENDCHAR
STARTCHAR uni00AD
ENCODING 173
SWIDTH 321 0
DWIDTH 3 0
BBX 3 1 0 2
BITMAP
B8
ENDCHAR
STARTCHAR registered
ENCODING 174
SWIDTH 832 0
DWIDTH 7 0
BBX 7 7 0 0
BITMAP
0A90
2B94
59C8
8B88
5AC8
29A4
0A90
ENDCHAR
STARTCHAR overscore
ENCODING 175
SWIDTH 500 0
DWIDTH 5 0
BBX 5 1 0 7
BITMAP
FF40
ENDCHAR
STARTCHAR degree
ENCODING 176
SWIDTH 428 0
DWIDTH 4 0
BBX 4 3 0 4
BITMAP
68
95
78
ENDCHAR
STARTCHAR plusminus
ENCODING 177
SWIDTH 570 0
DWIDTH 5 0
BBX 5 6 0 0
BITMAP
0800
0C00
BF80
0C00
0800
BF80
ENDCHAR
STARTCHAR twosuperior
ENCODING 178
SWIDTH 378 0
DWIDTH 3 0
BBX 3 4 0 3
BITMAP
78
1C
24
BC
ENDCHAR
STARTCHAR threesuperior
ENCODING 179
SWIDTH 378 0
DWIDTH 3 0
BBX 3 4 0 3
BITMAP
68
08
28
A8
ENDCHAR
STARTCHAR acute
ENCODING 180
SWIDTH 606 0
DWIDTH 5 0
BBX 3 2 1 5
BITMAP
28
60
ENDCHAR
STARTCHAR mu
ENCODING 181
SWIDTH 660 0
DWIDTH 6 0
BBX 6 7 0 -2
BITMAP
70D0
70D0
70D0
75D0
7ED0
7000
7000
ENDCHAR
STARTCHAR paragraph
ENCODING 182
SWIDTH 654 0
DWIDTH 6 0
BBX 5 8 0 -1
BITMAP
2FC0
7E80
7E80
2E80
0280
0280
0280
0280
ENDCHAR
STARTCHAR periodcentered
ENCODING 183
SWIDTH 285 0
DWIDTH 3 0
BBX 2 2 0 2
BITMAP
70
10
ENDCHAR
STARTCHAR cedilla
ENCODING 184
SWIDTH 205 0
DWIDTH 2 0
BBX 2 2 0 -2
BITMAP
90
A0
ENDCHAR
STARTCHAR onesuperior
ENCODING 185
SWIDTH 378 0
DWIDTH 3 0
BBX 3 4 0 3
BITMAP
28
68
18
18
ENDCHAR
STARTCHAR ordmasculine
ENCODING 186
SWIDTH 388 0
DWIDTH 4 0
BBX 4 3 0 4
BITMAP
68
99
68
ENDCHAR
STARTCHAR guillemotright
ENCODING 187
SWIDTH 615 0
DWIDTH 6 0
BBX 5 5 0 0
BITMAP
6600
3680
29C0
3680
6600
ENDCHAR
STARTCHAR onequarter
ENCODING 188
SWIDTH 880 0
DWIDTH 8 0
BBX 8 7 0 0
BITMAP
7460
6490
2580
265C
062C
099C
18AD
ENDCHAR
STARTCHAR onehalf
ENCODING 189
SWIDTH 880 0
DWIDTH 8 0
BBX 8 7 0 0
BITMAP
7460
6490
2580
266D
0609
0928
187D
ENDCHAR
STARTCHAR threequarters
ENCODING 190
SWIDTH 880 0
DWIDTH 8 0
BBX 8 7 0 0
BITMAP
6830
0C60
28C0
6A9C
032C
0A5C
0CAD
ENDCHAR
STARTCHAR questiondown
ENCODING 191
SWIDTH 477 0
DWIDTH 4 0
BBX 4 7 0 -2
BITMAP
0C
04
00
1C
74
A1
7E
ENDCHAR
STARTCHAR Agrave
ENCODING 192
SWIDTH 689 0
DWIDTH 6 0
BBX 6 10 0 0
BITMAP
1D00
0600
0000
0F00
1E40
2980
35C0
7FD0
B0A0
E070
ENDCHAR
STARTCHAR Aacute
ENCODING 193
SWIDTH 689 0
DWIDTH 6 0
BBX 6 10 0 0
BITMAP
0380
0600
0000
0F00
1E40
2980
35C0
7FD0
B0A0
E070
ENDCHAR
STARTCHAR Acircumflex
ENCODING 194
SWIDTH 689 0
DWIDTH 6 0
BBX 6 10 0 0
BITMAP
0F40
2580
0000
0F00
1E40
2980
35C0
7FD0
B0A0
E070
ENDCHAR
STARTCHAR Atilde
ENCODING 195
SWIDTH 689 0
DWIDTH 6 0
BBX 6 10 0 0
BITMAP
1D80
2240
0000
0F00
1E40
2980
35C0
7FD0
B0A0
E070
ENDCHAR
STARTCHAR Adieresis
ENCODING 196
SWIDTH 689 0
DWIDTH 6 0
BBX 6 9 0 0
BITMAP
1940
0000
0F00
1E40
2980
35C0
7FD0
B0A0
E070
ENDCHAR
STARTCHAR Aring
ENCODING 197
SWIDTH 689 0
DWIDTH 6 0
BBX 6 10 0 0
BITMAP
0100
0A00
0A00
0F00
1E40
2980
35C0
7FD0
B0A0
E070
ENDCHAR
STARTCHAR AE
ENCODING 198
SWIDTH 952 0
DWIDTH 9 0
BBX 8 7 0 0
BITMAP
07FF
0AA0
0CA0
28BF
3FE0
70A0
A0BF
ENDCHAR
STARTCHAR Ccedilla
ENCODING 199
SWIDTH 637 0
DWIDTH 6 0
BBX 6 9 0 -2
BITMAP
1BD0
3940
7000
7000
7000
3940
1BC0
0600
0B00
ENDCHAR
STARTCHAR Egrave
ENCODING 200
SWIDTH 560 0
DWIDTH 5 0
BBX 5 10 0 0
BITMAP
2C00
0900
0000
7F80
7400
7400
7F40
7400
7400
7F80
ENDCHAR
STARTCHAR Eacute
ENCODING 201
SWIDTH 560 0
DWIDTH 5 0
BBX 5 10 0 0
BITMAP
0700
0D00
0000
7F80
7400
7400
7F40
7400
7400
7F80
ENDCHAR
STARTCHAR Ecircumflex
ENCODING 202
SWIDTH 560 0
DWIDTH 5 0
BBX 5 10 0 0
BITMAP
1E00
3240
0000
7F80
7400
7400
7F40
7400
7400
7F80
ENDCHAR
STARTCHAR Edieresis
ENCODING 203
SWIDTH 560 0
DWIDTH 5 0
BBX 5 9 0 0
BITMAP
2700
0000
7F80
7400
7400
7F40
7400
7400
7F80
ENDCHAR
STARTCHAR Igrave
ENCODING 204
SWIDTH 331 0
DWIDTH 3 0
BBX 3 10 0 0
BITMAP
E0
70
00
74
74
74
74
74
74
74
ENDCHAR
STARTCHAR Iacute
ENCODING 205
SWIDTH 331 0
DWIDTH 3 0
BBX 3 10 0 0
BITMAP
1C
30
00
74
74
74
74
74
74
74
ENDCHAR
STARTCHAR Icircumflex
ENCODING 206
SWIDTH 331 0
DWIDTH 3 0
BBX 5 10 -1 0
BITMAP
2E00
6240
0000
1D00
1D00
1D00
1D00
1D00
1D00
1D00
ENDCHAR
STARTCHAR Idieresis
ENCODING 207
SWIDTH 331 0
DWIDTH 3 0
BBX 3 9 0 0
BITMAP
DC
00
74
74
74
74
74
74
74
ENDCHAR
STARTCHAR Eth
ENCODING 208
SWIDTH 740 0
DWIDTH 7 0
BBX 6 7 0 0
BITMAP
7F80
75E0
7470
BD70
7470
75E0
7F80
ENDCHAR
STARTCHAR Ntilde
ENCODING 209
SWIDTH 812 0
DWIDTH 7 0
BBX 7 10 0 0
BITMAP
0A50
09C0
0000
7828
7D28
7B28
7368
72E8
70F8
7078
ENDCHAR
STARTCHAR Ograve
ENCODING 210
SWIDTH 795 0
DWIDTH 7 0
BBX 7 10 0 0
BITMAP
0A00
0240
0000
1BD0
39B4
7038
7028
7038
39B4
1BD0
ENDCHAR
STARTCHAR Oacute
ENCODING 211
SWIDTH 795 0
DWIDTH 7 0
BBX 7 10 0 0
BITMAP
01D0
0340
0000
1BD0
39B4
7038
7028
7038
39B4
1BD0
ENDCHAR
STARTCHAR Ocircumflex
ENCODING 212
SWIDTH 795 0
DWIDTH 7 0
BBX 7 10 0 0
BITMAP
0780
0C90
0000
1BD0
39B4
7038
7028
7038
39B4
1BD0
ENDCHAR
STARTCHAR Otilde
ENCODING 213
SWIDTH 795 0
DWIDTH 7 0
BBX 7 10 0 0
BITMAP
0A50
09C0
0000
1BD0
39B4
7038
7028
7038
39B4
1BD0
ENDCHAR
STARTCHAR Odieresis
ENCODING 214
SWIDTH 795 0
DWIDTH 7 0
BBX 7 9 0 0
BITMAP
09C0
0000
1BD0
39B4
7038
7028
7038
39B4
1BD0
ENDCHAR
STARTCHAR multiply
ENCODING 215
SWIDTH 570 0
DWIDTH 5 0
BBX 4 5 1 1
BITMAP
44
DD
74
DD
44
ENDCHAR
STARTCHAR Oslash
ENCODING 216
SWIDTH 795 0
DWIDTH 7 0
BBX 7 7 0 0
BITMAP
1BF0
39F4
71B8
7328
7A38
3DB4
2FD0
ENDCHAR
STARTCHAR Ugrave
ENCODING 217
SWIDTH 755 0
DWIDTH 7 0
BBX 6 10 0 0
BITMAP
0D00
0700
0000
7070
7070
7070
7070
7070
39A0
1F90
ENDCHAR
STARTCHAR Uacute
ENCODING 218
SWIDTH 755 0
DWIDTH 7 0
BBX 6 10 0 0
BITMAP
0280
0700
0000
7070
7070
7070
7070
7070
39A0
1F90
ENDCHAR
STARTCHAR Ucircumflex
ENCODING 219
SWIDTH 755 0
DWIDTH 7 0
BBX 6 10 0 0
BITMAP
0B40
18C0
0000
7070
7070
7070
7070
7070
39A0
1F90
ENDCHAR
STARTCHAR Udieresis
ENCODING 220
SWIDTH 755 0
DWIDTH 7 0
BBX 6 9 0 0
BITMAP
0D80
0000
7070
7070
7070
7070
7070
39A0
1F90
ENDCHAR
STARTCHAR Yacute
ENCODING 221
SWIDTH 624 0
DWIDTH 6 0
BBX 6 10 0 0
BITMAP
0740
0900
0000
A0D0
76C0
2B40
1E00
0D00
0D00
0D00
ENDCHAR
STARTCHAR Thorn
ENCODING 222
SWIDTH 627 0
DWIDTH 6 0
BBX 6 7 0 0
BITMAP
7400
7F40
75C0
74D0
75C0
7F40
7400
ENDCHAR
STARTCHAR germandbls
ENCODING 223
SWIDTH 710 0
DWIDTH 6 0
BBX 6 7 0 0
BITMAP
2F80
74D0
72C0
7380
71E0
7070
77E0
ENDCHAR
STARTCHAR agrave
ENCODING 224
SWIDTH 604 0
DWIDTH 5 0
BBX 5 8 0 0
BITMAP
2800
0900
0000
2F40
1280
6B80
B280
7E80
ENDCHAR
STARTCHAR aacute
ENCODING 225
SWIDTH 604 0
DWIDTH 5 0
BBX 5 8 0 0
BITMAP
0740
0900
0000
2F40
1280
6B80
B280
7E80
ENDCHAR
STARTCHAR acircumflex
ENCODING 226
SWIDTH 604 0
DWIDTH 5 0
BBX 5 8 0 0
BITMAP
1E00
3240
0000
2F40
1280
6B80
B280
7E80
ENDCHAR
STARTCHAR atilde
ENCODING 227
SWIDTH 604 0
DWIDTH 5 0
BBX 5 8 0 0
BITMAP
2980
2740
0000
2F40
1280
6B80
B280
7E80
ENDCHAR
STARTCHAR adieresis
ENCODING 228
SWIDTH 604 0
DWIDTH 5 0
BBX 5 7 0 0
BITMAP
2600
0000
2F40
1280
6B80
B280
7E80
ENDCHAR
STARTCHAR aring
ENCODING 229
SWIDTH 604 0
DWIDTH 5 0
BBX 5 9 0 0
BITMAP
0A00
1600
0A00
0000
2F40
1280
6B80
B280
7E80
ENDCHAR
STARTCHAR ae
ENCODING 230
SWIDTH 916 0
DWIDTH 8 0
BBX 8 5 0 0
BITMAP
2EBD
12CA
6BFE
B2C0
7DBD
ENDCHAR
STARTCHAR ccedilla
ENCODING 231
SWIDTH 514 0
DWIDTH 5 0
BBX 4 7 0 -2
BITMAP
2F
75
A0
75
2F
08
1D
ENDCHAR
STARTCHAR egrave
ENCODING 232
SWIDTH 590 0
DWIDTH 5 0
BBX 5 8 0 0
BITMAP
2C00
0900
0000
2F40
7180
BF80
7000
2F80
ENDCHAR
STARTCHAR eacute
ENCODING 233
SWIDTH 590 0
DWIDTH 5 0
BBX 5 8 0 0
BITMAP
0740
0900
0000
2F40
7180
BF80
7000
2F80
ENDCHAR
STARTCHAR ecircumflex
ENCODING 234
SWIDTH 590 0
DWIDTH 5 0
BBX 5 8 0 0
BITMAP
1E00
3640
0000
2F40
7180
BF80
7000
2F80
ENDCHAR
STARTCHAR edieresis
ENCODING 235
SWIDTH 590 0
DWIDTH 5 0
BBX 5 7 0 0
BITMAP
2640
0000
2F40
7180
BF80
7000
2F80
ENDCHAR
STARTCHAR igrave
ENCODING 236
SWIDTH 305 0
DWIDTH 3 0
BBX 3 8 -1 0
BITMAP
74
1C
00
1C
1C
1C
1C
1C
ENDCHAR
STARTCHAR iacute
ENCODING 237
SWIDTH 305 0
DWIDTH 3 0
BBX 3 8 0 0
BITMAP
28
70
00
70
70
70
70
70
ENDCHAR
STARTCHAR icircumflex
ENCODING 238
SWIDTH 305 0
DWIDTH 3 0
BBX 4 8 -1 0
BITMAP
2D
63
00
1C
1C
1C
1C
1C
ENDCHAR
STARTCHAR idieresis
ENCODING 239
SWIDTH 305 0
DWIDTH 3 0
BBX 3 7 0 0
BITMAP
D8
00
70
70
70
70
70
ENDCHAR
STARTCHAR eth
ENCODING 240
SWIDTH 619 0
DWIDTH 6 0
BBX 5 7 0 0
BITMAP
1940
1F00
0680
2FC0
B1C0
71C0
2F40
ENDCHAR
STARTCHAR ntilde
ENCODING 241
SWIDTH 657 0
DWIDTH 6 0
BBX 6 8 0 0
BITMAP
1880
2340
0000
7B80
75D0
70D0
70D0
70D0
ENDCHAR
STARTCHAR ograve
ENCODING 242
SWIDTH 619 0
DWIDTH 6 0
BBX 5 8 0 0
BITMAP
2800
0900
0000
2F40
76C0
A1C0
76C0
2F40
ENDCHAR
STARTCHAR oacute
ENCODING 243
SWIDTH 619 0
DWIDTH 6 0
BBX 5 8 0 0
BITMAP
0740
0900
0000
2F40
76C0
A1C0
76C0
2F40
ENDCHAR
STARTCHAR ocircumflex
ENCODING 244
SWIDTH 619 0
DWIDTH 6 0
BBX 5 8 0 0
BITMAP
1E00
3640
0000
2F40
76C0
A1C0
76C0
2F40
ENDCHAR
STARTCHAR otilde
ENCODING 245
SWIDTH 619 0
DWIDTH 6 0
BBX 5 8 0 0
BITMAP
2980
2740
0000
2F40
76C0
A1C0
76C0
2F40
ENDCHAR
STARTCHAR odieresis
ENCODING 246
SWIDTH 619 0
DWIDTH 6 0
BBX 5 7 0 0
BITMAP
2600
0000
2F40
76C0
A1C0
76C0
2F40
ENDCHAR
STARTCHAR divide
ENCODING 247
SWIDTH 570 0
DWIDTH 5 0
BBX 5 5 0 1
BITMAP
0C00
0400
BF80
0C00
0400
ENDCHAR
STARTCHAR oslash
ENCODING 248
SWIDTH 619 0
DWIDTH 6 0
BBX 5 5 0 0
BITMAP
2F80
77C0
AAC0
7AC0
3F40
ENDCHAR
STARTCHAR ugrave
ENCODING 249
SWIDTH 657 0
DWIDTH 6 0
BBX 6 8 0 0
BITMAP
2C00
0900
0000
70D0
70D0
70D0
75D0
2ED0
ENDCHAR
STARTCHAR uacute
ENCODING 250
SWIDTH 657 0
DWIDTH 6 0
BBX 6 8 0 0
BITMAP
0340
0A00
0000
70D0
70D0
70D0
75D0
2ED0
ENDCHAR
STARTCHAR ucircumflex
ENCODING 251
SWIDTH 657 0
DWIDTH 6 0
BBX 6 8 0 0
BITMAP
0F00
2580
0000
70D0
70D0
70D0
75D0
2ED0
ENDCHAR
STARTCHAR udieresis
ENCODING 252
SWIDTH 657 0
DWIDTH 6 0
BBX 6 7 0 0
BITMAP
1A40
0000
70D0
70D0
70D0
75D0
2ED0
ENDCHAR
STARTCHAR yacute
ENCODING 253
SWIDTH 568 0
DWIDTH 5 0
BBX 5 10 0 -2
BITMAP
0B00
0C00
0000
A1C0
7280
3740
2E00
1D00
1C00
B400
ENDCHAR
STARTCHAR thorn
ENCODING 254
SWIDTH 632 0
DWIDTH 6 0
BBX 6 9 0 -2
BITMAP
7000
7000
7B80
75C0
70D0
75C0
7B80
7000
7000
ENDCHAR
STARTCHAR ydieresis
ENCODING 255
SWIDTH 568 0
DWIDTH 5 0
BBX 5 9 0 -2
BITMAP
2700
0000
A1C0
7280
3740
2E00
1D00
1C00
B400
ENDCHAR
STARTCHAR Amacron
ENCODING 256
SWIDTH 689 0
DWIDTH 6 0
BBX 6 9 0 0
BITMAP
1F80
0000
0F00
1E40
2980
35C0
7FD0
B0A0
E070
ENDCHAR
STARTCHAR amacron
ENCODING 257
SWIDTH 604 0
DWIDTH 5 0
BBX 5 7 0 0
BITMAP
2F40
0000
2F40
1280
6B80
B280
7E80
ENDCHAR
STARTCHAR Abreve
ENCODING 258
SWIDTH 689 0
DWIDTH 6 0
BBX 6 10 0 0
BITMAP
2480
0F40
0000
0F00
1E40
2980
35C0
7FD0
B0A0
E070
ENDCHAR
STARTCHAR abreve
ENCODING 259
SWIDTH 604 0
DWIDTH 5 0
BBX 5 8 0 0
BITMAP
2140
1E00
0000
2F40
1280
6B80
B280
7E80
ENDCHAR
STARTCHAR Aogonek
ENCODING 260
SWIDTH 689 0
DWIDTH 6 0
BBX 6 9 0 -2
BITMAP
0F00
1E40
2980
35C0
7FD0
B0A0
E070
0080
00A0
ENDCHAR
STARTCHAR aogonek
ENCODING 261
SWIDTH 604 0
DWIDTH 5 0
BBX 5 7 0 -2
BITMAP
2F40
1280
6B80
B280
7E80
0240
0280
ENDCHAR
STARTCHAR Cacute
ENCODING 262
SWIDTH 637 0
DWIDTH 6 0
BBX 6 10 0 0
BITMAP
0280
0700
0000
1BD0
3940
7000
7000
7000
3940
1BC0
ENDCHAR
STARTCHAR cacute
ENCODING 263
SWIDTH 514 0
DWIDTH 5 0
BBX 5 8 0 0
BITMAP
0740
0900
0000
2F00
7500
A000
7500
2F00
ENDCHAR
STARTCHAR Ccircumflex
ENCODING 264
SWIDTH 637 0
DWIDTH 6 0
BBX 6 10 0 0
BITMAP
0B80
18D0
0000
1BD0
3940
7000
7000
7000
3940
1BC0
ENDCHAR
STARTCHAR ccircumflex
ENCODING 265
SWIDTH 514 0
DWIDTH 5 0
BBX 5 8 0 0
BITMAP
1E00
3240
0000
2F00
7500
A000
7500
2F00
ENDCHAR
STARTCHAR Cdot
ENCODING 266
SWIDTH 637 0
DWIDTH 6 0
BBX 6 10 0 0
BITMAP
0100
0700
0000
1BD0
3940
7000
7000
7000
3940
1BC0
ENDCHAR
STARTCHAR cdot
ENCODING 267
SWIDTH 514 0
DWIDTH 5 0
BBX 4 8 0 0
BITMAP
04
09
00
2F
75
A0
75
2F
ENDCHAR
STARTCHAR Ccaron
ENCODING 268
SWIDTH 637 0
DWIDTH 6 0
BBX 6 10 0 0
BITMAP
18D0
0B80
0000
1BD0
3940
7000
7000
7000
3940
1BC0
ENDCHAR
STARTCHAR ccaron
ENCODING 269
SWIDTH 514 0
DWIDTH 5 0
BBX 5 8 0 0
BITMAP
3640
1E00
0000
2F00
7500
A000
7500
2F00
ENDCHAR
STARTCHAR Dcaron
ENCODING 270
SWIDTH 740 0
DWIDTH 7 0
BBX 6 10 0 0
BITMAP
2980
0F40
0000
7F80
75E0
7470
7470
7470
75E0
7F80
ENDCHAR
STARTCHAR dcaron
ENCODING 271
SWIDTH 632 0
DWIDTH 6 0
BBX 7 7 0 0
BITMAP
01D8
01D0
2EC0
76C0
A1C0
72C0
2EC0
ENDCHAR
STARTCHAR Dcroat
ENCODING 272
SWIDTH 740 0
DWIDTH 7 0
BBX 6 7 0 0
BITMAP
7F80
75E0
7470
BD70
7470
75E0
7F80
ENDCHAR
STARTCHAR dcroat
ENCODING 273
SWIDTH 648 0
DWIDTH 6 0
BBX 6 7 0 0
BITMAP
01C0
0BE0
2EC0
76C0
B1C0
76C0
2EC0
ENDCHAR
STARTCHAR Emacron
ENCODING 274
SWIDTH 560 0
DWIDTH 5 0
BBX 5 9 0 0
BITMAP
2F00
0000
7F80
7400
7400
7F40
7400
7400
7F80
ENDCHAR
STARTCHAR emacron
ENCODING 275
SWIDTH 590 0
DWIDTH 5 0
BBX 5 7 0 0
BITMAP
2F40
0000
2F40
7180
BF80
7000
2F80
ENDCHAR
STARTCHAR Ebreve
ENCODING 276
SWIDTH 560 0
DWIDTH 5 0
BBX 5 10 0 0
BITMAP
2240
1E00
0000
7F80
7400
7400
7F40
7400
7400
7F80
ENDCHAR
STARTCHAR ebreve
ENCODING 277
SWIDTH 590 0
DWIDTH 5 0
BBX 5 8 0 0
BITMAP
2140
1E00
0000
2F40
7180
BF80
7000
2F80
ENDCHAR
STARTCHAR Edotaccent
ENCODING 278
SWIDTH 560 0
DWIDTH 5 0
BBX 5 10 0 0
BITMAP
0400
0D00
0000
7F80
7400
7400
7F40
7400
7400
7F80
ENDCHAR
STARTCHAR edotaccent
ENCODING 279
SWIDTH 590 0
DWIDTH 5 0
BBX 5 8 0 0
BITMAP
0400
0900
0000
2F40
7180
BF80
7000
2F80
ENDCHAR
STARTCHAR Eogonek
ENCODING 280
SWIDTH 560 0
DWIDTH 5 0
BBX 5 9 0 -2
BITMAP
7F80
7400
7400
7F40
7400
7400
7F80
0600
0740
ENDCHAR
STARTCHAR eogonek
ENCODING 281
SWIDTH 590 0
DWIDTH 5 0
BBX 5 7 0 -2
BITMAP
2F40
7180
BF80
7000
2F80
0600
0740
ENDCHAR
STARTCHAR Ecaron
ENCODING 282
SWIDTH 560 0
DWIDTH 5 0
BBX 5 10 0 0
BITMAP
3240
1E00
0000
7F80
7400
7400
7F40
7400
7400
7F80
ENDCHAR
STARTCHAR ecaron
ENCODING 283
SWIDTH 590 0
DWIDTH 5 0
BBX 5 8 0 0
BITMAP
3640
1E00
0000
2F40
7180
BF80
7000
2F80
ENDCHAR
STARTCHAR Gcircumflex
ENCODING 284
SWIDTH 724 0
DWIDTH 7 0
BBX 6 10 0 0
BITMAP
0B80
1C90
0000
0BD0
3950
7000
72E0
70A0
39A0
1BE0
ENDCHAR
STARTCHAR gcircumflex
ENCODING 285
SWIDTH 564 0
DWIDTH 5 0
BBX 5 10 0 -2
BITMAP
1E00
3240
0000
7F80
A340
7E00
6000
7F80
D1C0
BE40
ENDCHAR
STARTCHAR Gbreve
ENCODING 286
SWIDTH 724 0
DWIDTH 7 0
BBX 6 10 0 0
BITMAP
0890
0B80
0000
0BD0
3950
7000
72E0
70A0
39A0
1BE0
ENDCHAR
STARTCHAR gbreve
ENCODING 287
SWIDTH 564 0
DWIDTH 5 0
BBX 5 10 0 -2
BITMAP
2240
2E00
0000
7F80
A340
7E00
6000
7F80
D1C0
BE40
ENDCHAR
STARTCHAR Gdot
ENCODING 288
SWIDTH 724 0
DWIDTH 7 0
BBX 6 10 0 0
BITMAP
0100
0340
0000
0BD0
3950
7000
72E0
70A0
39A0
1BE0
ENDCHAR
STARTCHAR gdot
ENCODING 289
SWIDTH 564 0
DWIDTH 5 0
BBX 5 10 0 -2
BITMAP
0400
0C00
0000
7F80
A340
7E00
6000
7F80
D1C0
BE40
ENDCHAR
STARTCHAR Gcommaaccent
ENCODING 290
SWIDTH 724 0
DWIDTH 7 0
BBX 6 9 0 -2
BITMAP
0BD0
3950
7000
72E0
70A0
39A0
1BE0
0000
0300
ENDCHAR
STARTCHAR gcommaaccent
ENCODING 291
SWIDTH 564 0
DWIDTH 5 0
BBX 5 10 0 -2
BITMAP
0900
0C00
0000
7F80
A340
7E00
6000
7F80
D1C0
BE40
ENDCHAR
STARTCHAR Hcircumflex
ENCODING 292
SWIDTH 765 0
DWIDTH 7 0
BBX 6 10 0 0
BITMAP
0B40
18C0
0000
7470
7470
7470
7FF0
7470
7470
7470
ENDCHAR
STARTCHAR hcircumflex
ENCODING 293
SWIDTH 657 0
DWIDTH 6 0
BBX 6 10 0 0
BITMAP
0F00
2580
0000
7000
7000
7B80
75D0
70D0
70D0
70D0
ENDCHAR
STARTCHAR Hbar
ENCODING 294
SWIDTH 765 0
DWIDTH 7 0
BBX 7 7 0 0
BITMAP
7470
FFF8
7470
7FF0
7470
7470
7470
ENDCHAR
STARTCHAR hbar
ENCODING 295
SWIDTH 657 0
DWIDTH 6 0
BBX 6 7 0 0
BITMAP
7000
FD00
7B80
75D0
70D0
70D0
70D0
ENDCHAR
STARTCHAR Itilde
ENCODING 296
SWIDTH 331 0
DWIDTH 3 0
BBX 5 10 -1 0
BITMAP
2540
5A00
0000
1D00
1D00
1D00
1D00
1D00
1D00
1D00
ENDCHAR
STARTCHAR itilde
ENCODING 297
SWIDTH 305 0
DWIDTH 3 0
BBX 4 8 -1 0
BITMAP
36
5A
00
1C
1C
1C
1C
1C
ENDCHAR
STARTCHAR Imacron
ENCODING 298
SWIDTH 331 0
DWIDTH 3 0
BBX 3 9 0 0
BITMAP
FC
00
74
74
74
74
74
74
74
ENDCHAR
STARTCHAR imacron
ENCODING 299
SWIDTH 305 0
DWIDTH 3 0
BBX 3 7 0 0
BITMAP
F8
00
70
70
70
70
70
ENDCHAR
STARTCHAR Ibreve
ENCODING 300
SWIDTH 331 0
DWIDTH 3 0
BBX 3 10 0 0
BITMAP
88
B8
00
74
74
74
74
74
74
74
ENDCHAR
STARTCHAR ibreve
ENCODING 301
SWIDTH 305 0
DWIDTH 3 0
BBX 4 8 -1 0
BITMAP
62
2D
00
1C
1C
1C
1C
1C
ENDCHAR
STARTCHAR Iogonek
ENCODING 302
SWIDTH 331 0
DWIDTH 3 0
BBX 3 9 0 -2
BITMAP
74
74
74
74
74
74
74
60
74
ENDCHAR
STARTCHAR iogonek
ENCODING 303
SWIDTH 305 0
DWIDTH 3 0
BBX 2 9 0 -2
BITMAP
70
10
70
70
70
70
70
90
A0
ENDCHAR
STARTCHAR Idotaccent
ENCODING 304
SWIDTH 331 0
DWIDTH 3 0
BBX 3 10 0 0
BITMAP
10
30
00
74
74
74
74
74
74
74
ENDCHAR
STARTCHAR dotlessi
ENCODING 305
SWIDTH 305 0
DWIDTH 3 0
BBX 2 5 0 0
BITMAP
70
70
70
70
70
ENDCHAR
STARTCHAR IJ
ENCODING 306
SWIDTH 720 0
DWIDTH 6 0
BBX 6 8 0 -1
BITMAP
74A0
74A0
74A0
74A0
74A0
74A0
75E0
0380
ENDCHAR
STARTCHAR ij
ENCODING 307
SWIDTH 590 0
DWIDTH 5 0
BBX 5 9 0 -2
BITMAP
7280
1000
7280
7280
7280
7280
7280
0380
0F40
ENDCHAR
STARTCHAR Jcircumflex
ENCODING 308
SWIDTH 331 0
DWIDTH 3 0
BBX 5 11 -1 -1
BITMAP
2E00
6240
0000
1D00
1D00
1D00
1D00
1D00
1D00
1C00
B400
ENDCHAR
STARTCHAR jcircumflex
ENCODING 309
SWIDTH 305 0
DWIDTH 3 0
BBX 4 10 -1 -2
BITMAP
2D
63
00
1C
1C
1C
1C
1C
1C
B8
ENDCHAR
STARTCHAR Kcommaaccent
ENCODING 310
SWIDTH 664 0
DWIDTH 6 0
BBX 6 9 0 -2
BITMAP
74E0
7680
7B40
7F00
7780
75C0
74A0
0000
0900
ENDCHAR
STARTCHAR kcommaaccent
ENCODING 311
SWIDTH 620 0
DWIDTH 6 0
BBX 6 9 0 -2
BITMAP
7000
7000
72C0
7740
7E00
7740
71D0
0000
0900
ENDCHAR
STARTCHAR kgreenlandic
ENCODING 312
SWIDTH 620 0
DWIDTH 6 0
BBX 6 5 0 0
BITMAP
71C0
7740
7E00
7740
71D0
ENDCHAR
STARTCHAR Lacute
ENCODING 313
SWIDTH 564 0
DWIDTH 5 0
BBX 5 10 0 0
BITMAP
0D00
2800
0000
7400
7400
7400
7400
7400
7400
7F80
ENDCHAR
STARTCHAR lacute
ENCODING 314
SWIDTH 305 0
DWIDTH 3 0
BBX 3 10 0 0
BITMAP
1C
34
00
70
70
70
70
70
70
70
ENDCHAR
STARTCHAR Lcommaaccent
ENCODING 315
SWIDTH 564 0
DWIDTH 5 0
BBX 5 9 0 -2
BITMAP
7400
7400
7400
7400
7400
7400
7F80
0000
0C00
ENDCHAR
STARTCHAR lcommaaccent
ENCODING 316
SWIDTH 305 0
DWIDTH 3 0
BBX 2 9 0 -2
BITMAP
70
70
70
70
70
70
70
00
60
ENDCHAR
STARTCHAR Lcaron
ENCODING 317
SWIDTH 564 0
DWIDTH 5 0
BBX 5 7 0 0
BITMAP
7640
7500
7400
7400
7400
7400
7F80
ENDCHAR
STARTCHAR lcaron
ENCODING 318
SWIDTH 305 0
DWIDTH 3 0
BBX 4 7 0 0
BITMAP
76
74
70
70
70
70
70
ENDCHAR
STARTCHAR Ldot
ENCODING 319
SWIDTH 564 0
DWIDTH 5 0
BBX 5 7 0 0
BITMAP
7400
7400
7500
7640
7400
7400
7F80
ENDCHAR
STARTCHAR ldot
ENCODING 320
SWIDTH 428 0
DWIDTH 4 0
BBX 4 7 0 0
BITMAP
70
70
71
77
70
70
70
ENDCHAR
STARTCHAR Lslash
ENCODING 321
SWIDTH 564 0
DWIDTH 5 0
BBX 5 7 0 0
BITMAP
7400
7400
7800
7800
B400
7400
7F80
ENDCHAR
STARTCHAR lslash
ENCODING 322
SWIDTH 330 0
DWIDTH 3 0
BBX 3 7 0 0
BITMAP
70
70
70
78
B4
70
70
ENDCHAR
STARTCHAR Nacute
ENCODING 323
SWIDTH 812 0
DWIDTH 7 0
BBX 7 10 0 0
BITMAP
01C0
0340
0000
7828
7D28
7B28
7368
72E8
70F8
7078
ENDCHAR
STARTCHAR nacute
ENCODING 324
SWIDTH 657 0
DWIDTH 6 0
BBX 6 8 0 0
BITMAP
0340
0A00
0000
7B80
75D0
70D0
70D0
70D0
ENDCHAR
STARTCHAR Ncommaaccent
ENCODING 325
SWIDTH 812 0
DWIDTH 7 0
BBX 7 9 0 -2
BITMAP
7828
7D28
7B28
7368
72E8
70F8
7078
0000
0600
ENDCHAR
STARTCHAR ncommaaccent
ENCODING 326
SWIDTH 657 0
DWIDTH 6 0
BBX 6 7 0 -2
BITMAP
7B80
75D0
70D0
70D0
70D0
0000
0900
ENDCHAR
STARTCHAR Ncaron
ENCODING 327
SWIDTH 812 0
DWIDTH 7 0
BBX 7 10 0 0
BITMAP
0D90
0780
0000
7828
7D28
7B28
7368
72E8
70F8
7078
ENDCHAR
STARTCHAR ncaron
ENCODING 328
SWIDTH 657 0
DWIDTH 6 0
BBX 6 8 0 0
BITMAP
2580
0F00
0000
7B80
75D0
70D0
70D0
70D0
ENDCHAR
STARTCHAR napostrophe
ENCODING 329
SWIDTH 778 0
DWIDTH 7 0
BBX 7 7 0 0
BITMAP
A000
D000
1EE0
1D74
1C34
1C34
1C34
ENDCHAR
STARTCHAR Eng
ENCODING 330
SWIDTH 812 0
DWIDTH 7 0
BBX 7 9 0 -2
BITMAP
7828
7E28
7B68
73A8
71F8
70B8
7038
0074
01E0
ENDCHAR
STARTCHAR eng
ENCODING 331
SWIDTH 657 0
DWIDTH 6 0
BBX 6 7 0 -2
BITMAP
7B80
75D0
70D0
70D0
70D0
01D0
0380
ENDCHAR
STARTCHAR Omacron
ENCODING 332
SWIDTH 795 0
DWIDTH 7 0
BBX 7 9 0 0
BITMAP
0BC0
0000
1BD0
39B4
7038
7028
7038
39B4
1BD0
ENDCHAR
STARTCHAR omacron
ENCODING 333
SWIDTH 619 0
DWIDTH 6 0
BBX 5 7 0 0
BITMAP
2F40
0000
2F40
76C0
A1C0
76C0
2F40
ENDCHAR
STARTCHAR Obreve
ENCODING 334
SWIDTH 795 0
DWIDTH 7 0
BBX 7 10 0 0
BITMAP
0890
0B80
0000
1BD0
39B4
7038
7028
7038
39B4
1BD0
ENDCHAR
STARTCHAR obreve
ENCODING 335
SWIDTH 619 0
DWIDTH 6 0
BBX 5 8 0 0
BITMAP
2140
1E00
0000
2F40
76C0
A1C0
76C0
2F40
ENDCHAR
STARTCHAR Ohungarumlaut
ENCODING 336
SWIDTH 795 0
DWIDTH 7 0
BBX 7 10 0 0
BITMAP
07A0
0980
0000
1BD0
39B4
7038
7028
7038
39B4
1BD0
ENDCHAR
STARTCHAR ohungarumlaut
ENCODING 337
SWIDTH 619 0
DWIDTH 6 0
BBX 5 8 0 0
BITMAP
0EC0
2640
0000
2F40
76C0
A1C0
76C0
2F40
ENDCHAR
STARTCHAR OE
ENCODING 338
SWIDTH 973 0
DWIDTH 9 0
BBX 9 7 0 0
BITMAP
1BFF40
39A000
70A000
70BF00
70A000
39A000
1BFF40
ENDCHAR
STARTCHAR oe
ENCODING 339
SWIDTH 978 0
DWIDTH 9 0
BBX 9 5 0 0
BITMAP
2F7E00
76D340
A1FF40
76D000
2F7F00
ENDCHAR
STARTCHAR Racute
ENCODING 340
SWIDTH 660 0
DWIDTH 6 0
BBX 6 10 0 0
BITMAP
0340
0900
0000
7F40
75C0
75C0
7F40
7740
75C0
74A0
ENDCHAR
STARTCHAR racute
ENCODING 341
SWIDTH 454 0
DWIDTH 4 0
BBX 4 8 0 0
BITMAP
0A
18
00
7A
79
70
70
70
ENDCHAR
STARTCHAR Rcommaaccent
ENCODING 342
SWIDTH 660 0
DWIDTH 6 0
BBX 6 9 0 -2
BITMAP
7F40
75C0
75C0
7F40
7740
75C0
74A0
0000
0A00
ENDCHAR
STARTCHAR rcommaaccent
ENCODING 343
SWIDTH 454 0
DWIDTH 4 0
BBX 4 7 0 -2
BITMAP
7A
79
70
70
70
00
60
ENDCHAR
STARTCHAR Rcaron
ENCODING 344
SWIDTH 660 0
DWIDTH 6 0
BBX 6 10 0 0
BITMAP
2580
0F00
0000
7F40
75C0
75C0
7F40
7740
75C0
74A0
ENDCHAR
STARTCHAR rcaron
ENCODING 345
SWIDTH 454 0
DWIDTH 4 0
BBX 4 8 0 0
BITMAP
67
2D
00
7A
79
70
70
70
ENDCHAR
STARTCHAR Sacute
ENCODING 346
SWIDTH 550 0
DWIDTH 5 0
BBX 5 10 0 0
BITMAP
0700
0D00
0000
2F40
7500
7400
2E00
0740
5780
7E00
ENDCHAR
STARTCHAR sacute
ENCODING 347
SWIDTH 497 0
DWIDTH 4 0
BBX 4 8 0 0
BITMAP
0A
18
00
7E
B5
2E
47
7E
ENDCHAR
STARTCHAR Scircumflex
ENCODING 348
SWIDTH 550 0
DWIDTH 5 0
BBX 5 10 0 0
BITMAP
1E00
3240
0000
2F40
7500
7400
2E00
0740
5780
7E00
ENDCHAR
STARTCHAR scircumflex
ENCODING 349
SWIDTH 497 0
DWIDTH 4 0
BBX 4 8 0 0
BITMAP
2D
63
00
7E
B5
2E
47
7E
ENDCHAR
STARTCHAR Scedilla
ENCODING 350
SWIDTH 550 0
DWIDTH 5 0
BBX 5 9 0 -2
BITMAP
2F40
7500
7400
2E00
0740
5780
7E00
0800
1D00
ENDCHAR
STARTCHAR scedilla
ENCODING 351
SWIDTH 497 0
DWIDTH 4 0
BBX 4 7 0 -2
BITMAP
7E
B5
2E
47
7E
18
2C
ENDCHAR
STARTCHAR Scaron
ENCODING 352
SWIDTH 550 0
DWIDTH 5 0
BBX 5 10 0 0
BITMAP
3240
1E00
0000
2F40
7500
7400
2E00
0740
5780
7E00
ENDCHAR
STARTCHAR scaron
ENCODING 353
SWIDTH 497 0
DWIDTH 4 0
BBX 4 8 0 0
BITMAP
63
2D
00
7E
B5
2E
47
7E
ENDCHAR
STARTCHAR Tcedilla
ENCODING 354
SWIDTH 579 0
DWIDTH 5 0
BBX 5 9 0 -2
BITMAP
BFC0
1D00
0D00
0D00
0D00
0D00
0D00
0800
1D00
ENDCHAR
STARTCHAR tcedilla
ENCODING 355
SWIDTH 434 0
DWIDTH 4 0
BBX 4 8 0 -2
BITMAP
34
BE
34
34
34
2E
18
2C
ENDCHAR
STARTCHAR Tcaron
ENCODING 356
SWIDTH 579 0
DWIDTH 5 0
BBX 5 10 0 0
BITMAP
3240
1E00
0000
BFC0
1D00
0D00
0D00
0D00
0D00
0D00
ENDCHAR
STARTCHAR tcaron
ENCODING 357
SWIDTH 434 0
DWIDTH 4 0
BBX 4 7 0 0
BITMAP
03
35
BE
34
34
34
2E
ENDCHAR
STARTCHAR Tbar
ENCODING 358
SWIDTH 579 0
DWIDTH 5 0
BBX 5 7 0 0
BITMAP
BFC0
1D00
0D00
7F40
1D00
0D00
0D00
ENDCHAR
STARTCHAR tbar
ENCODING 359
SWIDTH 434 0
DWIDTH 4 0
BBX 4 6 0 0
BITMAP
34
BE
34
BD
34
2E
ENDCHAR
STARTCHAR Utilde
ENCODING 360
SWIDTH 755 0
DWIDTH 7 0
BBX 6 10 0 0
BITMAP
0D80
1680
0000
7070
7070
7070
7070
7070
39A0
1F90
ENDCHAR
STARTCHAR utilde
ENCODING 361
SWIDTH 657 0
DWIDTH 6 0
BBX 6 8 0 0
BITMAP
1880
2340
0000
70D0
70D0
70D0
75D0
2ED0
ENDCHAR
STARTCHAR Umacron
ENCODING 362
SWIDTH 755 0
DWIDTH 7 0
BBX 6 9 0 0
BITMAP
0F80
0000
7070
7070
7070
7070
7070
39A0
1F90
ENDCHAR
STARTCHAR umacron
ENCODING 363
SWIDTH 657 0
DWIDTH 6 0
BBX 6 7 0 0
BITMAP
2F40
0000
70D0
70D0
70D0
75D0
2ED0
ENDCHAR
STARTCHAR Ubreve
ENCODING 364
SWIDTH 755 0
DWIDTH 7 0
BBX 6 10 0 0
BITMAP
1880
0B40
0000
7070
7070
7070
7070
7070
39A0
1F90
ENDCHAR
STARTCHAR ubreve
ENCODING 365
SWIDTH 657 0
DWIDTH 6 0
BBX 6 8 0 0
BITMAP
2180
1E00
0000
70D0
70D0
70D0
75D0
2ED0
ENDCHAR
STARTCHAR Uring
ENCODING 366
SWIDTH 755 0
DWIDTH 7 0
BBX 6 11 0 0
BITMAP
0640
0940
0640
0000
7070
7070
7070
7070
7070
39A0
1F90
ENDCHAR
STARTCHAR uring
ENCODING 367
SWIDTH 657 0
DWIDTH 6 0
BBX 6 9 0 0
BITMAP
0A00
0A00
0A00
0000
70D0
70D0
70D0
75D0
2ED0
ENDCHAR
STARTCHAR Uhungarumlaut
ENCODING 368
SWIDTH 755 0
DWIDTH 7 0
BBX 6 10 0 0
BITMAP
07A0
0980
0000
7070
7070
7070
7070
7070
39A0
1F90
ENDCHAR
STARTCHAR uhungarumlaut
ENCODING 369
SWIDTH 657 0
DWIDTH 6 0
BBX 6 8 0 0
BITMAP
0ED0
1A40
0000
70D0
70D0
70D0
75D0
2ED0
ENDCHAR
STARTCHAR Uogonek
ENCODING 370
SWIDTH 755 0
DWIDTH 7 0
BBX 6 9 0 -2
BITMAP
7070
7070
7070
7070
7070
39A0
1F90
0200
0740
ENDCHAR
STARTCHAR uogonek
ENCODING 371
SWIDTH 657 0
DWIDTH 6 0
BBX 6 7 0 -2
BITMAP
70D0
70D0
70D0
75D0
2ED0
0180
01C0
ENDCHAR
STARTCHAR Wcircumflex
ENCODING 372
SWIDTH 966 0
DWIDTH 9 0
BBX 9 10 0 0
BITMAP
02D000
063000
000000
D1C280
A2D340
73A300
776700
3A3A00
2E3D00
1D2D00
ENDCHAR
STARTCHAR wcircumflex
ENCODING 373
SWIDTH 855 0
DWIDTH 8 0
BBX 8 8 0 0
BITMAP
07C0
09A0
0000
A38D
66CD
79AC
3DB8
2C74
ENDCHAR
STARTCHAR Ycircumflex
ENCODING 374
SWIDTH 624 0
DWIDTH 6 0
BBX 6 10 0 0
BITMAP
1F00
2680
0000
A0D0
76C0
2B40
1E00
0D00
0D00
0D00
ENDCHAR
STARTCHAR ycircumflex
ENCODING 375
SWIDTH 568 0
DWIDTH 5 0
BBX 5 10 0 -2
BITMAP
1E00
3240
0000
A1C0
7280
3740
2E00
1D00
1C00
B400
ENDCHAR
STARTCHAR Ydieresis
ENCODING 376
SWIDTH 624 0
DWIDTH 6 0
BBX 6 9 0 0
BITMAP
2640
0000
A0D0
76C0
2B40
1E00
0D00
0D00
0D00
ENDCHAR
STARTCHAR Zacute
ENCODING 377
SWIDTH 579 0
DWIDTH 5 0
BBX 5 10 0 0
BITMAP
0700
0D00
0000
BFC0
0780
0B00
1D00
2800
7400
BFC0
ENDCHAR
STARTCHAR zacute
ENCODING 378
SWIDTH 487 0
DWIDTH 4 0
BBX 4 8 0 0
BITMAP
0A
18
00
BF
0A
2C
74
BF
ENDCHAR
STARTCHAR Zdotaccent
ENCODING 379
SWIDTH 579 0
DWIDTH 5 0
BBX 5 10 0 0
BITMAP
0400
0D00
0000
BFC0
0780
0B00
1D00
2800
7400
BFC0
ENDCHAR
STARTCHAR zdotaccent
ENCODING 380
SWIDTH 487 0
DWIDTH 4 0
BBX 4 8 0 0
BITMAP
04
18
00
BF
0A
2C
74
BF
ENDCHAR
STARTCHAR Zcaron
ENCODING 381
SWIDTH 579 0
DWIDTH 5 0
BBX 5 10 0 0
BITMAP
3240
1E00
0000
BFC0
0780
0B00
1D00
2800
7400
BFC0
ENDCHAR
STARTCHAR zcaron
ENCODING 382
SWIDTH 487 0
DWIDTH 4 0
BBX 4 8 0 0
BITMAP
67
2D
00
BF
0A
2C
74
BF
ENDCHAR
STARTCHAR longs
ENCODING 383
SWIDTH 382 0
DWIDTH 3 0
BBX 4 7 0 0
BITMAP
2D
74
70
70
70
70
70
ENDCHAR
STARTCHAR florin
ENCODING 402
SWIDTH 570 0
DWIDTH 5 0
BBX 4 9 1 -2
BITMAP
2E
34
BD
34
34
34
34
74
E0
ENDCHAR
STARTCHAR Ohorn
ENCODING 416
SWIDTH 825 0
DWIDTH 7 0
BBX 8 8 0 0
BITMAP
000A
1BDD
39B8
7038
7028
7038
39B4
1BD0
ENDCHAR
STARTCHAR ohorn
ENCODING 417
SWIDTH 679 0
DWIDTH 6 0
BBX 7 6 0 0
BITMAP
0034
2FB0
76C0
A1C0
76C0
2F40
ENDCHAR
STARTCHAR Uhorn
ENCODING 431
SWIDTH 884 0
DWIDTH 8 0
BBX 8 8 0 0
BITMAP
0007
707A
7078
7070
7070
7070
39A0
1F90
ENDCHAR
STARTCHAR uhorn
ENCODING 432
SWIDTH 759 0
DWIDTH 7 0
BBX 8 6 0 0
BITMAP
001D
70EC
70E0
70D0
75D0
2ED0
ENDCHAR
STARTCHAR uni01F0
ENCODING 496
SWIDTH 305 0
DWIDTH 3 0
BBX 4 10 -1 -2
BITMAP
63
2D
00
1C
1C
1C
1C
1C
1C
B8
ENDCHAR
STARTCHAR Aringacute
ENCODING 506
SWIDTH 689 0
DWIDTH 6 0
BBX 6 9 0 0
BITMAP
0340
0600
0A00
0F00
1E40
25C0
3FD0
70A0
A070
ENDCHAR
STARTCHAR aringacute
ENCODING 507
SWIDTH 604 0
DWIDTH 5 0
BBX 5 9 0 0
BITMAP
0A00
0900
1600
0900
2F40
1280
6B80
B280
7E80
ENDCHAR
STARTCHAR AEacute
ENCODING 508
SWIDTH 952 0
DWIDTH 9 0
BBX 8 10 0 0
BITMAP
0028
0060
0000
07FF
0AA0
0CA0
28BF
3FE0
70A0
A0BF
ENDCHAR
STARTCHAR aeacute
ENCODING 509
SWIDTH 916 0
DWIDTH 8 0
BBX 8 8 0 0
BITMAP
00A0
0180
0000
2EBD
12CA
6BFE
B2C0
7DBD
ENDCHAR
STARTCHAR Oslashacute
ENCODING 510
SWIDTH 795 0
DWIDTH 7 0
BBX 7 10 0 0
BITMAP
01C0
0340
0000
1BF0
39F4
71B8
7328
7A38
3DB4
2FD0
ENDCHAR
STARTCHAR oslashacute
ENCODING 511
SWIDTH 619 0
DWIDTH 6 0
BBX 5 8 0 0
BITMAP
0740
0900
0000
2F80
77C0
AAC0
7AC0
3F40
ENDCHAR
STARTCHAR Scommaaccent
ENCODING 536
SWIDTH 550 0
DWIDTH 5 0
BBX 5 9 0 -2
BITMAP
2F40
7500
7400
2E00
0740
5780
7E00
0000
1800
ENDCHAR
STARTCHAR scommaaccent
ENCODING 537
SWIDTH 497 0
DWIDTH 4 0
BBX 4 7 0 -2
BITMAP
7E
B5
2E
47
7E
00
24
ENDCHAR
STARTCHAR Tcommaaccent
ENCODING 538
SWIDTH 579 0
DWIDTH 5 0
BBX 5 9 0 -2
BITMAP
BFC0
1D00
0D00
0D00
0D00
0D00
0D00
0000
0C00
ENDCHAR
STARTCHAR tcommaaccent
ENCODING 539
SWIDTH 434 0
DWIDTH 4 0
BBX 4 8 0 -2
BITMAP
34
BE
34
34
34
2E
00
24
ENDCHAR
STARTCHAR dotlessj
ENCODING 567
SWIDTH 305 0
DWIDTH 3 0
BBX 3 7 -1 -2
BITMAP
1C
1C
1C
1C
1C
1C
B8
ENDCHAR
STARTCHAR uni02BC
ENCODING 700
SWIDTH 216 0
DWIDTH 2 0
BBX 2 2 0 5
BITMAP
A0
90
ENDCHAR
STARTCHAR circumflex
ENCODING 710
SWIDTH 606 0
DWIDTH 5 0
BBX 4 2 1 5
BITMAP
78
D9
ENDCHAR
STARTCHAR caron
ENCODING 711
SWIDTH 606 0
DWIDTH 5 0
BBX 4 2 1 5
BITMAP
D9
78
ENDCHAR
STARTCHAR macron
ENCODING 713
SWIDTH 606 0
DWIDTH 5 0
BBX 4 1 1 5
BITMAP
BD
ENDCHAR
STARTCHAR breve
ENCODING 728
SWIDTH 606 0
DWIDTH 5 0
BBX 4 2 1 5
BITMAP
85
78
ENDCHAR
STARTCHAR dotaccent
ENCODING 729
SWIDTH 305 0
DWIDTH 3 0
BBX 2 2 0 6
BITMAP
10
70
ENDCHAR
STARTCHAR ring
ENCODING 730
SWIDTH 577 0
DWIDTH 5 0
BBX 3 3 1 5
BITMAP
64
58
64
ENDCHAR
STARTCHAR ogonek
ENCODING 731
SWIDTH 206 0
DWIDTH 2 0
BBX 2 2 0 -2
BITMAP
90
A0
ENDCHAR
STARTCHAR tilde
ENCODING 732
SWIDTH 606 0
DWIDTH 5 0
BBX 4 2 1 5
BITMAP
A5
9C
ENDCHAR
STARTCHAR hungarumlaut
ENCODING 733
SWIDTH 587 0
DWIDTH 5 0
BBX 4 2 1 5
BITMAP
AD
98
ENDCHAR
STARTCHAR uni02F3
ENCODING 755
SWIDTH 333 0
DWIDTH 3 0
BBX 3 2 0 -3
BITMAP
64
64
ENDCHAR
STARTCHAR uni0300
ENCODING 768
SWIDTH 0 0
DWIDTH 0 0
BBX 2 2 -4 5
BITMAP
D0
70
ENDCHAR
STARTCHAR uni0301
ENCODING 769
SWIDTH 0 0
DWIDTH 0 0
BBX 3 2 -4 5
BITMAP
28
60
ENDCHAR
STARTCHAR uni0303
ENCODING 771
SWIDTH 0 0
DWIDTH 0 0
BBX 4 2 -5 5
BITMAP
76
8A
ENDCHAR
STARTCHAR hook
ENCODING 777
SWIDTH 0 0
DWIDTH 0 0
BBX 3 2 -4 5
BITMAP
74
20
ENDCHAR
STARTCHAR uni030F
ENCODING 783
SWIDTH 0 0
DWIDTH 0 0
BBX 4 2 -5 5
BITMAP
AD
66
ENDCHAR
STARTCHAR dotbelow
ENCODING 803
SWIDTH 0 0
DWIDTH 0 0
BBX 2 2 -4 -3
BITMAP
60
10
ENDCHAR
STARTCHAR tonos
ENCODING 900
SWIDTH 577 0
DWIDTH 5 0
BBX 2 2 2 5
BITMAP
A0
80
ENDCHAR
STARTCHAR dieresistonos
ENCODING 901
SWIDTH 577 0
DWIDTH 5 0
BBX 4 2 1 6
BITMAP
24
99
ENDCHAR
STARTCHAR Alphatonos
ENCODING 902
SWIDTH 689 0
DWIDTH 6 0
BBX 6 7 0 0
BITMAP
DF00
9E40
2980
35C0
7FD0
B0A0
E070
ENDCHAR
STARTCHAR anoteleia
ENCODING 903
SWIDTH 285 0
DWIDTH 3 0
BBX 2 2 0 3
BITMAP
10
70
ENDCHAR
STARTCHAR Epsilontonos
ENCODING 904
SWIDTH 629 0
DWIDTH 6 0
BBX 6 7 -1 0
BITMAP
3BF0
6A00
0A00
0BF0
0A00
0A00
0BF0
ENDCHAR
STARTCHAR Etatonos
ENCODING 905
SWIDTH 834 0
DWIDTH 8 0
BBX 8 7 -1 0
BITMAP
3A0A
6A0A
0A0A
0BFE
0A0A
0A0A
0A0A
ENDCHAR
STARTCHAR Iotatonos
ENCODING 906
SWIDTH 512 0
DWIDTH 5 0
BBX 5 7 -1 0
BITMAP
3340
6340
0340
0340
0340
0340
0340
ENDCHAR
STARTCHAR Omicrontonos
ENCODING 908
SWIDTH 835 0
DWIDTH 8 0
BBX 8 7 -1 0
BITMAP
36F8
6B5E
0D0B
0D07
0D0B
0B5E
02F8
ENDCHAR
STARTCHAR Upsilontonos
ENCODING 910
SWIDTH 764 0
DWIDTH 7 0
BBX 8 7 -1 0
BITMAP
770A
535C
01E8
00F0
00A0
00A0
00A0
ENDCHAR
STARTCHAR Omegatonos
ENCODING 911
SWIDTH 786 0
DWIDTH 7 0
BBX 9 7 -1 0
BITMAP
36F800
6B5E00
0D0B00
0D0700
090A00
075D00
1F6F40
ENDCHAR
STARTCHAR iotadieresistonos
ENCODING 912
SWIDTH 407 0
DWIDTH 4 0
BBX 4 8 0 0
BITMAP
24
99
00
70
70
70
74
2D
ENDCHAR
STARTCHAR Alpha
ENCODING 913
SWIDTH 689 0
DWIDTH 6 0
BBX 6 7 0 0
BITMAP
0F00
1E40
2980
35C0
7FD0
B0A0
E070
ENDCHAR
STARTCHAR Beta
ENCODING 914
SWIDTH 671 0
DWIDTH 6 0
BBX 6 7 0 0
BITMAP
7F80
75D0
74D0
7F80
75D0
75D0
7F80
ENDCHAR
STARTCHAR Gamma
ENCODING 915
SWIDTH 561 0
DWIDTH 5 0
BBX 5 7 0 0
BITMAP
7FC0
7400
7400
7400
7400
7400
7400
ENDCHAR
STARTCHAR uni0394
ENCODING 916
SWIDTH 658 0
DWIDTH 6 0
BBX 6 7 0 0
BITMAP
0F00
1F40
2A80
35C0
70C0
A0D0
BFE0
ENDCHAR
STARTCHAR Epsilon
ENCODING 917
SWIDTH 560 0
DWIDTH 5 0
BBX 5 7 0 0
BITMAP
7F80
7400
7400
7F40
7400
7400
7F80
ENDCHAR
STARTCHAR Zeta
ENCODING 918
SWIDTH 579 0
DWIDTH 5 0
BBX 5 7 0 0
BITMAP
BFC0
0780
0B00
1D00
2800
7400
BFC0
ENDCHAR
STARTCHAR Eta
ENCODING 919
SWIDTH 765 0
DWIDTH 7 0
BBX 6 7 0 0
BITMAP
7470
7470
7470
7FF0
7470
7470
7470
ENDCHAR
STARTCHAR Theta
ENCODING 920
SWIDTH 795 0
DWIDTH 7 0
BBX 7 7 0 0
BITMAP
1BD0
39B4
7038
7BA8
7038
39B4
1BD0
ENDCHAR
STARTCHAR Iota
ENCODING 921
SWIDTH 331 0
DWIDTH 3 0
BBX 3 7 0 0
BITMAP
74
74
74
74
74
74
74
ENDCHAR
STARTCHAR Kappa
ENCODING 922
SWIDTH 664 0
DWIDTH 6 0
BBX 6 7 0 0
BITMAP
74E0
7680
7B40
7F00
7780
75C0
74A0
ENDCHAR
STARTCHAR Lambda
ENCODING 923
SWIDTH 649 0
DWIDTH 6 0
BBX 6 7 0 0
BITMAP
0E00
1F00
2A40
3680
71C0
A0D0
E0A0
ENDCHAR
STARTCHAR Mu
ENCODING 924
SWIDTH 942 0
DWIDTH 8 0
BBX 8 7 0 0
BITMAP
781E
7C2E
793A
767A
77AA
73DA
72CA
ENDCHAR
STARTCHAR Nu
ENCODING 925
SWIDTH 812 0
DWIDTH 7 0
BBX 7 7 0 0
BITMAP
7828
7D28
7B28
7368
72E8
70F8
7078
ENDCHAR
STARTCHAR Xi
ENCODING 926
SWIDTH 570 0
DWIDTH 5 0
BBX 5 7 0 0
BITMAP
7F80
0000
0000
3F40
0000
0000
BF80
ENDCHAR
STARTCHAR Omicron
ENCODING 927
SWIDTH 795 0
DWIDTH 7 0
BBX 7 7 0 0
BITMAP
1BD0
39B4
7038
7028
7038
39B4
1BD0
ENDCHAR
STARTCHAR Pi
ENCODING 928
SWIDTH 745 0
DWIDTH 7 0
BBX 6 7 0 0
BITMAP
7FF0
74B0
7470
7470
7470
7470
7470
ENDCHAR
STARTCHAR Rho
ENCODING 929
SWIDTH 627 0
DWIDTH 6 0
BBX 6 7 0 0
BITMAP
7F40
75C0
74D0
76C0
7F40
7400
7400
ENDCHAR
STARTCHAR Sigma
ENCODING 931
SWIDTH 592 0
DWIDTH 5 0
BBX 5 7 0 0
BITMAP
BF80
7400
1D00
0A00
2C00
7400
BFC0
ENDCHAR
STARTCHAR Tau
ENCODING 932
SWIDTH 579 0
DWIDTH 5 0
BBX 5 7 0 0
BITMAP
BFC0
1D00
0D00
0D00
0D00
0D00
0D00
ENDCHAR
STARTCHAR Upsilon
ENCODING 933
SWIDTH 624 0
DWIDTH 6 0
BBX 6 7 0 0
BITMAP
A0D0
76C0
2B40
1E00
0D00
0D00
0D00
ENDCHAR
STARTCHAR Phi
ENCODING 934
SWIDTH 859 0
DWIDTH 8 0
BBX 8 7 0 0
BITMAP
0240
2FF4
769C
A24D
769C
2FF4
0240
ENDCHAR
STARTCHAR Chi
ENCODING 935
SWIDTH 666 0
DWIDTH 6 0
BBX 6 7 0 0
BITMAP
B0E0
35C0
1F40
0F00
2B40
35C0
A0A0
ENDCHAR
STARTCHAR Psi
ENCODING 936
SWIDTH 875 0
DWIDTH 8 0
BBX 8 7 0 0
BITMAP
A28D
A28D
628D
729D
2FF8
0280
0280
ENDCHAR
STARTCHAR uni03A9
ENCODING 937
SWIDTH 786 0
DWIDTH 7 0
BBX 7 7 0 0
BITMAP
1FD0
79B4
7038
7038
7034
28A0
BCF8
ENDCHAR
STARTCHAR Iotadieresis
ENCODING 938
SWIDTH 331 0
DWIDTH 3 0
BBX 3 9 0 0
BITMAP
DC
00
74
74
74
74
74
74
74
ENDCHAR
STARTCHAR Upsilondieresis
ENCODING 939
SWIDTH 624 0
DWIDTH 6 0
BBX 6 9 0 0
BITMAP
2640
0000
A0D0
76C0
2B40
1E00
0D00
0D00
0D00
ENDCHAR
STARTCHAR alphatonos
ENCODING 940
SWIDTH 646 0
DWIDTH 6 0
BBX 6 8 0 0
BITMAP
0600
0900
0000
2ED0
76C0
A1C0
72C0
2EE0
ENDCHAR
STARTCHAR epsilontonos
ENCODING 941
SWIDTH 555 0
DWIDTH 5 0
BBX 5 8 0 0
BITMAP
0600
0900
0000
2F40
7000
3E00
A040
7F80
ENDCHAR
STARTCHAR etatonos
ENCODING 942
SWIDTH 657 0
DWIDTH 6 0
BBX 6 10 0 -2
BITMAP
0300
0600
0000
7B80
75D0
70D0
70D0
70D0
00D0
00D0
ENDCHAR
STARTCHAR iotatonos
ENCODING 943
SWIDTH 407 0
DWIDTH 4 0
BBX 4 8 0 0
BITMAP
24
30
00
70
70
70
74
2D
ENDCHAR
STARTCHAR upsilondieresistonos
ENCODING 944
SWIDTH 645 0
DWIDTH 6 0
BBX 6 8 0 0
BITMAP
0600
2580
0000
71C0
70D0
70D0
75C0
2F40
ENDCHAR
STARTCHAR alpha
ENCODING 945
SWIDTH 646 0
DWIDTH 6 0
BBX 6 5 0 0
BITMAP
2ED0
76C0
A1C0
72C0
2EE0
ENDCHAR
STARTCHAR beta
ENCODING 946
SWIDTH 660 0
DWIDTH 6 0
BBX 6 9 0 -2
BITMAP
2F80
75D0
71C0
7780
70D0
74E0
7F80
7000
7000
ENDCHAR
STARTCHAR gamma
ENCODING 947
SWIDTH 567 0
DWIDTH 5 0
BBX 5 7 0 -2
BITMAP
A1C0
7280
3740
2A00
1D00
1C00
1C00
ENDCHAR
STARTCHAR delta
ENCODING 948
SWIDTH 619 0
DWIDTH 6 0
BBX 5 7 0 0
BITMAP
1F80
3840
1E00
3B80
B1C0
71C0
2F40
ENDCHAR
STARTCHAR epsilon
ENCODING 949
SWIDTH 555 0
DWIDTH 5 0
BBX 5 5 0 0
BITMAP
2F40
7000
3E00
A040
7F80
ENDCHAR
STARTCHAR zeta
ENCODING 950
SWIDTH 498 0
DWIDTH 4 0
BBX 5 9 0 -2
BITMAP
7F40
0A00
2800
7000
A000
7000
2E00
0340
0700
ENDCHAR
STARTCHAR eta
ENCODING 951
SWIDTH 657 0
DWIDTH 6 0
BBX 6 7 0 -2
BITMAP
7B80
75D0
70D0
70D0
70D0
00D0
00D0
ENDCHAR
STARTCHAR theta
ENCODING 952
SWIDTH 618 0
DWIDTH 6 0
BBX 5 7 0 0
BITMAP
2E40
7280
A1C0
BFC0
61C0
7280
2F40
ENDCHAR
STARTCHAR iota
ENCODING 953
SWIDTH 407 0
DWIDTH 4 0
BBX 4 5 0 0
BITMAP
70
70
70
74
2D
ENDCHAR
STARTCHAR kappa
ENCODING 954
SWIDTH 620 0
DWIDTH 6 0
BBX 6 5 0 0
BITMAP
71C0
7740
7E00
7740
71D0
ENDCHAR
STARTCHAR lambda
ENCODING 955
SWIDTH 615 0
DWIDTH 6 0
BBX 6 7 0 0
BITMAP
7800
1C00
0E00
1F00
3B40
7280
A1D0
ENDCHAR
STARTCHAR uni03BC
ENCODING 956
SWIDTH 660 0
DWIDTH 6 0
BBX 6 7 0 -2
BITMAP
70D0
70D0
70D0
75D0
7ED0
7000
7000
ENDCHAR
STARTCHAR nu
ENCODING 957
SWIDTH 595 0
DWIDTH 5 0
BBX 5 5 0 0
BITMAP
A1C0
71C0
3680
2B40
1E00
ENDCHAR
STARTCHAR xi
ENCODING 958
SWIDTH 498 0
DWIDTH 4 0
BBX 5 9 0 -2
BITMAP
7F40
3400
7400
2F00
7000
B000
2E00
0340
0700
ENDCHAR
STARTCHAR omicron
ENCODING 959
SWIDTH 619 0
DWIDTH 6 0
BBX 5 5 0 0
BITMAP
2F40
76C0
A1C0
76C0
2F40
ENDCHAR
STARTCHAR pi
ENCODING 960
SWIDTH 738 0
DWIDTH 7 0
BBX 7 5 0 0
BITMAP
BFF4
34D0
34D0
34D0
34B4
ENDCHAR
STARTCHAR rho
ENCODING 961
SWIDTH 618 0
DWIDTH 6 0
BBX 5 7 0 -2
BITMAP
2F40
75C0
71C0
71C0
7F40
7000
7000
ENDCHAR
STARTCHAR sigma1
ENCODING 962
SWIDTH 498 0
DWIDTH 4 0
BBX 5 7 0 -2
BITMAP
2F40
7500
A000
7400
2F40
0340
0700
ENDCHAR
STARTCHAR sigma
ENCODING 963
SWIDTH 652 0
DWIDTH 6 0
BBX 6 5 0 0
BITMAP
2FE0
7180
A1C0
75C0
2F40
ENDCHAR
STARTCHAR tau
ENCODING 964
SWIDTH 538 0
DWIDTH 5 0
BBX 5 5 0 0
BITMAP
BF80
2800
2800
2C00
1F00
ENDCHAR
STARTCHAR upsilon
ENCODING 965
SWIDTH 645 0
DWIDTH 6 0
BBX 6 5 0 0
BITMAP
71C0
70D0
70D0
75C0
2F40
ENDCHAR
STARTCHAR phi
ENCODING 966
SWIDTH 791 0
DWIDTH 7 0
BBX 7 7 0 -2
BITMAP
22E0
7368
A328
7774
2FE0
0300
0300
ENDCHAR
STARTCHAR chi
ENCODING 967
SWIDTH 591 0
DWIDTH 5 0
BBX 6 7 0 -2
BITMAP
B1C0
2A40
1F00
1E00
2B00
7340
D1D0
ENDCHAR
STARTCHAR psi
ENCODING 968
SWIDTH 836 0
DWIDTH 8 0
BBX 7 9 0 -2
BITMAP
0240
0240
7258
725C
725C
7668
1FE4
0240
0240
ENDCHAR
STARTCHAR omega
ENCODING 969
SWIDTH 862 0
DWIDTH 8 0
BBX 8 5 0 0
BITMAP
701C
600D
628D
739C
2EB8
ENDCHAR
STARTCHAR iotadieresis
ENCODING 970
SWIDTH 407 0
DWIDTH 4 0
BBX 4 7 0 0
BITMAP
9C
00
70
70
70
74
2D
ENDCHAR
STARTCHAR upsilondieresis
ENCODING 971
SWIDTH 645 0
DWIDTH 6 0
BBX 6 7 0 0
BITMAP
1640
0000
71C0
70D0
70D0
75C0
2F40
ENDCHAR
STARTCHAR omicrontonos
ENCODING 972
SWIDTH 619 0
DWIDTH 6 0
BBX 5 8 0 0
BITMAP
0600
0900
0000
2F40
76C0
A1C0
76C0
2F40
ENDCHAR
STARTCHAR upsilontonos
ENCODING 973
SWIDTH 645 0
DWIDTH 6 0
BBX 6 8 0 0
BITMAP
0700
0900
0000
71C0
70D0
70D0
75C0
2F40
ENDCHAR
STARTCHAR omegatonos
ENCODING 974
SWIDTH 862 0
DWIDTH 8 0
BBX 8 8 0 0
BITMAP
01C0
0140
0000
701C
600D
628D
739C
2EB8
ENDCHAR
STARTCHAR uni03D1
ENCODING 977
SWIDTH 731 0
DWIDTH 7 0
BBX 7 7 0 0
BITMAP
1F80
29D0
2DA0
0BF4
B4A0
34E0
2F80
ENDCHAR
STARTCHAR uni03D2
ENCODING 978
SWIDTH 630 0
DWIDTH 6 0
BBX 6 7 0 0
BITMAP
A0E0
7280
2B40
1E00
0E00
0E00
0E00
ENDCHAR
STARTCHAR uni03D6
ENCODING 982
SWIDTH 999 0
DWIDTH 9 0
BBX 9 5 0 0
BITMAP
BFFF80
240600
34C700
29DA00
1F7D00
ENDCHAR
STARTCHAR uni0400
ENCODING 1024
SWIDTH 560 0
DWIDTH 5 0
BBX 5 10 0 0
BITMAP
2800
0D00
0000
7F80
7400
7400
7F40
7400
7400
7F80
ENDCHAR
STARTCHAR afii10023
ENCODING 1025
SWIDTH 560 0
DWIDTH 5 0
BBX 5 9 0 0
BITMAP
2700
0000
7F80
7400
7400
7F40
7400
7400
7F80
ENDCHAR
STARTCHAR afii10051
ENCODING 1026
SWIDTH 805 0
DWIDTH 7 0
BBX 7 7 0 0
BITMAP
BFC0
1D00
1C00
1FF4
1D28
1C68
1CB4
ENDCHAR
STARTCHAR afii10052
ENCODING 1027
SWIDTH 561 0
DWIDTH 5 0
BBX 5 10 0 0
BITMAP
0740
0900
0000
7FC0
7400
7400
7400
7400
7400
7400
ENDCHAR
STARTCHAR afii10053
ENCODING 1028
SWIDTH 676 0
DWIDTH 6 0
BBX 6 7 0 0
BITMAP
1BD0
3950
7000
7F80
7000
3950
1BD0
ENDCHAR
STARTCHAR afii10054
ENCODING 1029
SWIDTH 550 0
DWIDTH 5 0
BBX 5 7 0 0
BITMAP
2F40
7500
7400
2E00
0740
5780
7E00
ENDCHAR
STARTCHAR afii10055
ENCODING 1030
SWIDTH 331 0
DWIDTH 3 0
BBX 3 7 0 0
BITMAP
74
74
74
74
74
74
74
ENDCHAR
STARTCHAR afii10056
ENCODING 1031
SWIDTH 331 0
DWIDTH 3 0
BBX 3 9 0 0
BITMAP
DC
00
74
74
74
74
74
74
74
ENDCHAR
STARTCHAR afii10057
ENCODING 1032
SWIDTH 331 0
DWIDTH 3 0
BBX 4 8 -1 -1
BITMAP
1D
1D
1D
1D
1D
1D
1C
B4
ENDCHAR
STARTCHAR afii10058
ENCODING 1033
SWIDTH 999 0
DWIDTH 9 0
BBX 9 7 0 0
BITMAP
1FE000
1CA000
18A000
28BE00
28A740
74A740
E0BE00
ENDCHAR
STARTCHAR afii10059
ENCODING 1034
SWIDTH 1001 0
DWIDTH 9 0
BBX 9 7 0 0
BITMAP
74A000
74A000
74A000
7FFE00
74A780
74A780
74BE00
ENDCHAR
STARTCHAR afii10060
ENCODING 1035
SWIDTH 805 0
DWIDTH 7 0
BBX 7 7 0 0
BITMAP
BFC0
1D00
1C00
1FF4
1D28
1C28
1C28
ENDCHAR
STARTCHAR afii10061
ENCODING 1036
SWIDTH 671 0
DWIDTH 6 0
BBX 6 10 0 0
BITMAP
0280
0600
0000
74E0
76C0
7740
7E00
7740
75C0
74A0
ENDCHAR
STARTCHAR uni040D
ENCODING 1037
SWIDTH 823 0
DWIDTH 7 0
BBX 7 10 0 0
BITMAP
0A00
0340
0000
7078
70F8
71E8
7368
7A28
7D28
7828
ENDCHAR
STARTCHAR afii10062
ENCODING 1038
SWIDTH 652 0
DWIDTH 6 0
BBX 6 10 0 0
BITMAP
31C0
2A40
0000
A0A0
70D0
35C0
1E40
0F00
1E00
B800
ENDCHAR
STARTCHAR afii10145
ENCODING 1039
SWIDTH 745 0
DWIDTH 7 0
BBX 6 9 0 -2
BITMAP
7470
7470
7470
7470
7470
74B0
7FF0
0700
0700
ENDCHAR
STARTCHAR afii10017
ENCODING 1040
SWIDTH 689 0
DWIDTH 6 0
BBX 6 7 0 0
BITMAP
0F00
1E40
2980
35C0
7FD0
B0A0
E070
ENDCHAR
STARTCHAR afii10018
ENCODING 1041
SWIDTH 638 0
DWIDTH 6 0
BBX 6 7 0 0
BITMAP
7FC0
7400
7400
7F80
75D0
75D0
7F80
ENDCHAR
STARTCHAR afii10019
ENCODING 1042
SWIDTH 671 0
DWIDTH 6 0
BBX 6 7 0 0
BITMAP
7F80
75D0
74D0
7F80
75D0
75D0
7F80
ENDCHAR
STARTCHAR afii10020
ENCODING 1043
SWIDTH 561 0
DWIDTH 5 0
BBX 5 7 0 0
BITMAP
7FC0
7400
7400
7400
7400
7400
7400
ENDCHAR
STARTCHAR afii10021
ENCODING 1044
SWIDTH 764 0
DWIDTH 7 0
BBX 7 9 0 -2
BITMAP
0FF0
1DB0
1CB0
28B0
34B0
74B0
FFF8
D028
D028
ENDCHAR
STARTCHAR afii10022
ENCODING 1045
SWIDTH 560 0
DWIDTH 5 0
BBX 5 7 0 0
BITMAP
7F80
7400
7400
7F40
7400
7400
7F80
ENDCHAR
STARTCHAR afii10024
ENCODING 1046
SWIDTH 942 0
DWIDTH 8 0
BBX 9 7 0 0
BITMAP
A1C700
35CD00
1EE800
0FF400
1DDC00
35CE00
A1C740
ENDCHAR
STARTCHAR afii10025
ENCODING 1047
SWIDTH 647 0
DWIDTH 6 0
BBX 6 7 0 0
BITMAP
6F80
11D0
01C0
2F40
01D0
51D0
7F80
ENDCHAR
STARTCHAR afii10026
ENCODING 1048
SWIDTH 823 0
DWIDTH 7 0
BBX 7 7 0 0
BITMAP
7078
70F8
71E8
7368
7A28
7D28
7828
ENDCHAR
STARTCHAR afii10027
ENCODING 1049
SWIDTH 823 0
DWIDTH 7 0
BBX 7 10 0 0
BITMAP
1C60
0A90
0000
7078
70F8
71E8
7368
7A28
7D28
7828
ENDCHAR
STARTCHAR afii10028
ENCODING 1050
SWIDTH 671 0
DWIDTH 6 0
BBX 6 7 0 0
BITMAP
74E0
76C0
7740
7E00
7740
75C0
74A0
ENDCHAR
STARTCHAR afii10029
ENCODING 1051
SWIDTH 745 0
DWIDTH 7 0
BBX 6 7 0 0
BITMAP
1FF0
1CB0
1870
2870
2870
7470
E070
ENDCHAR
STARTCHAR afii10030
ENCODING 1052
SWIDTH 942 0
DWIDTH 8 0
BBX 8 7 0 0
BITMAP
781E
7C2E
793A
767A
77AA
73DA
72CA
ENDCHAR
STARTCHAR afii10031
ENCODING 1053
SWIDTH 765 0
DWIDTH 7 0
BBX 6 7 0 0
BITMAP
7470
7470
7470
7FF0
7470
7470
7470
ENDCHAR
STARTCHAR afii10032
ENCODING 1054
SWIDTH 795 0
DWIDTH 7 0
BBX 7 7 0 0
BITMAP
1BD0
39B4
7038
7028
7038
39B4
1BD0
ENDCHAR
STARTCHAR afii10033
ENCODING 1055
SWIDTH 745 0
DWIDTH 7 0
BBX 6 7 0 0
BITMAP
7FF0
74B0
7470
7470
7470
7470
7470
ENDCHAR
STARTCHAR afii10034
ENCODING 1056
SWIDTH 627 0
DWIDTH 6 0
BBX 6 7 0 0
BITMAP
7F40
75C0
74D0
76C0
7F40
7400
7400
ENDCHAR
STARTCHAR afii10035
ENCODING 1057
SWIDTH 637 0
DWIDTH 6 0
BBX 6 7 0 0
BITMAP
1BD0
3940
7000
7000
7000
3940
1BC0
ENDCHAR
STARTCHAR afii10036
ENCODING 1058
SWIDTH 579 0
DWIDTH 5 0
BBX 5 7 0 0
BITMAP
BFC0
1D00
0D00
0D00
0D00
0D00
0D00
ENDCHAR
STARTCHAR afii10037
ENCODING 1059
SWIDTH 652 0
DWIDTH 6 0
BBX 6 7 0 0
BITMAP
A0A0
70D0
35C0
1E40
0F00
1E00
B800
ENDCHAR
STARTCHAR afii10038
ENCODING 1060
SWIDTH 859 0
DWIDTH 8 0
BBX 8 7 0 0
BITMAP
0240
2FF4
769C
A24D
769C
2FF4
0240
ENDCHAR
STARTCHAR afii10039
ENCODING 1061
SWIDTH 666 0
DWIDTH 6 0
BBX 6 7 0 0
BITMAP
B0E0
35C0
1F40
0F00
2B40
35C0
A0A0
ENDCHAR
STARTCHAR afii10040
ENCODING 1062
SWIDTH 780 0
DWIDTH 7 0
BBX 7 9 0 -2
BITMAP
7470
7470
7470
7470
7470
74B0
7FFC
001C
001C
ENDCHAR
STARTCHAR afii10041
ENCODING 1063
SWIDTH 728 0
DWIDTH 7 0
BBX 6 7 0 0
BITMAP
B0A0
B0A0
B0A0
75A0
2FE0
00A0
00A0
ENDCHAR
STARTCHAR afii10042
ENCODING 1064
SWIDTH 1078 0
DWIDTH 10 0
BBX 9 7 0 0
BITMAP
74A1C0
74A1C0
74A1C0
74A1C0
74A1C0
74E2C0
7FFFC0
ENDCHAR
STARTCHAR afii10043
ENCODING 1065
SWIDTH 1113 0
DWIDTH 10 0
BBX 10 9 0 -2
BITMAP
74A1C0
74A1C0
74A1C0
74A1C0
74A1C0
74E2C0
7FFFF0
000070
000070
ENDCHAR
STARTCHAR afii10044
ENCODING 1066
SWIDTH 727 0
DWIDTH 7 0
BBX 6 7 0 0
BITMAP
FC00
1C00
1C00
1FD0
1CB0
1CB0
1FD0
ENDCHAR
STARTCHAR afii10045
ENCODING 1067
SWIDTH 905 0
DWIDTH 8 0
BBX 8 7 0 0
BITMAP
740D
740D
740D
7F4D
75CD
75CD
7F4D
ENDCHAR
STARTCHAR afii10046
ENCODING 1068
SWIDTH 638 0
DWIDTH 6 0
BBX 6 7 0 0
BITMAP
7400
7400
7400
7F80
75D0
75D0
7F80
ENDCHAR
STARTCHAR afii10047
ENCODING 1069
SWIDTH 663 0
DWIDTH 6 0
BBX 6 7 0 0
BITMAP
7E40
56C0
00D0
2FD0
01D0
56C0
7E40
ENDCHAR
STARTCHAR afii10048
ENCODING 1070
SWIDTH 1069 0
DWIDTH 10 0
BBX 9 7 0 0
BITMAP
747E00
74D780
75C1C0
7F81C0
76C1C0
75D780
747E00
ENDCHAR
STARTCHAR afii10049
ENCODING 1071
SWIDTH 665 0
DWIDTH 6 0
BBX 6 7 0 0
BITMAP
2FD0
75D0
75D0
2FD0
29D0
75D0
A1D0
ENDCHAR
STARTCHAR afii10065
ENCODING 1072
SWIDTH 604 0
DWIDTH 5 0
BBX 5 5 0 0
BITMAP
2F40
1280
6B80
B280
7E80
ENDCHAR
STARTCHAR afii10066
ENCODING 1073
SWIDTH 622 0
DWIDTH 6 0
BBX 5 7 0 0
BITMAP
0AC0
3940
7B40
B1C0
A1C0
75C0
2F40
ENDCHAR
STARTCHAR afii10067
ENCODING 1074
SWIDTH 639 0
DWIDTH 6 0
BBX 6 5 0 0
BITMAP
7F80
71C0
7F80
70D0
7F80
ENDCHAR
STARTCHAR afii10068
ENCODING 1075
SWIDTH 478 0
DWIDTH 4 0
BBX 4 5 0 0
BITMAP
7F
70
70
70
70
ENDCHAR
STARTCHAR afii10069
ENCODING 1076
SWIDTH 664 0
DWIDTH 6 0
BBX 6 7 0 -2
BITMAP
1FC0
29C0
25C0
71C0
FFF0
D070
D070
ENDCHAR
STARTCHAR afii10070
ENCODING 1077
SWIDTH 590 0
DWIDTH 5 0
BBX 5 5 0 0
BITMAP
2F40
7180
BF80
7000
2F80
ENDCHAR
STARTCHAR afii10072
ENCODING 1078
SWIDTH 873 0
DWIDTH 8 0
BBX 8 5 0 0
BITMAP
728D
2AA8
1FB0
2AA8
A28D
ENDCHAR
STARTCHAR afii10073
ENCODING 1079
SWIDTH 555 0
DWIDTH 5 0
BBX 5 5 0 0
BITMAP
7E00
0340
2F00
4280
BE40
ENDCHAR
STARTCHAR afii10074
ENCODING 1080
SWIDTH 720 0
DWIDTH 6 0
BBX 6 5 0 0
BITMAP
71E0
72E0
77A0
7DA0
78A0
ENDCHAR
STARTCHAR afii10075
ENCODING 1081
SWIDTH 720 0
DWIDTH 6 0
BBX 6 8 0 0
BITMAP
24D0
1E80
0000
71E0
72E0
77A0
7DA0
78A0
ENDCHAR
STARTCHAR afii10076
ENCODING 1082
SWIDTH 619 0
DWIDTH 6 0
BBX 6 5 0 0
BITMAP
71C0
7740
7A00
7740
71D0
ENDCHAR
STARTCHAR afii10077
ENCODING 1083
SWIDTH 645 0
DWIDTH 6 0
BBX 5 5 0 0
BITMAP
2FC0
25C0
35C0
71C0
E1C0
ENDCHAR
STARTCHAR afii10078
ENCODING 1084
SWIDTH 844 0
DWIDTH 8 0
BBX 7 5 0 0
BITMAP
783C
7CBC
7AEC
77DC
735C
ENDCHAR
STARTCHAR afii10079
ENCODING 1085
SWIDTH 662 0
DWIDTH 6 0
BBX 6 5 0 0
BITMAP
70D0
70D0
7FD0
70D0
70D0
ENDCHAR
STARTCHAR afii10080
ENCODING 1086
SWIDTH 619 0
DWIDTH 6 0
BBX 5 5 0 0
BITMAP
2F40
76C0
A1C0
76C0
2F40
ENDCHAR
STARTCHAR afii10081
ENCODING 1087
SWIDTH 651 0
DWIDTH 6 0
BBX 6 5 0 0
BITMAP
7FD0
71D0
71D0
71D0
71D0
ENDCHAR
STARTCHAR afii10082
ENCODING 1088
SWIDTH 632 0
DWIDTH 6 0
BBX 6 7 0 -2
BITMAP
7B80
75C0
70D0
75C0
7B80
7000
7000
ENDCHAR
STARTCHAR afii10083
ENCODING 1089
SWIDTH 514 0
DWIDTH 5 0
BBX 4 5 0 0
BITMAP
2F
75
A0
75
2F
ENDCHAR
STARTCHAR afii10084
ENCODING 1090
SWIDTH 553 0
DWIDTH 5 0
BBX 5 5 0 0
BITMAP
BF80
1C00
1C00
1C00
1C00
ENDCHAR
STARTCHAR afii10085
ENCODING 1091
SWIDTH 568 0
DWIDTH 5 0
BBX 5 7 0 -2
BITMAP
A1C0
7280
3740
2E00
1D00
1C00
B400
ENDCHAR
STARTCHAR afii10086
ENCODING 1092
SWIDTH 813 0
DWIDTH 7 0
BBX 7 9 0 -2
BITMAP
0340
0340
2FE0
7768
A35C
7768
1FE0
0340
0340
ENDCHAR
STARTCHAR afii10087
ENCODING 1093
SWIDTH 578 0
DWIDTH 5 0
BBX 5 5 0 0
BITMAP
B280
3B00
1E00
3B40
B280
ENDCHAR
STARTCHAR afii10088
ENCODING 1094
SWIDTH 687 0
DWIDTH 6 0
BBX 6 7 0 -2
BITMAP
70D0
70D0
70D0
70D0
7FF0
0030
0030
ENDCHAR
STARTCHAR afii10089
ENCODING 1095
SWIDTH 655 0
DWIDTH 6 0
BBX 6 5 0 0
BITMAP
70D0
71D0
3ED0
00D0
00D0
ENDCHAR
STARTCHAR afii10090
ENCODING 1096
SWIDTH 969 0
DWIDTH 9 0
BBX 8 5 0 0
BITMAP
71C7
71C7
71C7
71C7
7FFF
ENDCHAR
STARTCHAR afii10091
ENCODING 1097
SWIDTH 984 0
DWIDTH 9 0
BBX 9 7 0 -2
BITMAP
71C700
71C700
71C700
71C700
7FFF80
000180
000180
ENDCHAR
STARTCHAR afii10092
ENCODING 1098
SWIDTH 709 0
DWIDTH 6 0
BBX 6 5 0 0
BITMAP
FC00
1C00
1FE0
1C70
1FE0
ENDCHAR
STARTCHAR afii10093
ENCODING 1099
SWIDTH 850 0
DWIDTH 8 0
BBX 7 5 0 0
BITMAP
701C
701C
7F5C
72DC
7F5C
ENDCHAR
STARTCHAR afii10094
ENCODING 1100
SWIDTH 613 0
DWIDTH 6 0
BBX 5 5 0 0
BITMAP
7000
7000
7F80
71C0
7F80
ENDCHAR
STARTCHAR afii10095
ENCODING 1101
SWIDTH 512 0
DWIDTH 5 0
BBX 5 5 0 0
BITMAP
7D00
0700
3F40
0700
BD00
ENDCHAR
STARTCHAR afii10096
ENCODING 1102
SWIDTH 876 0
DWIDTH 8 0
BBX 8 5 0 0
BITMAP
71F8
739D
7F4D
739D
71F8
ENDCHAR
STARTCHAR afii10097
ENCODING 1103
SWIDTH 592 0
DWIDTH 5 0
BBX 5 5 0 0
BITMAP
7F80
A280
7F80
3680
A280
ENDCHAR
STARTCHAR uni0450
ENCODING 1104
SWIDTH 590 0
DWIDTH 5 0
BBX 5 8 0 0
BITMAP
2C00
0900
0000
2F40
7180
BF80
7000
2F80
ENDCHAR
STARTCHAR afii10071
ENCODING 1105
SWIDTH 590 0
DWIDTH 5 0
BBX 5 7 0 0
BITMAP
2700
0000
2F40
7180
BF80
7000
2F80
ENDCHAR
STARTCHAR afii10099
ENCODING 1106
SWIDTH 657 0
DWIDTH 6 0
BBX 6 9 0 -2
BITMAP
7000
FD00
7B80
75D0
70D0
70D0
70D0
01D0
0380
ENDCHAR
STARTCHAR afii10100
ENCODING 1107
SWIDTH 478 0
DWIDTH 4 0
BBX 4 8 0 0
BITMAP
0A
1C
00
7F
70
70
70
70
ENDCHAR
STARTCHAR afii10101
ENCODING 1108
SWIDTH 523 0
DWIDTH 5 0
BBX 5 5 0 0
BITMAP
2F40
7000
BE00
7000
2F40
ENDCHAR
STARTCHAR afii10102
ENCODING 1109
SWIDTH 497 0
DWIDTH 4 0
BBX 4 5 0 0
BITMAP
7E
B5
2E
47
7E
ENDCHAR
STARTCHAR afii10103
ENCODING 1110
SWIDTH 305 0
DWIDTH 3 0
BBX 2 7 0 0
BITMAP
70
10
70
70
70
70
70
ENDCHAR
STARTCHAR afii10104
ENCODING 1111
SWIDTH 305 0
DWIDTH 3 0
BBX 3 7 0 0
BITMAP
D8
00
70
70
70
70
70
ENDCHAR
STARTCHAR afii10105
ENCODING 1112
SWIDTH 305 0
DWIDTH 3 0
BBX 3 9 -1 -2
BITMAP
1C
04
1C
1C
1C
1C
1C
1C
B8
ENDCHAR
STARTCHAR afii10106
ENCODING 1113
SWIDTH 888 0
DWIDTH 8 0
BBX 8 5 0 0
BITMAP
2FC0
25C0
35FD
71CA
E1FD
ENDCHAR
STARTCHAR afii10107
ENCODING 1114
SWIDTH 888 0
DWIDTH 8 0
BBX 8 5 0 0
BITMAP
71C0
71C0
7FFD
71CA
71FD
ENDCHAR
STARTCHAR afii10108
ENCODING 1115
SWIDTH 657 0
DWIDTH 6 0
BBX 6 7 0 0
BITMAP
7000
FD00
7B80
75D0
70D0
70D0
70D0
ENDCHAR
STARTCHAR afii10109
ENCODING 1116
SWIDTH 619 0
DWIDTH 6 0
BBX 6 8 0 0
BITMAP
0340
0A00
0000
71C0
7740
7A00
7740
71D0
ENDCHAR
STARTCHAR uni045D
ENCODING 1117
SWIDTH 720 0
DWIDTH 6 0
BBX 6 8 0 0
BITMAP
1D00
0600
0000
71E0
72E0
77A0
7DA0
78A0
ENDCHAR
STARTCHAR afii10110
ENCODING 1118
SWIDTH 568 0
DWIDTH 5 0
BBX 5 10 0 -2
BITMAP
6280
2A00
0000
A1C0
7280
3740
2E00
1D00
1C00
B400
ENDCHAR
STARTCHAR afii10193
ENCODING 1119
SWIDTH 671 0
DWIDTH 6 0
BBX 6 7 0 -2
BITMAP
70D0
70D0
70D0
70D0
7FD0
0A00
0A00
ENDCHAR
STARTCHAR uni0460
ENCODING 1120
SWIDTH 1087 0
DWIDTH 10 0
BBX 10 7 0 0
BITMAP
1F5F40
3502C0
7000D0
7000D0
70A1C0
39E680
1FAE00
ENDCHAR
STARTCHAR uni0461
ENCODING 1121
SWIDTH 884 0
DWIDTH 8 0
BBX 8 5 0 0
BITMAP
A34A
728D
37CD
2AEC
1DB4
ENDCHAR
STARTCHAR uni0462
ENCODING 1122
SWIDTH 672 0
DWIDTH 6 0
BBX 6 7 0 0
BITMAP
3400
FF00
3400
3F80
39E0
39E0
3F80
ENDCHAR
STARTCHAR uni0463
ENCODING 1123
SWIDTH 662 0
DWIDTH 6 0
BBX 6 6 0 0
BITMAP
3400
FF00
3400
3FD0
34E0
3FD0
ENDCHAR
STARTCHAR uni0464
ENCODING 1124
SWIDTH 950 0
DWIDTH 9 0
BBX 8 7 0 0
BITMAP
747E
75D5
7680
7FFD
7780
76D5
74BE
ENDCHAR
STARTCHAR uni0465
ENCODING 1125
SWIDTH 799 0
DWIDTH 7 0
BBX 7 5 0 0
BITMAP
71F8
7380
7FF4
7384
71F8
ENDCHAR
STARTCHAR uni0466
ENCODING 1126
SWIDTH 729 0
DWIDTH 7 0
BBX 7 7 0 0
BITMAP
0B40
0E80
19C0
2FD0
37A0
6770
9734
ENDCHAR
STARTCHAR uni0467
ENCODING 1127
SWIDTH 640 0
DWIDTH 6 0
BBX 6 5 0 0
BITMAP
0F00
2A40
3F80
6AC0
99A0
ENDCHAR
STARTCHAR uni0468
ENCODING 1128
SWIDTH 1004 0
DWIDTH 9 0
BBX 9 7 0 0
BITMAP
747800
74AC00
74D900
7FFE00
76BB00
776680
7B25C0
ENDCHAR
STARTCHAR uni0469
ENCODING 1129
SWIDTH 901 0
DWIDTH 8 0
BBX 8 5 0 0
BITMAP
70B4
71D8
7FFC
73A9
7667
ENDCHAR
STARTCHAR uni046A
ENCODING 1130
SWIDTH 804 0
DWIDTH 7 0
BBX 7 7 0 0
BITMAP
7FF4
28A0
0ED0
1FE0
3774
7368
A35C
ENDCHAR
STARTCHAR uni046B
ENCODING 1131
SWIDTH 623 0
DWIDTH 6 0
BBX 6 5 0 0
BITMAP
7FC0
2B40
2F40
6AC0
9990
ENDCHAR
STARTCHAR uni046C
ENCODING 1132
SWIDTH 1073 0
DWIDTH 10 0
BBX 10 7 0 0
BITMAP
76FFC0
75D740
74AA00
7FFF00
76AA80
7769C0
7728D0
ENDCHAR
STARTCHAR uni046D
ENCODING 1133
SWIDTH 879 0
DWIDTH 8 0
BBX 8 5 0 0
BITMAP
73FD
71A8
7FF8
73A9
7666
ENDCHAR
STARTCHAR uni046E
ENCODING 1134
SWIDTH 631 0
DWIDTH 6 0
BBX 6 11 0 -2
BITMAP
3680
1A00
7F40
51C0
02C0
2F40
01C0
01D0
7F40
A000
7F40
ENDCHAR
STARTCHAR uni046F
ENCODING 1135
SWIDTH 555 0
DWIDTH 5 0
BBX 5 8 0 -2
BITMAP
2640
7F40
0240
2F00
0280
7E40
9000
7F00
ENDCHAR
STARTCHAR uni0470
ENCODING 1136
SWIDTH 875 0
DWIDTH 8 0
BBX 8 7 0 0
BITMAP
A28D
A28D
628D
729D
2FF8
0280
0280
ENDCHAR
STARTCHAR uni0471
ENCODING 1137
SWIDTH 836 0
DWIDTH 8 0
BBX 7 9 0 -2
BITMAP
0240
0240
7258
725C
725C
7668
1FE4
0240
0240
ENDCHAR
STARTCHAR uni0472
ENCODING 1138
SWIDTH 795 0
DWIDTH 7 0
BBX 7 7 0 0
BITMAP
1BD0
39B4
7038
7FF8
7438
3974
1BD0
ENDCHAR
STARTCHAR uni0473
ENCODING 1139
SWIDTH 619 0
DWIDTH 6 0
BBX 5 5 0 0
BITMAP
2F40
76C0
BFC0
76C0
2F40
ENDCHAR
STARTCHAR uni0474
ENCODING 1140
SWIDTH 716 0
DWIDTH 6 0
BBX 7 7 0 0
BITMAP
E074
A0E0
71C0
3580
2A40
1F00
0E00
ENDCHAR
STARTCHAR uni0475
ENCODING 1141
SWIDTH 604 0
DWIDTH 5 0
BBX 6 5 0 0
BITMAP
A1D0
7280
3740
2A00
1D00
ENDCHAR
STARTCHAR uni0476
ENCODING 1142
SWIDTH 716 0
DWIDTH 6 0
BBX 7 10 0 0
BITMAP
3B00
1A40
0000
E074
A0E0
71C0
3580
2A40
1F00
0E00
ENDCHAR
STARTCHAR uni0477
ENCODING 1143
SWIDTH 604 0
DWIDTH 5 0
BBX 6 8 0 0
BITMAP
7A00
2600
0000
A1D0
7280
3740
2A00
1D00
ENDCHAR
STARTCHAR uni0478
ENCODING 1144
SWIDTH 1318 0
DWIDTH 12 0
BBX 12 9 0 -2
BITMAP
1F9000
39B000
70774A
70368D
7071DC
39B0F8
1F9074
0000A0
0003D0
ENDCHAR
STARTCHAR uni0479
ENCODING 1145
SWIDTH 1145 0
DWIDTH 10 0
BBX 10 7 0 -2
BITMAP
2F6870
76DCA0
A1CDD0
76C7C0
2F4380
000740
001E00
ENDCHAR
STARTCHAR uni047A
ENCODING 1146
SWIDTH 835 0
DWIDTH 8 0
BBX 7 9 0 -1
BITMAP
0240
1BE0
3978
702C
701C
702C
3978
1BE0
0240
ENDCHAR
STARTCHAR uni047B
ENCODING 1147
SWIDTH 679 0
DWIDTH 6 0
BBX 6 7 0 -1
BITMAP
0500
2F80
75D0
A0A0
75E0
2F80
0500
ENDCHAR
STARTCHAR uni047C
ENCODING 1148
SWIDTH 1087 0
DWIDTH 10 0
BBX 10 10 0 0
BITMAP
01F800
009000
005000
1F1F40
3502C0
7000D0
7000D0
7001C0
39A680
1FAE00
ENDCHAR
STARTCHAR uni047D
ENCODING 1149
SWIDTH 890 0
DWIDTH 8 0
BBX 8 8 0 0
BITMAP
07E0
0280
0140
2E78
700D
A00A
714D
2EB8
ENDCHAR
STARTCHAR uni047E
ENCODING 1150
SWIDTH 1087 0
DWIDTH 10 0
BBX 10 9 0 0
BITMAP
03A800
014400
1F1F40
3502C0
7000D0
7000D0
70A1C0
39E680
1FAE00
ENDCHAR
STARTCHAR uni047F
ENCODING 1151
SWIDTH 884 0
DWIDTH 8 0
BBX 8 6 0 0
BITMAP
0AA0
A34A
728D
37CD
2BE8
1DB4
ENDCHAR
STARTCHAR uni0480
ENCODING 1152
SWIDTH 676 0
DWIDTH 6 0
BBX 6 9 0 -2
BITMAP
1BD0
3950
7000
7000
7000
3940
1BC0
01C0
01C0
ENDCHAR
STARTCHAR uni0481
ENCODING 1153
SWIDTH 523 0
DWIDTH 5 0
BBX 5 7 0 -2
BITMAP
2F40
7500
A000
7400
2F00
0700
0700
ENDCHAR
STARTCHAR uni0482
ENCODING 1154
SWIDTH 608 0
DWIDTH 5 0
BBX 5 6 0 0
BITMAP
0140
0A00
0680
6800
2900
2000
ENDCHAR
STARTCHAR uni0483
ENCODING 1155
SWIDTH 557 0
DWIDTH 5 0
BBX 3 3 1 4
BITMAP
04
AC
80
ENDCHAR
STARTCHAR uni0484
ENCODING 1156
SWIDTH 577 0
DWIDTH 5 0
BBX 4 1 1 5
BITMAP
BD
ENDCHAR
STARTCHAR uni0485
ENCODING 1157
SWIDTH 577 0
DWIDTH 5 0
BBX 2 2 2 5
BITMAP
90
90
ENDCHAR
STARTCHAR uni0486
ENCODING 1158
SWIDTH 577 0
DWIDTH 5 0
BBX 2 2 2 5
BITMAP
90
80
ENDCHAR
STARTCHAR uni0488
ENCODING 1160
SWIDTH 988 0
DWIDTH 9 0
BBX 9 9 0 -2
BITMAP
004000
115500
140500
500100
500140
000000
100500
144500
015000
ENDCHAR
STARTCHAR uni0489
ENCODING 1161
SWIDTH 956 0
DWIDTH 9 0
BBX 9 9 0 -2
BITMAP
004000
108000
140800
000000
500240
000000
140800
108400
004000
ENDCHAR
STARTCHAR uni048A
ENCODING 1162
SWIDTH 916 0
DWIDTH 8 0
BBX 8 12 0 -2
BITMAP
1C60
0A90
0000
7078
70F8
71E8
7368
7A28
7D29
782F
000A
000D
ENDCHAR
STARTCHAR uni048B
ENCODING 1163
SWIDTH 801 0
DWIDTH 7 0
BBX 7 10 0 -2
BITMAP
24D0
1E80
0000
71E0
72E0
77A0
7DA0
78BC
0018
0028
ENDCHAR
STARTCHAR uni048C
ENCODING 1164
SWIDTH 616 0
DWIDTH 6 0
BBX 6 7 0 0
BITMAP
7400
BD00
7400
7F80
75D0
75D0
7F80
ENDCHAR
STARTCHAR uni048D
ENCODING 1165
SWIDTH 613 0
DWIDTH 6 0
BBX 5 7 0 0
BITMAP
7000
FE00
7000
7000
7F80
71C0
7F80
ENDCHAR
STARTCHAR uni048E
ENCODING 1166
SWIDTH 627 0
DWIDTH 6 0
BBX 6 7 0 0
BITMAP
7F40
75C0
75D0
77C0
7F80
7480
7400
ENDCHAR
STARTCHAR uni048F
ENCODING 1167
SWIDTH 632 0
DWIDTH 6 0
BBX 6 7 0 -2
BITMAP
7B80
75C0
70D0
77C0
7B80
7080
7000
ENDCHAR
STARTCHAR afii10050
ENCODING 1168
SWIDTH 581 0
DWIDTH 5 0
BBX 5 8 0 0
BITMAP
00C0
7FC0
7400
7400
7400
7400
7400
7400
ENDCHAR
STARTCHAR afii10098
ENCODING 1169
SWIDTH 512 0
DWIDTH 5 0
BBX 5 6 0 0
BITMAP
0340
7F40
7000
7000
7000
7000
ENDCHAR
STARTCHAR uni0492
ENCODING 1170
SWIDTH 559 0
DWIDTH 5 0
BBX 5 7 0 0
BITMAP
7FC0
7400
7400
BF00
7400
7400
7400
ENDCHAR
STARTCHAR uni0493
ENCODING 1171
SWIDTH 491 0
DWIDTH 4 0
BBX 5 5 0 0
BITMAP
7F40
7000
FD00
7000
7000
ENDCHAR
STARTCHAR uni0494
ENCODING 1172
SWIDTH 733 0
DWIDTH 7 0
BBX 6 9 0 -2
BITMAP
7FC0
7400
7400
7F80
75E0
7470
7470
05B0
0BD0
ENDCHAR
STARTCHAR uni0495
ENCODING 1173
SWIDTH 602 0
DWIDTH 5 0
BBX 5 7 0 -2
BITMAP
7F40
7000
7F40
76C0
71C0
06C0
0F40
ENDCHAR
STARTCHAR uni0496
ENCODING 1174
SWIDTH 1028 0
DWIDTH 9 0
BBX 9 9 0 -2
BITMAP
A1C700
35CD00
1EE800
0FF400
1DDC00
35CE40
A1C7C0
0001C0
0001C0
ENDCHAR
STARTCHAR uni0497
ENCODING 1175
SWIDTH 941 0
DWIDTH 8 0
BBX 9 7 0 -2
BITMAP
728D00
2AA800
1FB000
2AA800
A28F40
000340
000340
ENDCHAR
STARTCHAR uni0498
ENCODING 1176
SWIDTH 647 0
DWIDTH 6 0
BBX 6 9 0 -2
BITMAP
6F80
11D0
01C0
2F40
01D0
51D0
7F80
0900
0D00
ENDCHAR
STARTCHAR uni0499
ENCODING 1177
SWIDTH 555 0
DWIDTH 5 0
BBX 5 7 0 -2
BITMAP
7E00
0340
2F00
4280
BE40
0800
1C00
ENDCHAR
STARTCHAR uni049A
ENCODING 1178
SWIDTH 755 0
DWIDTH 7 0
BBX 7 9 0 -2
BITMAP
74E0
76C0
7740
7E00
7740
75D0
74B8
0028
0028
ENDCHAR
STARTCHAR uni049B
ENCODING 1179
SWIDTH 665 0
DWIDTH 6 0
BBX 6 7 0 -2
BITMAP
71C0
7740
7A00
7740
71F0
0070
0070
ENDCHAR
STARTCHAR uni049C
ENCODING 1180
SWIDTH 664 0
DWIDTH 6 0
BBX 6 7 0 0
BITMAP
74E0
7780
7B00
7F00
7B80
76C0
74A0
ENDCHAR
STARTCHAR uni049D
ENCODING 1181
SWIDTH 599 0
DWIDTH 5 0
BBX 5 5 0 0
BITMAP
7680
7B00
7D00
7B40
75C0
ENDCHAR
STARTCHAR uni049E
ENCODING 1182
SWIDTH 643 0
DWIDTH 6 0
BBX 6 7 0 0
BITMAP
70D0
FA80
7B00
7E00
7740
72C0
70D0
ENDCHAR
STARTCHAR uni049F
ENCODING 1183
SWIDTH 620 0
DWIDTH 6 0
BBX 6 7 0 0
BITMAP
7000
FD00
72C0
7740
7E00
7740
71D0
ENDCHAR
STARTCHAR uni04A0
ENCODING 1184
SWIDTH 732 0
DWIDTH 7 0
BBX 7 7 0 0
BITMAP
F874
28D0
2A80
2F80
2DD0
28A0
2874
ENDCHAR
STARTCHAR uni04A1
ENCODING 1185
SWIDTH 694 0
DWIDTH 6 0
BBX 6 5 0 0
BITMAP
F8A0
1980
1F40
19C0
18A0
ENDCHAR
STARTCHAR uni04A2
ENCODING 1186
SWIDTH 840 0
DWIDTH 8 0
BBX 8 9 0 -2
BITMAP
7470
7470
7470
7FF0
7470
7474
747D
000D
000D
ENDCHAR
STARTCHAR uni04A3
ENCODING 1187
SWIDTH 743 0
DWIDTH 7 0
BBX 7 7 0 -2
BITMAP
70D0
70D0
7FD0
70D0
70F4
0024
0024
ENDCHAR
STARTCHAR uni04A4
ENCODING 1188
SWIDTH 833 0
DWIDTH 8 0
BBX 8 7 0 0
BITMAP
747E
7474
7470
7FF0
7470
7470
7470
ENDCHAR
STARTCHAR uni04A5
ENCODING 1189
SWIDTH 757 0
DWIDTH 7 0
BBX 7 5 0 0
BITMAP
70F8
70D0
7FD0
70D0
70D0
ENDCHAR
STARTCHAR uni04A6
ENCODING 1190
SWIDTH 1125 0
DWIDTH 10 0
BBX 10 9 0 -2
BITMAP
7FE000
74A000
74A000
74BF40
74A6D0
74A0A0
74A0A0
0005D0
000F80
ENDCHAR
STARTCHAR uni04A7
ENCODING 1191
SWIDTH 889 0
DWIDTH 8 0
BBX 8 7 0 -2
BITMAP
7FC0
71C0
71F8
71DD
71CA
001E
00B8
ENDCHAR
STARTCHAR uni04A8
ENCODING 1192
SWIDTH 776 0
DWIDTH 7 0
BBX 7 7 0 0
BITMAP
1F40
3800
71E0
7364
7264
3AF0
1BF8
ENDCHAR
STARTCHAR uni04A9
ENCODING 1193
SWIDTH 655 0
DWIDTH 6 0
BBX 6 5 0 0
BITMAP
2D00
77C0
A690
77D0
2FE0
ENDCHAR
STARTCHAR uni04AA
ENCODING 1194
SWIDTH 637 0
DWIDTH 6 0
BBX 6 9 0 -2
BITMAP
1BD0
3940
7000
7000
7000
3940
1BC0
0200
0700
ENDCHAR
STARTCHAR uni04AB
ENCODING 1195
SWIDTH 514 0
DWIDTH 5 0
BBX 4 7 0 -2
BITMAP
2F
75
A0
75
2F
05
0D
ENDCHAR
STARTCHAR uni04AC
ENCODING 1196
SWIDTH 579 0
DWIDTH 5 0
BBX 5 9 0 -2
BITMAP
BFC0
1D00
0D00
0D00
0D00
0D00
0F80
0280
0280
ENDCHAR
STARTCHAR uni04AD
ENCODING 1197
SWIDTH 549 0
DWIDTH 5 0
BBX 5 7 0 -2
BITMAP
BF80
1C00
1C00
1C00
1F40
0340
0340
ENDCHAR
STARTCHAR uni04AE
ENCODING 1198
SWIDTH 624 0
DWIDTH 6 0
BBX 6 7 0 0
BITMAP
A0D0
76C0
2B40
1E00
0D00
0D00
0D00
ENDCHAR
STARTCHAR uni04AF
ENCODING 1199
SWIDTH 574 0
DWIDTH 5 0
BBX 5 7 0 -2
BITMAP
A1C0
7280
3740
2E00
1D00
0D00
0D00
ENDCHAR
STARTCHAR uni04B0
ENCODING 1200
SWIDTH 624 0
DWIDTH 6 0
BBX 6 7 0 0
BITMAP
A0D0
7680
2F40
0E00
7FC0
0E00
0D00
ENDCHAR
STARTCHAR uni04B1
ENCODING 1201
SWIDTH 574 0
DWIDTH 5 0
BBX 5 7 0 -2
BITMAP
A1C0
7280
3740
2E00
1D00
7F80
0D00
ENDCHAR
STARTCHAR uni04B2
ENCODING 1202
SWIDTH 743 0
DWIDTH 7 0
BBX 7 9 0 -2
BITMAP
B0E0
35C0
1F40
0F00
2B40
35D0
A0B8
0028
0028
ENDCHAR
STARTCHAR uni04B3
ENCODING 1203
SWIDTH 640 0
DWIDTH 6 0
BBX 6 7 0 -2
BITMAP
B280
3B00
1E00
3B40
B2E0
00A0
00A0
ENDCHAR
STARTCHAR uni04B4
ENCODING 1204
SWIDTH 930 0
DWIDTH 8 0
BBX 9 9 0 -2
BITMAP
BFDC00
1D1C00
1C1C00
1C1C00
1C1C00
1D2C00
1FFF40
000340
000340
ENDCHAR
STARTCHAR uni04B5
ENCODING 1205
SWIDTH 791 0
DWIDTH 7 0
BBX 7 7 0 -2
BITMAP
BFA0
28A0
28A0
28A0
2FFC
001C
001C
ENDCHAR
STARTCHAR uni04B6
ENCODING 1206
SWIDTH 804 0
DWIDTH 7 0
BBX 7 9 0 -2
BITMAP
B0A0
B0A0
B0A0
75A0
2FE0
00A4
00BC
001C
001C
ENDCHAR
STARTCHAR uni04B7
ENCODING 1207
SWIDTH 726 0
DWIDTH 7 0
BBX 7 7 0 -2
BITMAP
70D0
71D0
3ED0
00D0
00F4
0024
0024
ENDCHAR
STARTCHAR uni04B8
ENCODING 1208
SWIDTH 728 0
DWIDTH 7 0
BBX 6 7 0 0
BITMAP
B0A0
B0A0
B5A0
76A0
2FE0
05A0
00A0
ENDCHAR
STARTCHAR uni04B9
ENCODING 1209
SWIDTH 655 0
DWIDTH 6 0
BBX 6 5 0 0
BITMAP
70D0
75D0
3ED0
05D0
00D0
ENDCHAR
STARTCHAR uni04BA
ENCODING 1210
SWIDTH 728 0
DWIDTH 7 0
BBX 6 7 0 0
BITMAP
7400
7400
7BD0
75B0
7470
7470
7470
ENDCHAR
STARTCHAR uni04BB
ENCODING 1211
SWIDTH 666 0
DWIDTH 6 0
BBX 6 5 0 0
BITMAP
7000
7000
7B80
70D0
70D0
ENDCHAR
STARTCHAR uni04BC
ENCODING 1212
SWIDTH 948 0
DWIDTH 9 0
BBX 8 7 0 0
BITMAP
02F4
0A5D
DD0A
BFFE
0D00
0A55
02F9
ENDCHAR
STARTCHAR uni04BD
ENCODING 1213
SWIDTH 714 0
DWIDTH 6 0
BBX 6 5 0 0
BITMAP
0BD0
DC70
BFF0
1C10
0BE0
ENDCHAR
STARTCHAR uni04BE
ENCODING 1214
SWIDTH 948 0
DWIDTH 9 0
BBX 8 9 0 -2
BITMAP
02F4
0A5D
DD0A
BFFE
1D00
0A55
02F9
00A0
00A0
ENDCHAR
STARTCHAR uni04BF
ENCODING 1215
SWIDTH 714 0
DWIDTH 6 0
BBX 6 7 0 -2
BITMAP
0BD0
DC70
BFF0
1C00
0BE0
0240
0240
ENDCHAR
STARTCHAR uni04C0
ENCODING 1216
SWIDTH 331 0
DWIDTH 3 0
BBX 3 7 0 0
BITMAP
74
74
74
74
74
74
74
ENDCHAR
STARTCHAR uni04C1
ENCODING 1217
SWIDTH 942 0
DWIDTH 8 0
BBX 9 10 0 0
BITMAP
093400
07A000
000000
A1C700
35CD00
1EE800
0FF400
1DDC00
35CE00
A1C740
ENDCHAR
STARTCHAR uni04C2
ENCODING 1218
SWIDTH 873 0
DWIDTH 8 0
BBX 8 8 0 0
BITMAP
0C70
0A90
0000
728D
2AA8
1FB0
2AA8
A28D
ENDCHAR
STARTCHAR uni04C3
ENCODING 1219
SWIDTH 759 0
DWIDTH 7 0
BBX 7 9 0 -2
BITMAP
74A0
7680
7B00
7F90
74B0
7434
7434
01B0
07D0
ENDCHAR
STARTCHAR uni04C4
ENCODING 1220
SWIDTH 661 0
DWIDTH 6 0
BBX 6 7 0 -2
BITMAP
72C0
7A00
7F80
71D0
70A0
05D0
0B80
ENDCHAR
STARTCHAR uni04C5
ENCODING 1221
SWIDTH 837 0
DWIDTH 8 0
BBX 8 9 0 -2
BITMAP
1FF0
1CB0
1870
2870
2870
7474
E07D
001C
0028
ENDCHAR
STARTCHAR uni04C6
ENCODING 1222
SWIDTH 727 0
DWIDTH 7 0
BBX 7 7 0 -2
BITMAP
2FC0
25C0
35C0
71C0
E1F4
0030
0070
ENDCHAR
STARTCHAR uni04C7
ENCODING 1223
SWIDTH 765 0
DWIDTH 7 0
BBX 6 9 0 -2
BITMAP
7470
7470
7470
7FF0
7470
7470
7470
05B0
0BD0
ENDCHAR
STARTCHAR uni04C8
ENCODING 1224
SWIDTH 662 0
DWIDTH 6 0
BBX 6 7 0 -2
BITMAP
70D0
70D0
7FD0
70D0
70D0
05C0
0F40
ENDCHAR
STARTCHAR uni04C9
ENCODING 1225
SWIDTH 857 0
DWIDTH 8 0
BBX 8 9 0 -2
BITMAP
7470
7470
7470
7FF0
7470
7474
747D
000C
002C
ENDCHAR
STARTCHAR uni04CA
ENCODING 1226
SWIDTH 744 0
DWIDTH 7 0
BBX 7 7 0 -2
BITMAP
70D0
70D0
7FD0
70D0
70F4
0034
0070
ENDCHAR
STARTCHAR uni04CB
ENCODING 1227
SWIDTH 728 0
DWIDTH 7 0
BBX 6 9 0 -2
BITMAP
B0A0
B0A0
B0A0
75A0
2FE0
00A0
02E0
0280
0280
ENDCHAR
STARTCHAR uni04CC
ENCODING 1228
SWIDTH 655 0
DWIDTH 6 0
BBX 6 7 0 -2
BITMAP
70D0
71D0
3ED0
00D0
03D0
0300
0300
ENDCHAR
STARTCHAR uni04CD
ENCODING 1229
SWIDTH 1036 0
DWIDTH 9 0
BBX 9 9 0 -2
BITMAP
781E00
7C2E00
793A00
767A00
77AA00
73DA40
72CBC0
000280
000340
ENDCHAR
STARTCHAR uni04CE
ENCODING 1230
SWIDTH 925 0
DWIDTH 8 0
BBX 8 7 0 -2
BITMAP
783C
7CBC
7AEC
77DC
735F
0007
000A
ENDCHAR
STARTCHAR uni04CF
ENCODING 1231
SWIDTH 331 0
DWIDTH 3 0
BBX 3 7 0 0
BITMAP
74
74
74
74
74
74
74
ENDCHAR
STARTCHAR uni04D0
ENCODING 1232
SWIDTH 689 0
DWIDTH 6 0
BBX 6 10 0 0
BITMAP
34C0
1E80
0000
0F00
1E40
2980
35C0
7FD0
B0A0
E070
ENDCHAR
STARTCHAR uni04D1
ENCODING 1233
SWIDTH 604 0
DWIDTH 5 0
BBX 5 8 0 0
BITMAP
7180
2A40
0000
2F40
1280
6B80
B280
7E80
ENDCHAR
STARTCHAR uni04D2
ENCODING 1234
SWIDTH 689 0
DWIDTH 6 0
BBX 6 9 0 0
BITMAP
1940
0000
0F00
1E40
2980
35C0
7FD0
B0A0
E070
ENDCHAR
STARTCHAR uni04D3
ENCODING 1235
SWIDTH 604 0
DWIDTH 5 0
BBX 5 7 0 0
BITMAP
2700
0000
2F40
1280
6B80
B280
7E80
ENDCHAR
STARTCHAR uni04D4
ENCODING 1236
SWIDTH 952 0
DWIDTH 9 0
BBX 8 7 0 0
BITMAP
07FF
0AA0
0CA0
28BF
3FE0
70A0
A0BF
ENDCHAR
STARTCHAR uni04D5
ENCODING 1237
SWIDTH 916 0
DWIDTH 8 0
BBX 8 5 0 0
BITMAP
2EBD
12CA
6BFE
B2C0
7DBD
ENDCHAR
STARTCHAR uni04D6
ENCODING 1238
SWIDTH 560 0
DWIDTH 5 0
BBX 5 10 0 0
BITMAP
6280
2A40
0000
7F80
7400
7400
7F40
7400
7400
7F80
ENDCHAR
STARTCHAR uni04D7
ENCODING 1239
SWIDTH 590 0
DWIDTH 5 0
BBX 5 8 0 0
BITMAP
7180
2A40
0000
2F40
7180
BF80
7000
2F80
ENDCHAR
STARTCHAR uni04D8
ENCODING 1240
SWIDTH 816 0
DWIDTH 7 0
BBX 7 7 0 0
BITMAP
1FD0
2574
0028
7FF8
3428
2974
0BD0
ENDCHAR
STARTCHAR uni04D9
ENCODING 1241
SWIDTH 601 0
DWIDTH 5 0
BBX 5 5 0 0
BITMAP
7E40
0280
BFC0
7280
2E40
ENDCHAR
STARTCHAR uni04DA
ENCODING 1242
SWIDTH 816 0
DWIDTH 7 0
BBX 7 9 0 0
BITMAP
0980
0000
1FD0
2574
0028
7FF8
3428
2974
0BD0
ENDCHAR
STARTCHAR uni04DB
ENCODING 1243
SWIDTH 601 0
DWIDTH 5 0
BBX 5 7 0 0
BITMAP
2700
0000
7E40
0280
BFC0
7280
2E40
ENDCHAR
STARTCHAR uni04DC
ENCODING 1244
SWIDTH 942 0
DWIDTH 8 0
BBX 9 9 0 0
BITMAP
026000
000000
A1C700
35CD00
1EE800
0FF400
1DDC00
35CE00
A1C740
ENDCHAR
STARTCHAR uni04DD
ENCODING 1245
SWIDTH 873 0
DWIDTH 8 0
BBX 8 7 0 0
BITMAP
0690
0000
728D
2AA8
1FB0
2AA8
A28D
ENDCHAR
STARTCHAR uni04DE
ENCODING 1246
SWIDTH 647 0
DWIDTH 6 0
BBX 6 9 0 0
BITMAP
1A40
0000
6F80
11D0
01C0
2F40
01D0
51D0
7F80
ENDCHAR
STARTCHAR uni04DF
ENCODING 1247
SWIDTH 555 0
DWIDTH 5 0
BBX 5 7 0 0
BITMAP
3700
0000
7E00
0340
2F00
4280
BE40
ENDCHAR
STARTCHAR uni04E0
ENCODING 1248
SWIDTH 590 0
DWIDTH 5 0
BBX 5 7 0 0
BITMAP
BF80
0B40
1D00
2E40
02C0
42C0
BE40
ENDCHAR
STARTCHAR uni04E1
ENCODING 1249
SWIDTH 581 0
DWIDTH 5 0
BBX 5 7 0 -2
BITMAP
BF80
0740
1D00
2E40
0280
4280
BE40
ENDCHAR
STARTCHAR uni04E2
ENCODING 1250
SWIDTH 823 0
DWIDTH 7 0
BBX 7 9 0 0
BITMAP
0BD0
0000
7078
70F8
71E8
7368
7A28
7D28
7828
ENDCHAR
STARTCHAR uni04E3
ENCODING 1251
SWIDTH 720 0
DWIDTH 6 0
BBX 6 7 0 0
BITMAP
1F80
0000
71E0
72E0
77A0
7DA0
78A0
ENDCHAR
STARTCHAR uni04E4
ENCODING 1252
SWIDTH 823 0
DWIDTH 7 0
BBX 7 9 0 0
BITMAP
09C0
0000
7078
70F8
71E8
7368
7A28
7D28
7828
ENDCHAR
STARTCHAR uni04E5
ENCODING 1253
SWIDTH 720 0
DWIDTH 6 0
BBX 6 7 0 0
BITMAP
0980
0000
71E0
72E0
77A0
7DA0
78A0
ENDCHAR
STARTCHAR uni04E6
ENCODING 1254
SWIDTH 795 0
DWIDTH 7 0
BBX 7 9 0 0
BITMAP
09C0
0000
1BD0
39B4
7038
7028
7038
39B4
1BD0
ENDCHAR
STARTCHAR uni04E7
ENCODING 1255
SWIDTH 619 0
DWIDTH 6 0
BBX 5 7 0 0
BITMAP
2640
0000
2F40
76C0
A1C0
76C0
2F40
ENDCHAR
STARTCHAR uni04E8
ENCODING 1256
SWIDTH 795 0
DWIDTH 7 0
BBX 7 7 0 0
BITMAP
1BD0
39B4
7038
7FF8
7438
3974
1BD0
ENDCHAR
STARTCHAR uni04E9
ENCODING 1257
SWIDTH 619 0
DWIDTH 6 0
BBX 5 5 0 0
BITMAP
2F40
76C0
BFC0
76C0
2F40
ENDCHAR
STARTCHAR uni04EA
ENCODING 1258
SWIDTH 795 0
DWIDTH 7 0
BBX 7 9 0 0
BITMAP
09C0
0000
1BD0
39B4
7038
7FF8
7438
3974
1BD0
ENDCHAR
STARTCHAR uni04EB
ENCODING 1259
SWIDTH 619 0
DWIDTH 6 0
BBX 5 7 0 0
BITMAP
2600
0000
2F40
76C0
BFC0
76C0
2F40
ENDCHAR
STARTCHAR uni04EC
ENCODING 1260
SWIDTH 663 0
DWIDTH 6 0
BBX 6 9 0 0
BITMAP
2640
0000
7E40
56C0
00D0
2FD0
01D0
56C0
7E40
ENDCHAR
STARTCHAR uni04ED
ENCODING 1261
SWIDTH 512 0
DWIDTH 5 0
BBX 5 7 0 0
BITMAP
2600
0000
7D00
0700
3F40
0700
BD00
ENDCHAR
STARTCHAR uni04EE
ENCODING 1262
SWIDTH 652 0
DWIDTH 6 0
BBX 6 9 0 0
BITMAP
1F40
0000
A0A0
70D0
35C0
1E40
0F00
1E00
B800
ENDCHAR
STARTCHAR uni04EF
ENCODING 1263
SWIDTH 568 0
DWIDTH 5 0
BBX 5 9 0 -2
BITMAP
3F00
0000
A1C0
7280
3740
2E00
1D00
1C00
B400
ENDCHAR
STARTCHAR uni04F0
ENCODING 1264
SWIDTH 652 0
DWIDTH 6 0
BBX 6 9 0 0
BITMAP
1A40
0000
A0A0
70D0
35C0
1E40
0F00
1E00
B800
ENDCHAR
STARTCHAR uni04F1
ENCODING 1265
SWIDTH 568 0
DWIDTH 5 0
BBX 5 9 0 -2
BITMAP
2700
0000
A1C0
7280
3740
2E00
1D00
1C00
B400
ENDCHAR
STARTCHAR uni04F2
ENCODING 1266
SWIDTH 652 0
DWIDTH 6 0
BBX 6 10 0 0
BITMAP
0ED0
1A40
0000
A0A0
70D0
35C0
1E40
0F00
1E00
B800
ENDCHAR
STARTCHAR uni04F3
ENCODING 1267
SWIDTH 568 0
DWIDTH 5 0
BBX 5 10 0 -2
BITMAP
1E80
2600
0000
A1C0
7280
3740
2E00
1D00
1C00
B400
ENDCHAR
STARTCHAR uni04F4
ENCODING 1268
SWIDTH 728 0
DWIDTH 7 0
BBX 6 9 0 0
BITMAP
1940
0000
B0A0
B0A0
B0A0
75A0
2FE0
00A0
00A0
ENDCHAR
STARTCHAR uni04F5
ENCODING 1269
SWIDTH 655 0
DWIDTH 6 0
BBX 6 7 0 0
BITMAP
2640
0000
70D0
71D0
3ED0
00D0
00D0
ENDCHAR
STARTCHAR uni04F6
ENCODING 1270
SWIDTH 561 0
DWIDTH 5 0
BBX 5 9 0 -2
BITMAP
7FC0
7400
7400
7400
7400
7400
7D00
0900
0900
ENDCHAR
STARTCHAR uni04F7
ENCODING 1271
SWIDTH 478 0
DWIDTH 4 0
BBX 4 7 0 -2
BITMAP
7F
70
70
70
7D
0D
0D
ENDCHAR
STARTCHAR uni04F8
ENCODING 1272
SWIDTH 905 0
DWIDTH 8 0
BBX 8 9 0 0
BITMAP
0690
0000
740D
740D
740D
7F4D
75CD
75CD
7F4D
ENDCHAR
STARTCHAR uni04F9
ENCODING 1273
SWIDTH 850 0
DWIDTH 8 0
BBX 7 7 0 0
BITMAP
0990
0000
701C
701C
7F5C
72DC
7F5C
ENDCHAR
STARTCHAR uni04FA
ENCODING 1274
SWIDTH 559 0
DWIDTH 5 0
BBX 5 9 0 -2
BITMAP
7FC0
7400
7400
BF00
7400
7400
7D00
0D00
3D00
ENDCHAR
STARTCHAR uni04FB
ENCODING 1275
SWIDTH 491 0
DWIDTH 4 0
BBX 5 7 0 -2
BITMAP
7F40
7000
FD00
7000
7D00
1D00
3800
ENDCHAR
STARTCHAR uni04FC
ENCODING 1276
SWIDTH 731 0
DWIDTH 7 0
BBX 7 9 0 -2
BITMAP
B0E0
35C0
1F40
0F00
2B40
35C0
A0B4
0034
00F0
ENDCHAR
STARTCHAR uni04FD
ENCODING 1277
SWIDTH 645 0
DWIDTH 6 0
BBX 6 7 0 -2
BITMAP
B280
3B00
1E00
3B40
B2E0
00A0
02D0
ENDCHAR
STARTCHAR uni04FE
ENCODING 1278
SWIDTH 666 0
DWIDTH 6 0
BBX 6 7 0 0
BITMAP
B0E0
35C0
1F40
BFE0
2F80
35C0
A0A0
ENDCHAR
STARTCHAR uni04FF
ENCODING 1279
SWIDTH 578 0
DWIDTH 5 0
BBX 5 5 0 0
BITMAP
B280
3B00
BF80
3B40
B280
ENDCHAR
STARTCHAR uni0500
ENCODING 1280
SWIDTH 638 0
DWIDTH 6 0
BBX 5 7 0 0
BITMAP
01C0
01C0
01C0
2FC0
75C0
75C0
2FC0
ENDCHAR
STARTCHAR uni0501
ENCODING 1281
SWIDTH 632 0
DWIDTH 6 0
BBX 5 7 0 0
BITMAP
01C0
01C0
2EC0
76C0
A1C0
72C0
2EC0
ENDCHAR
STARTCHAR uni0502
ENCODING 1282
SWIDTH 925 0
DWIDTH 8 0
BBX 8 7 0 0
BITMAP
0280
0280
0280
2F8A
768A
B6DE
2EB8
ENDCHAR
STARTCHAR uni0503
ENCODING 1283
SWIDTH 922 0
DWIDTH 8 0
BBX 8 7 0 0
BITMAP
01C0
01C0
2EC0
76C0
A1CA
72DA
2EBD
ENDCHAR
STARTCHAR uni0504
ENCODING 1284
SWIDTH 913 0
DWIDTH 8 0
BBX 8 7 0 0
BITMAP
7E00
5740
0740
3E0D
038D
029D
01B8
ENDCHAR
STARTCHAR uni0505
ENCODING 1285
SWIDTH 870 0
DWIDTH 8 0
BBX 7 5 0 0
BITMAP
7E00
0340
2E1C
039C
02F8
ENDCHAR
STARTCHAR uni0506
ENCODING 1286
SWIDTH 701 0
DWIDTH 6 0
BBX 6 9 0 -2
BITMAP
7E00
5380
0340
3E00
0280
02D0
02F0
0070
0070
ENDCHAR
STARTCHAR uni0507
ENCODING 1287
SWIDTH 661 0
DWIDTH 6 0
BBX 6 7 0 -2
BITMAP
7E00
0340
2F00
0280
02E0
0060
0060
ENDCHAR
STARTCHAR uni0508
ENCODING 1288
SWIDTH 1033 0
DWIDTH 9 0
BBX 9 7 0 0
BITMAP
1FE000
1CA000
18A000
28A280
28A280
74B740
E02E00
ENDCHAR
STARTCHAR uni0509
ENCODING 1289
SWIDTH 935 0
DWIDTH 8 0
BBX 8 5 0 0
BITMAP
2FC0
25C0
35CA
71DA
E0BD
ENDCHAR
STARTCHAR uni050A
ENCODING 1290
SWIDTH 1042 0
DWIDTH 9 0
BBX 9 7 0 0
BITMAP
747000
747000
747000
7FF280
74B280
747780
742E00
ENDCHAR
STARTCHAR uni050B
ENCODING 1291
SWIDTH 952 0
DWIDTH 9 0
BBX 8 5 0 0
BITMAP
71D0
71D0
7FD7
70DB
70BD
ENDCHAR
STARTCHAR uni050C
ENCODING 1292
SWIDTH 799 0
DWIDTH 7 0
BBX 7 7 0 0
BITMAP
1BE0
3950
7000
71F8
7038
3974
1BD0
ENDCHAR
STARTCHAR uni050D
ENCODING 1293
SWIDTH 663 0
DWIDTH 6 0
BBX 6 5 0 0
BITMAP
2F80
7440
A3E0
75D0
2F80
ENDCHAR
STARTCHAR uni050E
ENCODING 1294
SWIDTH 757 0
DWIDTH 7 0
BBX 6 7 0 0
BITMAP
BFC0
1D00
0D00
0D70
0D70
0DB0
07D0
ENDCHAR
STARTCHAR uni050F
ENCODING 1295
SWIDTH 733 0
DWIDTH 7 0
BBX 6 5 0 0
BITMAP
BF80
1C00
1C70
0DB0
0BD0
ENDCHAR
STARTCHAR uni0510
ENCODING 1296
SWIDTH 647 0
DWIDTH 6 0
BBX 6 7 0 0
BITMAP
2F80
7540
7400
2F40
7400
B550
2FD0
ENDCHAR
STARTCHAR uni0511
ENCODING 1297
SWIDTH 556 0
DWIDTH 5 0
BBX 5 5 0 0
BITMAP
2F40
7000
3E00
A040
7F40
ENDCHAR
STARTCHAR uni0512
ENCODING 1298
SWIDTH 817 0
DWIDTH 7 0
BBX 8 9 0 -2
BITMAP
1FF0
1CB0
1870
2870
2870
7470
E07D
001D
0038
ENDCHAR
STARTCHAR uni0513
ENCODING 1299
SWIDTH 724 0
DWIDTH 7 0
BBX 7 7 0 -2
BITMAP
2FC0
25C0
35C0
71C0
E1F4
0034
00F0
ENDCHAR
STARTCHAR uni1E00
ENCODING 7680
SWIDTH 689 0
DWIDTH 6 0
BBX 6 10 0 -3
BITMAP
0F00
1E40
2980
35C0
7FD0
B0A0
E070
0000
0A00
0A00
ENDCHAR
STARTCHAR uni1E01
ENCODING 7681
SWIDTH 604 0
DWIDTH 5 0
BBX 5 8 0 -3
BITMAP
2F40
1280
6B80
B280
7E80
0000
1900
1900
ENDCHAR
STARTCHAR uni1E3E
ENCODING 7742
SWIDTH 942 0
DWIDTH 8 0
BBX 8 10 0 0
BITMAP
00A0
0180
0000
781E
7C2E
793A
767A
77AA
73DA
72CA
ENDCHAR
STARTCHAR uni1E3F
ENCODING 7743
SWIDTH 981 0
DWIDTH 9 0
BBX 9 8 0 0
BITMAP
00A000
01C000
000000
7BAE00
75D700
71C740
71C740
71C740
ENDCHAR
STARTCHAR Wgrave
ENCODING 7808
SWIDTH 966 0
DWIDTH 9 0
BBX 9 10 0 0
BITMAP
074000
01C000
000000
D1C280
A2D340
73A300
776700
3A3A00
2E3D00
1D2D00
ENDCHAR
STARTCHAR wgrave
ENCODING 7809
SWIDTH 855 0
DWIDTH 8 0
BBX 8 8 0 0
BITMAP
0A00
0240
0000
A38D
66CD
79AC
3DB8
2C74
ENDCHAR
STARTCHAR Wacute
ENCODING 7810
SWIDTH 966 0
DWIDTH 9 0
BBX 9 10 0 0
BITMAP
00A000
018000
000000
D1C280
A2D340
73A300
776700
3A3A00
2E3D00
1D2D00
ENDCHAR
STARTCHAR wacute
ENCODING 7811
SWIDTH 855 0
DWIDTH 8 0
BBX 8 8 0 0
BITMAP
01D0
0240
0000
A38D
66CD
79AC
3DB8
2C74
ENDCHAR
STARTCHAR Wdieresis
ENCODING 7812
SWIDTH 966 0
DWIDTH 9 0
BBX 9 9 0 0
BITMAP
036000
000000
D1C280
A2D340
73A300
776700
3A3A00
2E3D00
1D2D00
ENDCHAR
STARTCHAR wdieresis
ENCODING 7813
SWIDTH 855 0
DWIDTH 8 0
BBX 8 7 0 0
BITMAP
0990
0000
A38D
66CD
79AC
3DB8
2C74
ENDCHAR
STARTCHAR uni1EA0
ENCODING 7840
SWIDTH 689 0
DWIDTH 6 0
BBX 6 9 0 -2
BITMAP
0F00
1E40
2980
35C0
7FD0
B0A0
E070
0000
0600
ENDCHAR
STARTCHAR uni1EA1
ENCODING 7841
SWIDTH 604 0
DWIDTH 5 0
BBX 5 8 0 -3
BITMAP
2F40
1280
6B80
B280
7E80
0000
0D00
0400
ENDCHAR
STARTCHAR uni1EA2
ENCODING 7842
SWIDTH 689 0
DWIDTH 6 0
BBX 6 10 0 0
BITMAP
0B00
0500
0000
0F00
1E40
2980
35C0
7FD0
B0A0
E070
ENDCHAR
STARTCHAR uni1EA3
ENCODING 7843
SWIDTH 604 0
DWIDTH 5 0
BBX 5 8 0 0
BITMAP
0A00
0800
0000
2F40
1280
6B80
B280
7E80
ENDCHAR
STARTCHAR uni1EA4
ENCODING 7844
SWIDTH 689 0
DWIDTH 6 0
BBX 6 10 0 0
BITMAP
0B60
1980
0000
0F00
1E40
2980
35C0
7FD0
B0A0
E070
ENDCHAR
STARTCHAR uni1EA5
ENCODING 7845
SWIDTH 604 0
DWIDTH 5 0
BBX 6 8 0 0
BITMAP
1E90
2200
0000
2F40
1280
6B80
B280
7E80
ENDCHAR
STARTCHAR uni1EA6
ENCODING 7846
SWIDTH 689 0
DWIDTH 6 0
BBX 6 10 0 0
BITMAP
6B00
1980
0000
0F00
1E40
2980
35C0
7FD0
B0A0
E070
ENDCHAR
STARTCHAR uni1EA7
ENCODING 7847
SWIDTH 604 0
DWIDTH 5 0
BBX 5 8 0 0
BITMAP
9E00
2240
0000
2F40
1280
6B80
B280
7E80
ENDCHAR
STARTCHAR uni1EA8
ENCODING 7848
SWIDTH 689 0
DWIDTH 6 0
BBX 6 11 0 0
BITMAP
0050
0B90
1980
0000
0F00
1E40
2980
35C0
7FD0
B0A0
E070
ENDCHAR
STARTCHAR uni1EA9
ENCODING 7849
SWIDTH 604 0
DWIDTH 5 0
BBX 5 9 0 0
BITMAP
0080
1E80
2640
0000
2F40
1280
6B80
B280
7E80
ENDCHAR
STARTCHAR uni1EAA
ENCODING 7850
SWIDTH 689 0
DWIDTH 6 0
BBX 6 11 0 0
BITMAP
1A40
0A00
1580
0000
0F00
1E40
2980
35C0
7FD0
B0A0
E070
ENDCHAR
STARTCHAR uni1EAB
ENCODING 7851
SWIDTH 604 0
DWIDTH 5 0
BBX 5 9 0 0
BITMAP
2A00
0E00
2200
0000
2F40
1280
6B80
B280
7E80
ENDCHAR
STARTCHAR uni1EAC
ENCODING 7852
SWIDTH 689 0
DWIDTH 6 0
BBX 6 12 0 -2
BITMAP
0F40
2980
0000
0F00
1E40
2980
35C0
7FD0
B0A0
E070
0000
0600
ENDCHAR
STARTCHAR uni1EAD
ENCODING 7853
SWIDTH 604 0
DWIDTH 5 0
BBX 5 11 0 -3
BITMAP
1E00
3240
0000
2F40
1280
6B80
B280
7E80
0000
0D00
0400
ENDCHAR
STARTCHAR uni1EAE
ENCODING 7854
SWIDTH 689 0
DWIDTH 6 0
BBX 6 11 0 0
BITMAP
0300
1580
0A40
0000
0F00
1E40
2980
35C0
7FD0
B0A0
E070
ENDCHAR
STARTCHAR uni1EAF
ENCODING 7855
SWIDTH 604 0
DWIDTH 5 0
BBX 5 9 0 0
BITMAP
0600
2640
1A00
0000
2F40
1280
6B80
B280
7E80
ENDCHAR
STARTCHAR uni1EB0
ENCODING 7856
SWIDTH 689 0
DWIDTH 6 0
BBX 6 11 0 0
BITMAP
0900
1580
0A40
0000
0F00
1E40
2980
35C0
7FD0
B0A0
E070
ENDCHAR
STARTCHAR uni1EB1
ENCODING 7857
SWIDTH 604 0
DWIDTH 5 0
BBX 5 9 0 0
BITMAP
0800
2640
1A00
0000
2F40
1280
6B80
B280
7E80
ENDCHAR
STARTCHAR uni1EB2
ENCODING 7858
SWIDTH 689 0
DWIDTH 6 0
BBX 6 11 0 0
BITMAP
0600
1980
0A40
0000
0F00
1E40
2980
35C0
7FD0
B0A0
E070
ENDCHAR
STARTCHAR uni1EB3
ENCODING 7859
SWIDTH 604 0
DWIDTH 5 0
BBX 5 9 0 0
BITMAP
0900
2A40
1A00
0000
2F40
1280
6B80
B280
7E80
ENDCHAR
STARTCHAR uni1EB4
ENCODING 7860
SWIDTH 689 0
DWIDTH 6 0
BBX 6 12 0 0
BITMAP
0840
1640
1480
0A40
0000
0F00
1E40
2980
35C0
7FD0
B0A0
E070
ENDCHAR
STARTCHAR uni1EB5
ENCODING 7861
SWIDTH 604 0
DWIDTH 5 0
BBX 5 10 0 0
BITMAP
1540
1200
2140
1A00
0000
2F40
1280
6B80
B280
7E80
ENDCHAR
STARTCHAR uni1EB6
ENCODING 7862
SWIDTH 689 0
DWIDTH 6 0
BBX 6 11 0 -2
BITMAP
1040
1F40
0500
0F40
1E80
29C0
3AD0
75A0
A070
0100
0600
ENDCHAR
STARTCHAR uni1EB7
ENCODING 7863
SWIDTH 604 0
DWIDTH 5 0
BBX 5 11 0 -3
BITMAP
2140
1E00
0000
2F40
1280
6B80
B280
7E80
0000
0D00
0400
ENDCHAR
STARTCHAR uni1EB8
ENCODING 7864
SWIDTH 560 0
DWIDTH 5 0
BBX 5 10 0 -3
BITMAP
7F80
7400
7400
7F40
7400
7400
7F80
0000
0D00
0400
ENDCHAR
STARTCHAR uni1EB9
ENCODING 7865
SWIDTH 590 0
DWIDTH 5 0
BBX 5 8 0 -3
BITMAP
2F40
7180
BF80
7000
2F80
0000
0D00
0400
ENDCHAR
STARTCHAR uni1EBA
ENCODING 7866
SWIDTH 560 0
DWIDTH 5 0
BBX 5 10 0 0
BITMAP
0A00
0800
0000
7F80
7400
7400
7F40
7400
7400
7F80
ENDCHAR
STARTCHAR uni1EBB
ENCODING 7867
SWIDTH 590 0
DWIDTH 5 0
BBX 5 8 0 0
BITMAP
0A00
0900
0000
2F40
7180
BF80
7000
2F80
ENDCHAR
STARTCHAR uni1EBC
ENCODING 7868
SWIDTH 560 0
DWIDTH 5 0
BBX 5 10 0 0
BITMAP
2940
2700
0000
7F80
7400
7400
7F40
7400
7400
7F80
ENDCHAR
STARTCHAR uni1EBD
ENCODING 7869
SWIDTH 590 0
DWIDTH 5 0
BBX 5 8 0 0
BITMAP
2940
2700
0000
2F40
7180
BF80
7000
2F80
ENDCHAR
STARTCHAR uni1EBE
ENCODING 7870
SWIDTH 560 0
DWIDTH 5 0
BBX 6 10 0 0
BITMAP
1E90
2200
0000
7F80
7400
7400
7F40
7400
7400
7F80
ENDCHAR
STARTCHAR uni1EBF
ENCODING 7871
SWIDTH 590 0
DWIDTH 5 0
BBX 6 8 0 0
BITMAP
1E90
2640
0000
2F40
7180
BF80
7000
2F80
ENDCHAR
STARTCHAR uni1EC0
ENCODING 7872
SWIDTH 560 0
DWIDTH 5 0
BBX 5 10 0 0
BITMAP
9E00
2200
0000
7F80
7400
7400
7F40
7400
7400
7F80
ENDCHAR
STARTCHAR uni1EC1
ENCODING 7873
SWIDTH 590 0
DWIDTH 5 0
BBX 5 8 0 0
BITMAP
9E00
2640
0000
2F40
7180
BF80
7000
2F80
ENDCHAR
STARTCHAR uni1EC2
ENCODING 7874
SWIDTH 560 0
DWIDTH 5 0
BBX 5 11 0 0
BITMAP
0080
1E80
2200
0000
7F80
7400
7400
7F40
7400
7400
7F80
ENDCHAR
STARTCHAR uni1EC3
ENCODING 7875
SWIDTH 590 0
DWIDTH 5 0
BBX 5 9 0 0
BITMAP
0080
1E80
2640
0000
2F40
7180
BF80
7000
2F80
ENDCHAR
STARTCHAR uni1EC4
ENCODING 7876
SWIDTH 560 0
DWIDTH 5 0
BBX 5 11 0 0
BITMAP
2A00
1E00
2200
0000
7F80
7400
7400
7F40
7400
7400
7F80
ENDCHAR
STARTCHAR uni1EC5
ENCODING 7877
SWIDTH 590 0
DWIDTH 5 0
BBX 5 9 0 0
BITMAP
1A00
0E00
2640
0000
2F40
7180
BF80
7000
2F80
ENDCHAR
STARTCHAR uni1EC6
ENCODING 7878
SWIDTH 560 0
DWIDTH 5 0
BBX 5 13 0 -3
BITMAP
1E00
3240
0000
7F80
7400
7400
7F40
7400
7400
7F80
0000
0D00
0400
ENDCHAR
STARTCHAR uni1EC7
ENCODING 7879
SWIDTH 590 0
DWIDTH 5 0
BBX 5 11 0 -3
BITMAP
1E00
3240
0000
2F40
7180
BF80
7000
2F80
0000
0D00
0400
ENDCHAR
STARTCHAR uni1EC8
ENCODING 7880
SWIDTH 331 0
DWIDTH 3 0
BBX 3 10 0 0
BITMAP
74
20
00
74
74
74
74
74
74
74
ENDCHAR
STARTCHAR uni1EC9
ENCODING 7881
SWIDTH 305 0
DWIDTH 3 0
BBX 3 8 0 0
BITMAP
74
20
00
70
70
70
70
70
ENDCHAR
STARTCHAR uni1ECA
ENCODING 7882
SWIDTH 331 0
DWIDTH 3 0
BBX 3 10 0 -3
BITMAP
74
74
74
74
74
74
74
00
30
10
ENDCHAR
STARTCHAR uni1ECB
ENCODING 7883
SWIDTH 305 0
DWIDTH 3 0
BBX 2 10 0 -3
BITMAP
70
10
70
70
70
70
70
00
70
10
ENDCHAR
STARTCHAR uni1ECC
ENCODING 7884
SWIDTH 795 0
DWIDTH 7 0
BBX 7 10 0 -3
BITMAP
1BD0
39B4
7038
7028
7038
39B4
1BD0
0000
0340
0100
ENDCHAR
STARTCHAR uni1ECD
ENCODING 7885
SWIDTH 619 0
DWIDTH 6 0
BBX 5 8 0 -3
BITMAP
2F40
76C0
A1C0
76C0
2F40
0000
0900
0400
ENDCHAR
STARTCHAR uni1ECE
ENCODING 7886
SWIDTH 795 0
DWIDTH 7 0
BBX 7 10 0 0
BITMAP
0740
0200
0000
1BD0
39B4
7038
7028
7038
39B4
1BD0
ENDCHAR
STARTCHAR uni1ECF
ENCODING 7887
SWIDTH 619 0
DWIDTH 6 0
BBX 5 8 0 0
BITMAP
0A00
0900
0000
2F40
76C0
A1C0
76C0
2F40
ENDCHAR
STARTCHAR uni1ED0
ENCODING 7888
SWIDTH 795 0
DWIDTH 7 0
BBX 7 10 0 0
BITMAP
07A0
0880
0000
1BD0
39B4
7038
7028
7038
39B4
1BD0
ENDCHAR
STARTCHAR uni1ED1
ENCODING 7889
SWIDTH 619 0
DWIDTH 6 0
BBX 6 8 0 0
BITMAP
1E90
2640
0000
2F40
76C0
A1C0
76C0
2F40
ENDCHAR
STARTCHAR uni1ED2
ENCODING 7890
SWIDTH 795 0
DWIDTH 7 0
BBX 7 10 0 0
BITMAP
2780
0880
0000
1BD0
39B4
7038
7028
7038
39B4
1BD0
ENDCHAR
STARTCHAR uni1ED3
ENCODING 7891
SWIDTH 619 0
DWIDTH 6 0
BBX 5 8 0 0
BITMAP
9E00
2640
0000
2F40
76C0
A1C0
76C0
2F40
ENDCHAR
STARTCHAR uni1ED4
ENCODING 7892
SWIDTH 795 0
DWIDTH 7 0
BBX 7 11 0 0
BITMAP
0020
07A0
0880
0000
1BD0
39B4
7038
7028
7038
39B4
1BD0
ENDCHAR
STARTCHAR uni1ED5
ENCODING 7893
SWIDTH 619 0
DWIDTH 6 0
BBX 5 9 0 0
BITMAP
0080
1E80
2640
0000
2F40
76C0
A1C0
76C0
2F40
ENDCHAR
STARTCHAR uni1ED6
ENCODING 7894
SWIDTH 795 0
DWIDTH 7 0
BBX 7 11 0 0
BITMAP
0A80
0740
0880
0000
1BD0
39B4
7038
7028
7038
39B4
1BD0
ENDCHAR
STARTCHAR uni1ED7
ENCODING 7895
SWIDTH 619 0
DWIDTH 6 0
BBX 5 9 0 0
BITMAP
1A00
0E00
2640
0000
2F40
76C0
A1C0
76C0
2F40
ENDCHAR
STARTCHAR uni1ED8
ENCODING 7896
SWIDTH 795 0
DWIDTH 7 0
BBX 7 13 0 -3
BITMAP
0780
0C90
0000
1BD0
39B4
7038
7028
7038
39B4
1BD0
0000
0340
0100
ENDCHAR
STARTCHAR uni1ED9
ENCODING 7897
SWIDTH 619 0
DWIDTH 6 0
BBX 5 11 0 -3
BITMAP
1E00
3640
0000
2F40
76C0
A1C0
76C0
2F40
0000
0900
0400
ENDCHAR
STARTCHAR uni1EDA
ENCODING 7898
SWIDTH 825 0
DWIDTH 7 0
BBX 8 10 0 0
BITMAP
02C0
0300
000A
1BDD
39B8
7038
7028
7038
39B4
1BD0
ENDCHAR
STARTCHAR uni1EDB
ENCODING 7899
SWIDTH 679 0
DWIDTH 6 0
BBX 7 8 0 0
BITMAP
0740
0900
0034
2FB0
76C0
A1C0
76C0
2F40
ENDCHAR
STARTCHAR uni1EDC
ENCODING 7900
SWIDTH 825 0
DWIDTH 7 0
BBX 8 10 0 0
BITMAP
0A00
0340
000A
1BDD
39B8
7038
7028
7038
39B4
1BD0
ENDCHAR
STARTCHAR uni1EDD
ENCODING 7901
SWIDTH 679 0
DWIDTH 6 0
BBX 7 8 0 0
BITMAP
2800
0900
0034
2FB0
76C0
A1C0
76C0
2F40
ENDCHAR
STARTCHAR uni1EDE
ENCODING 7902
SWIDTH 825 0
DWIDTH 7 0
BBX 8 10 0 0
BITMAP
0280
0200
000A
1BDD
39B8
7038
7028
7038
39B4
1BD0
ENDCHAR
STARTCHAR uni1EDF
ENCODING 7903
SWIDTH 679 0
DWIDTH 6 0
BBX 7 8 0 0
BITMAP
0A00
0500
0034
2FB0
76C0
A1C0
76C0
2F40
ENDCHAR
STARTCHAR uni1EE0
ENCODING 7904
SWIDTH 825 0
DWIDTH 7 0
BBX 8 10 0 0
BITMAP
0A50
09C0
000A
1BDD
39B8
7038
7028
7038
39B4
1BD0
ENDCHAR
STARTCHAR uni1EE1
ENCODING 7905
SWIDTH 679 0
DWIDTH 6 0
BBX 7 8 0 0
BITMAP
2880
2740
0034
2FB0
76C0
A1C0
76C0
2F40
ENDCHAR
STARTCHAR uni1EE2
ENCODING 7906
SWIDTH 825 0
DWIDTH 7 0
BBX 8 11 0 -3
BITMAP
000A
1BDD
39B8
7038
7028
7038
39B4
1BD0
0000
0340
0100
ENDCHAR
STARTCHAR uni1EE3
ENCODING 7907
SWIDTH 679 0
DWIDTH 6 0
BBX 7 9 0 -3
BITMAP
0034
2FB0
76C0
A1C0
76C0
2F40
0000
0900
0400
ENDCHAR
STARTCHAR uni1EE4
ENCODING 7908
SWIDTH 755 0
DWIDTH 7 0
BBX 6 10 0 -3
BITMAP
7070
7070
7070
7070
7070
39A0
1F90
0000
0700
0100
ENDCHAR
STARTCHAR uni1EE5
ENCODING 7909
SWIDTH 657 0
DWIDTH 6 0
BBX 6 7 0 -2
BITMAP
70D0
70D0
70D0
75D0
2ED0
0000
0A00
ENDCHAR
STARTCHAR uni1EE6
ENCODING 7910
SWIDTH 755 0
DWIDTH 7 0
BBX 6 10 0 0
BITMAP
0740
0200
0000
7070
7070
7070
7070
7070
39A0
1F90
ENDCHAR
STARTCHAR uni1EE7
ENCODING 7911
SWIDTH 657 0
DWIDTH 6 0
BBX 6 8 0 0
BITMAP
0A00
0500
0000
70D0
70D0
70D0
75D0
2ED0
ENDCHAR
STARTCHAR uni1EE8
ENCODING 7912
SWIDTH 884 0
DWIDTH 8 0
BBX 8 10 0 0
BITMAP
02C0
0300
0007
707A
7078
7070
7070
7070
39A0
1F90
ENDCHAR
STARTCHAR uni1EE9
ENCODING 7913
SWIDTH 759 0
DWIDTH 7 0
BBX 8 8 0 0
BITMAP
0340
0A00
001D
70EC
70E0
70D0
75D0
2ED0
ENDCHAR
STARTCHAR uni1EEA
ENCODING 7914
SWIDTH 884 0
DWIDTH 8 0
BBX 8 10 0 0
BITMAP
1D00
0700
0007
707A
7078
7070
7070
7070
39A0
1F90
ENDCHAR
STARTCHAR uni1EEB
ENCODING 7915
SWIDTH 759 0
DWIDTH 7 0
BBX 8 8 0 0
BITMAP
2800
0900
001D
70EC
70E0
70D0
75D0
2ED0
ENDCHAR
STARTCHAR uni1EEC
ENCODING 7916
SWIDTH 884 0
DWIDTH 8 0
BBX 8 10 0 0
BITMAP
0740
0200
0007
707A
7078
7070
7070
7070
39A0
1F90
ENDCHAR
STARTCHAR uni1EED
ENCODING 7917
SWIDTH 759 0
DWIDTH 7 0
BBX 8 8 0 0
BITMAP
0A00
0500
001D
70EC
70E0
70D0
75D0
2ED0
ENDCHAR
STARTCHAR uni1EEE
ENCODING 7918
SWIDTH 884 0
DWIDTH 8 0
BBX 8 10 0 0
BITMAP
0D80
1680
0007
707A
7078
7070
7070
7070
39A0
1F90
ENDCHAR
STARTCHAR uni1EEF
ENCODING 7919
SWIDTH 759 0
DWIDTH 7 0
BBX 8 8 0 0
BITMAP
1880
2340
001D
70EC
70E0
70D0
75D0
2ED0
ENDCHAR
STARTCHAR uni1EF0
ENCODING 7920
SWIDTH 884 0
DWIDTH 8 0
BBX 8 11 0 -3
BITMAP
0007
707A
7078
7070
7070
7070
39A0
1F90
0000
0700
0100
ENDCHAR
STARTCHAR uni1EF1
ENCODING 7921
SWIDTH 759 0
DWIDTH 7 0
BBX 8 8 0 -2
BITMAP
001D
70EC
70E0
70D0
75D0
2ED0
0000
0900
ENDCHAR
STARTCHAR Ygrave
ENCODING 7922
SWIDTH 624 0
DWIDTH 6 0
BBX 6 10 0 0
BITMAP
2800
0D00
0000
A0D0
76C0
2B40
1E00
0D00
0D00
0D00
ENDCHAR
STARTCHAR ygrave
ENCODING 7923
SWIDTH 568 0
DWIDTH 5 0
BBX 5 10 0 -2
BITMAP
3400
1C00
0000
A1C0
7280
3740
2E00
1D00
1C00
B400
ENDCHAR
STARTCHAR uni1EF4
ENCODING 7924
SWIDTH 624 0
DWIDTH 6 0
BBX 6 10 0 -3
BITMAP
A0D0
76C0
2B40
1E00
0D00
0D00
0D00
0000
0900
0400
ENDCHAR
STARTCHAR uni1EF5
ENCODING 7925
SWIDTH 568 0
DWIDTH 5 0
BBX 5 8 0 -3
BITMAP
A1C0
7280
3740
2E00
1D00
1C00
B5C0
0040
ENDCHAR
STARTCHAR uni1EF6
ENCODING 7926
SWIDTH 624 0
DWIDTH 6 0
BBX 6 10 0 0
BITMAP
0A00
0900
0000
A0D0
76C0
2B40
1E00
0D00
0D00
0D00
ENDCHAR
STARTCHAR uni1EF7
ENCODING 7927
SWIDTH 568 0
DWIDTH 5 0
BBX 5 10 0 -2
BITMAP
1D00
0800
0000
A1C0
7280
3740
2E00
1D00
1C00
B400
ENDCHAR
STARTCHAR uni1EF8
ENCODING 7928
SWIDTH 624 0
DWIDTH 6 0
BBX 6 10 0 0
BITMAP
2980
2740
0000
A0D0
76C0
2B40
1E00
0D00
0D00
0D00
ENDCHAR
STARTCHAR uni1EF9
ENCODING 7929
SWIDTH 568 0
DWIDTH 5 0
BBX 5 10 0 -2
BITMAP
2940
2700
0000
A1C0
7280
3740
2E00
1D00
1C00
B400
ENDCHAR
STARTCHAR uni1F4D
ENCODING 8013
SWIDTH 835 0
DWIDTH 8 0
BBX 9 7 -2 0
BITMAP
58BE00
02D780
0342C0
0341C0
0342C0
02D780
00BE00
ENDCHAR
STARTCHAR uni2000
ENCODING 8192
SWIDTH 500 0
DWIDTH 5 0
BBX 1 1 0 0
BITMAP
00
ENDCHAR
STARTCHAR uni2001
ENCODING 8193
SWIDTH 1000 0
DWIDTH 9 0
BBX 1 1 0 0
BITMAP
00
ENDCHAR
STARTCHAR uni2002
ENCODING 8194
SWIDTH 500 0
DWIDTH 5 0
BBX 1 1 0 0
BITMAP
00
ENDCHAR
STARTCHAR uni2003
ENCODING 8195
SWIDTH 1000 0
DWIDTH 9 0
BBX 1 1 0 0
BITMAP
00
ENDCHAR
STARTCHAR uni2004
ENCODING 8196
SWIDTH 333 0
DWIDTH 3 0
BBX 1 1 0 0
BITMAP
00
ENDCHAR
STARTCHAR uni2005
ENCODING 8197
SWIDTH 250 0
DWIDTH 2 0
BBX 1 1 0 0
BITMAP
00
ENDCHAR
STARTCHAR uni2006
ENCODING 8198
SWIDTH 166 0
DWIDTH 2 0
BBX 1 1 0 0
BITMAP
00
ENDCHAR
STARTCHAR uni2007
ENCODING 8199
SWIDTH 559 0
DWIDTH 5 0
BBX 1 1 0 0
BITMAP
00
ENDCHAR
STARTCHAR uni2008
ENCODING 8200
SWIDTH 285 0
DWIDTH 3 0
BBX 1 1 0 0
BITMAP
00
ENDCHAR
STARTCHAR uni2009
ENCODING 8201
SWIDTH 200 0
DWIDTH 2 0
BBX 1 1 0 0
BITMAP
00
ENDCHAR
STARTCHAR uni200A
ENCODING 8202
SWIDTH 100 0
DWIDTH 1 0
BBX 1 1 0 0
BITMAP
00
ENDCHAR
STARTCHAR uni200B
ENCODING 8203
SWIDTH 0 0
DWIDTH 0 0
BBX 1 1 0 0
BITMAP
00
ENDCHAR
STARTCHAR endash
ENCODING 8211
SWIDTH 500 0
DWIDTH 5 0
BBX 4 1 0 2
BITMAP
BF
ENDCHAR
STARTCHAR emdash
ENCODING 8212
SWIDTH 1000 0
DWIDTH 9 0
BBX 9 1 0 2
BITMAP
BFFF80
ENDCHAR
STARTCHAR afii00208
ENCODING 8213
SWIDTH 1000 0
DWIDTH 9 0
BBX 9 1 0 2
BITMAP
BFFF80
ENDCHAR
STARTCHAR underscoredbl
ENCODING 8215
SWIDTH 411 0
DWIDTH 4 0
BBX 4 2 0 -2
BITMAP
A9
A9
ENDCHAR
STARTCHAR quoteleft
ENCODING 8216
SWIDTH 216 0
DWIDTH 2 0
BBX 2 2 0 5
BITMAP
60
A0
ENDCHAR
STARTCHAR quoteright
ENCODING 8217
SWIDTH 216 0
DWIDTH 2 0
BBX 2 2 0 5
BITMAP
A0
90
ENDCHAR
STARTCHAR quotesinglbase
ENCODING 8218
SWIDTH 291 0
DWIDTH 3 0
BBX 2 2 0 -1
BITMAP
70
90
ENDCHAR
STARTCHAR quotereversed
ENCODING 8219
SWIDTH 215 0
DWIDTH 2 0
BBX 2 2 0 5
BITMAP
A0
60
ENDCHAR
STARTCHAR quotedblleft
ENCODING 8220
SWIDTH 444 0
DWIDTH 4 0
BBX 4 2 0 5
BITMAP
66
AA
ENDCHAR
STARTCHAR quotedblright
ENCODING 8221
SWIDTH 444 0
DWIDTH 4 0
BBX 4 2 0 5
BITMAP
A6
99
ENDCHAR
STARTCHAR quotedblbase
ENCODING 8222
SWIDTH 518 0
DWIDTH 5 0
BBX 4 2 0 -1
BITMAP
77
9A
ENDCHAR
STARTCHAR dagger
ENCODING 8224
SWIDTH 516 0
DWIDTH 5 0
BBX 4 7 0 0
BITMAP
18
08
7F
08
18
18
1C
ENDCHAR
STARTCHAR daggerdbl
ENCODING 8225
SWIDTH 525 0
DWIDTH 5 0
BBX 5 7 0 0
BITMAP
1C00
0800
7F40
0C00
7F40
0800
1C00
ENDCHAR
STARTCHAR bullet
ENCODING 8226
SWIDTH 375 0
DWIDTH 3 0
BBX 3 3 0 2
BITMAP
78
BC
78
ENDCHAR
STARTCHAR ellipsis
ENCODING 8230
SWIDTH 854 0
DWIDTH 8 0
BBX 7 2 0 0
BITMAP
1144
725C
ENDCHAR
STARTCHAR perthousand
ENCODING 8240
SWIDTH 1280 0
DWIDTH 12 0
BBX 12 7 0 0
BITMAP
783000
9D6000
9DC000
7AAD78
03769D
0A369D
0C2D78
ENDCHAR
STARTCHAR minute
ENCODING 8242
SWIDTH 266 0
DWIDTH 2 0
BBX 2 2 0 5
BITMAP
60
60
ENDCHAR
STARTCHAR second
ENCODING 8243
SWIDTH 472 0
DWIDTH 4 0
BBX 4 2 0 5
BITMAP
6A
66
ENDCHAR
STARTCHAR guilsinglleft
ENCODING 8249
SWIDTH 368 0
DWIDTH 3 0
BBX 3 5 0 0
BITMAP
18
34
B0
34
18
ENDCHAR
STARTCHAR guilsinglright
ENCODING 8250
SWIDTH 368 0
DWIDTH 3 0
BBX 3 5 0 0
BITMAP
60
34
28
34
60
ENDCHAR
STARTCHAR exclamdbl
ENCODING 8252
SWIDTH 569 0
DWIDTH 5 0
BBX 5 7 0 0
BITMAP
7380
7380
7240
7240
6240
1100
7240
ENDCHAR
STARTCHAR fraction
ENCODING 8260
SWIDTH 129 0
DWIDTH 1 0
BBX 5 7 -2 0
BITMAP
0180
0300
0600
0C00
1800
3000
6000
ENDCHAR
STARTCHAR zerosuperior
ENCODING 8304
SWIDTH 378 0
DWIDTH 3 0
BBX 4 4 0 3
BITMAP
78
9D
9D
78
ENDCHAR
STARTCHAR foursuperior
ENCODING 8308
SWIDTH 378 0
DWIDTH 3 0
BBX 4 4 0 3
BITMAP
28
28
98
AD
ENDCHAR
STARTCHAR fivesuperior
ENCODING 8309
SWIDTH 378 0
DWIDTH 3 0
BBX 3 4 0 3
BITMAP
78
68
0C
68
ENDCHAR
STARTCHAR sixsuperior
ENCODING 8310
SWIDTH 378 0
DWIDTH 3 0
BBX 3 4 0 3
BITMAP
18
AC
9C
78
ENDCHAR
STARTCHAR sevensuperior
ENCODING 8311
SWIDTH 378 0
DWIDTH 3 0
BBX 3 4 0 3
BITMAP
AC
08
24
30
ENDCHAR
STARTCHAR eightsuperior
ENCODING 8312
SWIDTH 378 0
DWIDTH 3 0
BBX 3 4 0 3
BITMAP
68
68
AC
68
ENDCHAR
STARTCHAR ninesuperior
ENCODING 8313
SWIDTH 378 0
DWIDTH 3 0
BBX 3 4 0 3
BITMAP
78
9C
AC
64
ENDCHAR
STARTCHAR nsuperior
ENCODING 8319
SWIDTH 422 0
DWIDTH 4 0
BBX 4 3 0 4
BITMAP
AD
95
95
ENDCHAR
STARTCHAR franc
ENCODING 8355
SWIDTH 570 0
DWIDTH 5 0
BBX 5 7 0 0
BITMAP
7F80
7400
7000
7F80
7400
B900
7000
ENDCHAR
STARTCHAR afii08941
ENCODING 8356
SWIDTH 570 0
DWIDTH 5 0
BBX 5 7 0 0
BITMAP
1F80
2800
3400
7E00
7E00
7400
BFC0
ENDCHAR
STARTCHAR peseta
ENCODING 8359
SWIDTH 892 0
DWIDTH 8 0
BBX 8 7 0 0
BITMAP
7E40
7680
71D8
76FE
7E28
7028
701E
ENDCHAR
STARTCHAR uni20AB
ENCODING 8363
SWIDTH 648 0
DWIDTH 6 0
BBX 6 8 0 -1
BITMAP
01C0
0BE0
2EC0
76C0
B1C0
76C0
2EC0
2A40
ENDCHAR
STARTCHAR Euro
ENCODING 8364
SWIDTH 570 0
DWIDTH 5 0
BBX 5 7 0 0
BITMAP
1B80
3840
BA00
7000
BE00
3940
1B80
ENDCHAR
STARTCHAR afii61248
ENCODING 8453
SWIDTH 794 0
DWIDTH 7 0
BBX 7 7 0 0
BITMAP
64A0
90C0
6A40
0300
09A4
0CCC
24A4
ENDCHAR
STARTCHAR afii61289
ENCODING 8467
SWIDTH 520 0
DWIDTH 5 0
BBX 5 7 0 0
BITMAP
2E00
3740
3700
3D00
B400
3540
2E00
ENDCHAR
STARTCHAR afii61352
ENCODING 8470
SWIDTH 1027 0
DWIDTH 9 0
BBX 9 7 0 0
BITMAP
749000
789000
6C9A40
6A9CC0
639CC0
62DA40
61DA80
ENDCHAR
STARTCHAR uni2120
ENCODING 8480
SWIDTH 734 0
DWIDTH 7 0
BBX 7 3 0 4
BITMAP
6B34
66A4
69E4
ENDCHAR
STARTCHAR trademark
ENCODING 8482
SWIDTH 749 0
DWIDTH 7 0
BBX 7 3 0 4
BITMAP
BB34
26A4
25D4
ENDCHAR
STARTCHAR Omega
ENCODING 8486
SWIDTH 786 0
DWIDTH 7 0
BBX 7 7 0 0
BITMAP
1FD0
79B4
7038
7038
7034
28A0
BCF8
ENDCHAR
STARTCHAR estimated
ENCODING 8494
SWIDTH 619 0
DWIDTH 6 0
BBX 5 5 0 0
BITMAP
1540
65C0
9000
5040
1540
ENDCHAR
STARTCHAR oneeighth
ENCODING 8539
SWIDTH 880 0
DWIDTH 8 0
BBX 8 7 0 0
BITMAP
7460
64C0
2580
2769
0678
0C69
1869
ENDCHAR
STARTCHAR threeeighths
ENCODING 8540
SWIDTH 880 0
DWIDTH 8 0
BBX 8 7 0 0
BITMAP
6830
0890
28C0
AAA9
0339
096A
0C29
ENDCHAR
STARTCHAR fiveeighths
ENCODING 8541
SWIDTH 880 0
DWIDTH 8 0
BBX 8 7 0 0
BITMAP
7830
6890
0DC0
6AA9
0339
096A
0C29
ENDCHAR
STARTCHAR seveneighths
ENCODING 8542
SWIDTH 880 0
DWIDTH 8 0
BBX 8 7 0 0
BITMAP
AD60
0CC0
2580
3368
0A68
0C69
2868
ENDCHAR
STARTCHAR partialdiff
ENCODING 8706
SWIDTH 581 0
DWIDTH 5 0
BBX 5 7 0 0
BITMAP
1F40
1280
2FC0
76C0
A280
A740
7D00
ENDCHAR
STARTCHAR Delta
ENCODING 8710
SWIDTH 658 0
DWIDTH 6 0
BBX 6 7 0 0
BITMAP
0F00
1F40
2A80
35C0
70C0
A0D0
BFE0
ENDCHAR
STARTCHAR product
ENCODING 8719
SWIDTH 741 0
DWIDTH 7 0
BBX 6 9 0 -2
BITMAP
7FF0
74B0
7070
7070
7070
7070
7070
7070
7070
ENDCHAR
STARTCHAR summation
ENCODING 8721
SWIDTH 630 0
DWIDTH 6 0
BBX 6 9 0 -2
BITMAP
BFD0
7400
2C00
0A00
0700
0D00
2800
7400
BFE0
ENDCHAR
STARTCHAR minus
ENCODING 8722
SWIDTH 570 0
DWIDTH 5 0
BBX 5 1 0 3
BITMAP
BF80
ENDCHAR
STARTCHAR radical
ENCODING 8730
SWIDTH 548 0
DWIDTH 5 0
BBX 6 8 0 0
BITMAP
0090
00C0
0180
0240
A300
3600
1D00
0C00
ENDCHAR
STARTCHAR infinity
ENCODING 8734
SWIDTH 707 0
DWIDTH 6 0
BBX 6 3 0 2
BITMAP
3AD0
5B20
7AD0
ENDCHAR
STARTCHAR integral
ENCODING 8747
SWIDTH 412 0
DWIDTH 4 0
BBX 4 9 0 -2
BITMAP
1E
28
28
28
28
28
28
74
F0
ENDCHAR
STARTCHAR approxequal
ENCODING 8776
SWIDTH 570 0
DWIDTH 5 0
BBX 5 4 0 1
BITMAP
7840
4B40
7840
4B40
ENDCHAR
STARTCHAR notequal
ENCODING 8800
SWIDTH 570 0
DWIDTH 5 0
BBX 5 5 0 1
BITMAP
0300
BF80
0C00
BF80
2400
ENDCHAR
STARTCHAR lessequal
ENCODING 8804
SWIDTH 570 0
DWIDTH 5 0
BBX 5 6 0 0
BITMAP
0180
1A40
B400
1E40
0180
BF80
ENDCHAR
STARTCHAR greaterequal
ENCODING 8805
SWIDTH 570 0
DWIDTH 5 0
BBX 5 6 0 0
BITMAP
9000
2D00
0780
2E00
9000
BF80
ENDCHAR
STARTCHAR lozenge
ENCODING 9674
SWIDTH 583 0
DWIDTH 5 0
BBX 5 7 0 0
BITMAP
0D00
1E00
3340
6180
3340
1E00
0D00
ENDCHAR
STARTCHAR ff
ENCODING 64256
SWIDTH 773 0
DWIDTH 7 0
BBX 8 7 0 0
BITMAP
2E7D
34B0
BEFC
34A0
34A0
34A0
34A0
ENDCHAR
STARTCHAR uniFB01
ENCODING 64257
SWIDTH 691 0
DWIDTH 6 0
BBX 6 7 0 0
BITMAP
2E90
3440
BDA0
34A0
34A0
34A0
34A0
ENDCHAR
STARTCHAR uniFB02
ENCODING 64258
SWIDTH 691 0
DWIDTH 6 0
BBX 6 7 0 0
BITMAP
2EA0
34A0
BDA0
34A0
34A0
34A0
34A0
ENDCHAR
STARTCHAR uniFB03
ENCODING 64259
SWIDTH 1078 0
DWIDTH 10 0
BBX 9 7 0 0
BITMAP
2E7DC0
34B040
BEFDC0
34A1C0
34A1C0
34A1C0
34A1C0
ENDCHAR
STARTCHAR uniFB04
ENCODING 64260
SWIDTH 1078 0
DWIDTH 10 0
BBX 9 7 0 0
BITMAP
2E7EC0
34B1C0
BEFDC0
34A1C0
34A1C0
34A1C0
34A1C0
ENDCHAR
STARTCHAR uniFEFF
ENCODING 65279
SWIDTH 0 0
DWIDTH 0 0
BBX 1 1 0 0
BITMAP
00
ENDCHAR
STARTCHAR uniFFFC
ENCODING 65532
SWIDTH 1000 0
DWIDTH 9 0
BBX 9 9 0 -2
BITMAP
955580
400040
400040
59A140
52A140
59A540
400040
400040
955580
ENDCHAR
STARTCHAR uniFFFD
ENCODING 65533
SWIDTH 1000 0
DWIDTH 9 0
BBX 9 8 0 -1
BITMAP
008000
03F000
1D1D00
7F8F40
7F3F40
1FFD00
027000
008000
ENDCHAR
STARTCHAR .notdef
ENCODING -1
SWIDTH 600 0
DWIDTH 5 0
BBX 4 6 1 0
BITMAP
95
41
41
41
41
95
ENDCHAR
STARTCHAR null
ENCODING -1
SWIDTH 0 0
DWIDTH 0 0
BBX 1 1 0 0
BITMAP
00
ENDCHAR
STARTCHAR nonmarkingreturn
ENCODING -1
SWIDTH 509 0
DWIDTH 5 0
BBX 1 1 0 0
BITMAP
00
ENDCHAR
STARTCHAR I.alt
ENCODING -1
SWIDTH 389 0
DWIDTH 4 0
BBX 4 7 0 0
BITMAP
BD
34
34
34
34
34
BD
ENDCHAR
STARTCHAR Igrave.alt
ENCODING -1
SWIDTH 389 0
DWIDTH 4 0
BBX 4 10 0 0
BITMAP
B0
28
00
BD
34
34
34
34
34
BD
ENDCHAR
STARTCHAR Iacute.alt
ENCODING -1
SWIDTH 389 0
DWIDTH 4 0
BBX 4 10 0 0
BITMAP
1D
24
00
BD
34
34
34
34
34
BD
ENDCHAR
STARTCHAR Icircumflex.alt
ENCODING -1
SWIDTH 389 0
DWIDTH 4 0
BBX 4 10 0 0
BITMAP
78
D9
00
BD
34
34
34
34
34
BD
ENDCHAR
STARTCHAR Idieresis.alt
ENCODING -1
SWIDTH 389 0
DWIDTH 4 0
BBX 4 9 0 0
BITMAP
98
00
BD
34
34
34
34
34
BD
ENDCHAR
STARTCHAR Itilde.alt
ENCODING -1
SWIDTH 389 0
DWIDTH 4 0
BBX 4 10 0 0
BITMAP
A6
9C
00
BD
34
34
34
34
34
BD
ENDCHAR
STARTCHAR Imacron.alt
ENCODING -1
SWIDTH 389 0
DWIDTH 4 0
BBX 4 9 0 0
BITMAP
BD
00
BD
34
34
34
34
34
BD
ENDCHAR
STARTCHAR Ibreve.alt
ENCODING -1
SWIDTH 389 0
DWIDTH 4 0
BBX 4 10 0 0
BITMAP
85
78
00
BD
34
34
34
34
34
BD
ENDCHAR
STARTCHAR Iogonek.alt
ENCODING -1
SWIDTH 389 0
DWIDTH 4 0
BBX 4 9 0 -2
BITMAP
BD
34
34
34
34
34
BD
60
74
ENDCHAR
STARTCHAR Idotaccent.alt
ENCODING -1
SWIDTH 389 0
DWIDTH 4 0
BBX 4 10 0 0
BITMAP
10
34
00
BD
34
34
34
34
34
BD
ENDCHAR
STARTCHAR IJ.alt
ENCODING -1
SWIDTH 720 0
DWIDTH 6 0
BBX 6 8 0 -1
BITMAP
BDA0
34A0
34A0
34A0
34A0
34A0
BDE0
0380
ENDCHAR
STARTCHAR Iotatonos.alt
ENCODING -1
SWIDTH 512 0
DWIDTH 5 0
BBX 6 7 -1 0
BITMAP
3BD0
6280
0280
0280
0280
0280
0BD0
ENDCHAR
STARTCHAR Iota.alt
ENCODING -1
SWIDTH 389 0
DWIDTH 4 0
BBX 4 7 0 0
BITMAP
BD
34
34
34
34
34
BD
ENDCHAR
STARTCHAR Iotadieresis.alt
ENCODING -1
SWIDTH 389 0
DWIDTH 4 0
BBX 4 9 0 0
BITMAP
98
00
BD
34
34
34
34
34
BD
ENDCHAR
STARTCHAR afii10055.alt
ENCODING -1
SWIDTH 389 0
DWIDTH 4 0
BBX 4 7 0 0
BITMAP
BD
34
34
34
34
34
BD
ENDCHAR
STARTCHAR afii10056.alt
ENCODING -1
SWIDTH 389 0
DWIDTH 4 0
BBX 4 9 0 0
BITMAP
98
00
BD
34
34
34
34
34
BD
ENDCHAR
STARTCHAR cyrillicbreve
ENCODING -1
SWIDTH 577 0
DWIDTH 5 0
BBX 5 2 0 5
BITMAP
6280
2A00
ENDCHAR
STARTCHAR caroncommaaccent
ENCODING -1
SWIDTH 500 0
DWIDTH 5 0
BBX 2 2 1 5
BITMAP
60
50
ENDCHAR
STARTCHAR commaaccent
ENCODING -1
SWIDTH 500 0
DWIDTH 5 0
BBX 2 1 1 -2
BITMAP
60
ENDCHAR
STARTCHAR commaaccentrotate
ENCODING -1
SWIDTH 500 0
DWIDTH 5 0
BBX 2 2 1 5
BITMAP
30
60
ENDCHAR
STARTCHAR dasiaoxia
ENCODING -1
SWIDTH 250 0
DWIDTH 2 0
BBX 4 1 0 6
BITMAP
69
ENDCHAR
STARTCHAR uni04C0.alt
ENCODING -1
SWIDTH 389 0
DWIDTH 4 0
BBX 4 7 0 0
BITMAP
BD
34
34
34
34
34
BD
ENDCHAR
STARTCHAR uni04CF.alt
ENCODING -1
SWIDTH 389 0
DWIDTH 4 0
BBX 4 7 0 0
BITMAP
BD
34
34
34
34
34
BD
ENDCHAR
STARTCHAR uni1EC8.alt
ENCODING -1
SWIDTH 389 0
DWIDTH 4 0
BBX 4 10 0 0
BITMAP
28
20
00
BD
34
34
34
34
34
BD
ENDCHAR
STARTCHAR uni1ECA.alt
ENCODING -1
SWIDTH 389 0
DWIDTH 4 0
BBX 4 10 0 -3
BITMAP
BD
34
34
34
34
34
BD
00
34
10
ENDCHAR
STARTCHAR circumflexacutecomb
ENCODING -1
SWIDTH 0 0
DWIDTH 0 0
BBX 4 2 -4 5
BITMAP
B6
88
ENDCHAR
STARTCHAR circumflexgravecomb
ENCODING -1
SWIDTH 0 0
DWIDTH 0 0
BBX 5 2 -6 5
BITMAP
6B40
0880
ENDCHAR
STARTCHAR circumflexhookcomb
ENCODING -1
SWIDTH 0 0
DWIDTH 0 0
BBX 4 3 -4 5
BITMAP
06
B9
88
ENDCHAR
STARTCHAR circumflextildecomb
ENCODING -1
SWIDTH 0 0
DWIDTH 0 0
BBX 3 3 -4 5
BITMAP
A8
B4
88
ENDCHAR
STARTCHAR breveacutecomb
ENCODING -1
SWIDTH 0 0
DWIDTH 0 0
BBX 4 3 -5 5
BITMAP
08
66
29
ENDCHAR
STARTCHAR brevegravecomb
ENCODING -1
SWIDTH 0 0
DWIDTH 0 0
BBX 4 3 -5 5
BITMAP
24
66
29
ENDCHAR
STARTCHAR brevehookcomb
ENCODING -1
SWIDTH 0 0
DWIDTH 0 0
BBX 4 3 -5 5
BITMAP
08
6A
29
ENDCHAR
STARTCHAR brevetildecomb
ENCODING -1
SWIDTH 0 0
DWIDTH 0 0
BBX 4 4 -5 5
BITMAP
25
15
62
29
ENDCHAR
STARTCHAR cyrillichookleft
ENCODING -1
SWIDTH 206 0
DWIDTH 2 0
BBX 2 2 0 -2
BITMAP
60
A0
ENDCHAR
STARTCHAR cyrillicbighookUC
ENCODING -1
SWIDTH 291 0
DWIDTH 3 0
BBX 3 3 0 -2
BITMAP
34
34
F0
ENDCHAR
STARTCHAR cyrillicbighookLC
ENCODING -1
SWIDTH 291 0
DWIDTH 3 0
BBX 3 3 0 -2
BITMAP
34
34
F0
ENDCHAR
STARTCHAR one.pnum
ENCODING -1
SWIDTH 480 0
DWIDTH 4 0
BBX 4 7 0 0
BITMAP
1D
7D
4D
0D
0D
0D
0D
ENDCHAR
STARTCHAR zero.os
ENCODING -1
SWIDTH 608 0
DWIDTH 5 0
BBX 5 5 0 0
BITMAP
2F40
76C0
A1C0
76C0
2F40
ENDCHAR
STARTCHAR one.os
ENCODING -1
SWIDTH 492 0
DWIDTH 4 0
BBX 4 5 0 0
BITMAP
1E
7E
0A
0A
0A
ENDCHAR
STARTCHAR two.os
ENCODING -1
SWIDTH 570 0
DWIDTH 5 0
BBX 5 5 0 0
BITMAP
6E00
5740
0700
2D00
BF80
ENDCHAR
STARTCHAR three.os
ENCODING -1
SWIDTH 570 0
DWIDTH 5 0
BBX 5 6 0 -1
BITMAP
7F40
1740
2E00
0280
4380
7E00
ENDCHAR
STARTCHAR four.os
ENCODING -1
SWIDTH 570 0
DWIDTH 5 0
BBX 5 6 0 -1
BITMAP
0740
0F40
2740
6340
FFC0
0340
ENDCHAR
STARTCHAR five.os
ENCODING -1
SWIDTH 570 0
DWIDTH 5 0
BBX 5 6 0 -1
BITMAP
7F40
7000
7E40
0280
5780
7E00
ENDCHAR
STARTCHAR six.os
ENCODING -1
SWIDTH 570 0
DWIDTH 5 0
BBX 5 7 0 0
BITMAP
1B40
7400
AF40
B280
A180
7680
2E00
ENDCHAR
STARTCHAR seven.os
ENCODING -1
SWIDTH 570 0
DWIDTH 5 0
BBX 5 6 0 -1
BITMAP
BFC0
0380
0700
0A00
1C00
2800
ENDCHAR
STARTCHAR eight.os
ENCODING -1
SWIDTH 570 0
DWIDTH 5 0
BBX 5 7 0 0
BITMAP
2E00
7280
7740
2E00
A280
A280
2E40
ENDCHAR
STARTCHAR nine.os
ENCODING -1
SWIDTH 570 0
DWIDTH 5 0
BBX 5 6 0 -1
BITMAP
2E00
A680
A280
7E80
0740
7D00
ENDCHAR
STARTCHAR g.alt
ENCODING -1
SWIDTH 632 0
DWIDTH 6 0
BBX 5 7 0 -2
BITMAP
2EC0
76C0
A1C0
72C0
2EC0
02C0
7F40
ENDCHAR
STARTCHAR gcircumflex.alt
ENCODING -1
SWIDTH 632 0
DWIDTH 6 0
BBX 5 10 0 -2
BITMAP
1F00
2640
0000
2EC0
76C0
A1C0
72C0
2EC0
02C0
7F40
ENDCHAR
STARTCHAR gbreve.alt
ENCODING -1
SWIDTH 632 0
DWIDTH 6 0
BBX 5 10 0 -2
BITMAP
2140
1E00
0000
2EC0
76C0
A1C0
72C0
2EC0
02C0
7F40
ENDCHAR
STARTCHAR gdot.alt
ENCODING -1
SWIDTH 632 0
DWIDTH 6 0
BBX 5 10 0 -2
BITMAP
0400
0900
0000
2EC0
76C0
A1C0
72C0
2EC0
02C0
7F40
ENDCHAR
STARTCHAR gcommaaccent.alt
ENCODING -1
SWIDTH 632 0
DWIDTH 6 0
BBX 5 10 0 -2
BITMAP
0600
0900
0000
2EC0
76C0
A1C0
72C0
2EC0
02C0
7F40
ENDCHAR
ENDFONT
